SplineFontDB: 1.0
FontName: THMaliGrade6-BoldItalic
FullName: THMaliGrade6-BoldItalic
FamilyName: TH Mali Grade 6
Weight: Bold
Copyright: Copyright (c) 2006 by Department of Intellectual Property (DIP), Ministry of Commerce and Software Industry Promotion Agency (Public Organization) (SIPA). All rights reserved.
Version: 1.1
ItalicAngle: -14
UnderlinePosition: -55
UnderlineWidth: 50
Ascent: 1638
Descent: 410
Order2: 1
XUID: [1021 375 425136265 16154816]
FSType: 0
OS2Version: 3
OS2_WeightWidthSlopeOnly: 0
OS2_UseTypoMetrics: 1
CreationTime: 1152588240
ModificationTime: 1174462617
PfmFamily: 17
TTFWeight: 700
TTFWidth: 5
LineGap: 123
VLineGap: 0
Panose: 2 0 5 6 0 0 0 2 0 4
OS2TypoAscent: 0
OS2TypoAOffset: 1
OS2TypoDescent: 0
OS2TypoDOffset: 1
OS2TypoLinegap: 0
OS2WinAscent: -18
OS2WinAOffset: 1
OS2WinDescent: 206
OS2WinDOffset: 1
HheadAscent: -18
HheadAOffset: 1
HheadDescent: 223
HheadDOffset: 1
OS2SubXSize: 1434
OS2SubYSize: 1331
OS2SubXOff: 0
OS2SubYOff: 287
OS2SupXSize: 1434
OS2SupYSize: 1331
OS2SupXOff: 0
OS2SupYOff: 977
OS2StrikeYSize: 49
OS2StrikeYPos: 399
OS2FamilyClass: 773
OS2Vendor: 'IPTH'
ScriptLang: 2
 1 latn 1 dflt 
 0 
ChainSub: coverage 0 0 'liga' 0 0 0 1
 1 0 1
  Coverage: 64 uni0E48.alt2 uni0E49.alt2 uni0E4A.alt2 uni0E4B.alt2 uni0E4C.alt2
  FCoverage: 7 uni0E33
 1
  SeqLookup: 0 'L027'
EndFPST
ChainSub: coverage 0 0 'liga' 0 0 0 1
 1 1 0
  Coverage: 7 uni0E47
  BCoverage: 12 uni0E2C.alt1
 1
  SeqLookup: 0 'L026'
EndFPST
ChainSub: coverage 0 0 'liga' 0 0 0 1
 1 0 1
  Coverage: 7 uni0E2C
  FCoverage: 39 uni0E34 uni0E35 uni0E36 uni0E37 uni0E47
 1
  SeqLookup: 0 'L026'
EndFPST
ChainSub: coverage 0 0 'liga' 0 0 0 1
 1 0 1
  Coverage: 15 uni0E0E uni0E0F
  FCoverage: 38 uni0E38.alt1 uni0E39.alt1 uni0E3A.alt1
 1
  SeqLookup: 0 'L026'
EndFPST
ChainSub: coverage 0 0 'liga' 0 0 0 1
 1 1 0
  Coverage: 5 a b c
  BCoverage: 23 uni0E1B uni0E1D uni0E1F
 1
  SeqLookup: 0 'L026'
EndFPST
ChainSub: coverage 0 0 'liga' 0 0 0 1
 1 0 1
  Coverage: 5 a b c

StartChar: .notdef
Encoding: 65536 -1 0
Width: 1024
Flags: W
Fore
1168 1387 m 0,0,1
 1165 1372 1165 1372 1157.5 1336 c 128,-1,2
 1150 1300 1150 1300 1138.5 1248 c 128,-1,3
 1127 1196 1127 1196 1113 1130 c 128,-1,4
 1099 1064 1099 1064 1083 990.5 c 128,-1,5
 1067 917 1067 917 1050 837.5 c 128,-1,6
 1033 758 1033 758 1015 678 c 0,7,8
 988 559 988 559 961 448 c 128,-1,9
 934 337 934 337 910.5 250 c 128,-1,10
 887 163 887 163 870.5 108 c 128,-1,11
 854 53 854 53 849 47 c 1,12,-1
 875 55 l 1,13,14
 873 14 873 14 830 14 c 0,15,16
 661 22 661 22 543 24.5 c 128,-1,17
 425 27 425 27 345 27 c 0,18,19
 257 27 257 27 210.5 24.5 c 128,-1,20
 164 22 164 22 145 20 c 0,21,22
 141 20 141 20 136 20.5 c 128,-1,23
 131 21 131 21 127.5 23.5 c 128,-1,24
 124 26 124 26 122 32 c 128,-1,25
 120 38 120 38 122 49 c 2,26,-1
 131 94 l 2,27,28
 139 132 139 132 152.5 194 c 128,-1,29
 166 256 166 256 183 334 c 0,30,31
 193 379 193 379 204.5 430.5 c 128,-1,32
 216 482 216 482 228 537 c 128,-1,33
 240 592 240 592 252.5 647 c 128,-1,34
 265 702 265 702 276 754 c 2,35,-1
 371 1189 l 2,36,37
 389 1268 389 1268 401 1316.5 c 128,-1,38
 413 1365 413 1365 422 1368 c 1,39,40
 411 1368 411 1368 413 1381 c 0,41,42
 419 1409 419 1409 442 1415.5 c 128,-1,43
 465 1422 465 1422 491 1419 c 0,44,45
 649 1414 649 1414 760.5 1411.5 c 128,-1,46
 872 1409 872 1409 948 1409 c 0,47,48
 1035 1409 1035 1409 1080.5 1411 c 128,-1,49
 1126 1413 1126 1413 1146 1415 c 0,50,51
 1150 1415 1150 1415 1155 1415 c 128,-1,52
 1160 1415 1160 1415 1163.5 1412.5 c 128,-1,53
 1167 1410 1167 1410 1169 1404 c 128,-1,54
 1171 1398 1171 1398 1168 1387 c 0,0,1
470 1340 m 1,55,56
 471 1340 471 1340 473 1343 c 1,57,-1
 472 1340 l 1,58,-1
 470 1340 l 1,55,56
921 1334 m 2,59,60
 834 1334 834 1334 720.5 1335 c 128,-1,61
 607 1336 607 1336 473 1340 c 2,62,-1
 472 1340 l 1,63,64
 467 1314 467 1314 453 1251.5 c 128,-1,65
 439 1189 439 1189 420 1102.5 c 128,-1,66
 401 1016 401 1016 378.5 913.5 c 128,-1,67
 356 811 356 811 332 705 c 0,68,69
 322 658 322 658 310.5 607 c 128,-1,70
 299 556 299 556 287.5 504 c 128,-1,71
 276 452 276 452 264 401.5 c 128,-1,72
 252 351 252 351 242 304 c 0,73,74
 224 220 224 220 212.5 169 c 128,-1,75
 201 118 201 118 197 102 c 1,76,77
 238 101 238 101 281.5 100.5 c 128,-1,78
 325 100 325 100 373 100 c 0,79,80
 411 99 411 99 455 98.5 c 128,-1,81
 499 98 499 98 548 98 c 0,82,83
 612 97 612 97 676.5 97 c 128,-1,84
 741 97 741 97 818 95 c 1,85,86
 821 110 821 110 826.5 135.5 c 128,-1,87
 832 161 832 161 841 199 c 0,88,89
 846 223 846 223 853 253.5 c 128,-1,90
 860 284 860 284 866.5 315 c 128,-1,91
 873 346 873 346 880 376 c 128,-1,92
 887 406 887 406 892 430 c 2,93,-1
 954 714 l 1,94,-1
 1040 1104 l 2,95,96
 1043 1116 1043 1116 1046.5 1133.5 c 128,-1,97
 1050 1151 1050 1151 1054 1168.5 c 128,-1,98
 1058 1186 1058 1186 1062 1202 c 128,-1,99
 1066 1218 1066 1218 1068 1229 c 0,100,101
 1079 1277 1079 1277 1083.5 1300 c 128,-1,102
 1088 1323 1088 1323 1092 1334 c 1,103,-1
 921 1334 l 2,59,60
EndSplineSet
EndChar
StartChar: exclam
Encoding: 33 33 4
Width: 317
Flags: W
Fore
231 204 m 1,0,1
 224 191 224 191 215 184 c 128,-1,2
 206 177 206 177 191 177 c 0,3,4
 162 175 162 175 162 204 c 1,5,-1
 259 793 l 2,6,7
 267 823 267 823 288 836.5 c 128,-1,8
 309 850 309 850 331 850 c 0,9,10
 354 850 354 850 371.5 835.5 c 128,-1,11
 389 821 389 821 384 794 c 2,12,-1
 231 204 l 1,0,1
235 73 m 1,13,14
 227 47 227 47 205.5 28.5 c 128,-1,15
 184 10 184 10 158 10 c 0,16,17
 126 10 126 10 111.5 30.5 c 128,-1,18
 97 51 97 51 103 79 c 0,19,20
 109 105 109 105 131.5 124 c 128,-1,21
 154 143 154 143 186 143 c 0,22,23
 203 143 203 143 213.5 137 c 128,-1,24
 224 131 224 131 230 121 c 128,-1,25
 236 111 236 111 237 98.5 c 128,-1,26
 238 86 238 86 235 74 c 1,27,-1
 235 73 l 1,13,14
EndSplineSet
EndChar
StartChar: quotedbl
Encoding: 34 34 5
Width: 444
Flags: W
Fore
315 721 m 1,0,1
 307 708 307 708 296.5 700.5 c 128,-1,2
 286 693 286 693 276 692 c 128,-1,3
 266 691 266 691 259 697 c 128,-1,4
 252 703 252 703 252 718 c 1,5,-1
 291 951 l 2,6,7
 296 968 296 968 311 977 c 128,-1,8
 326 986 326 986 341 986 c 0,9,10
 357 986 357 986 367.5 977 c 128,-1,11
 378 968 378 968 374 950 c 2,12,-1
 315 721 l 1,0,1
471 718 m 1,13,14
 465 705 465 705 455.5 698.5 c 128,-1,15
 446 692 446 692 436 692 c 128,-1,16
 426 692 426 692 418.5 699 c 128,-1,17
 411 706 411 706 410 721 c 1,18,-1
 449 951 l 2,19,20
 454 968 454 968 469 977 c 128,-1,21
 484 986 484 986 499 986 c 0,22,23
 515 986 515 986 525.5 977 c 128,-1,24
 536 968 536 968 532 950 c 2,25,-1
 471 718 l 1,13,14
EndSplineSet
EndChar
StartChar: numbersign
Encoding: 35 35 6
Width: 737
Flags: W
Fore
509 387 m 1,0,1
 523 422 523 422 535 452 c 128,-1,2
 547 482 547 482 562 519 c 1,3,-1
 424 519 l 1,4,5
 412 483 412 483 401 453 c 128,-1,6
 390 423 390 423 376 385 c 1,7,-1
 509 387 l 1,0,1
306 385 m 1,8,-1
 356 522 l 1,9,-1
 308 522 l 1,10,11
 281 528 281 528 285 558 c 0,12,13
 291 593 291 593 325 593 c 2,14,-1
 380 593 l 1,15,-1
 430 728 l 2,16,17
 445 764 445 764 476 763 c 0,18,19
 492 762 492 762 497.5 751 c 128,-1,20
 503 740 503 740 496 722 c 0,21,22
 483 687 483 687 471.5 656.5 c 128,-1,23
 460 626 460 626 448 591 c 1,24,-1
 585 591 l 1,25,26
 592 610 592 610 599.5 628 c 128,-1,27
 607 646 607 646 614 659 c 0,28,29
 622 676 622 676 629 696 c 128,-1,30
 636 716 636 716 644 741 c 0,31,32
 648 751 648 751 660 753.5 c 128,-1,33
 672 756 672 756 684.5 753 c 128,-1,34
 697 750 697 750 705.5 743.5 c 128,-1,35
 714 737 714 737 713 729 c 1,36,-1
 656 589 l 1,37,-1
 712 589 l 1,38,39
 741 583 741 583 735 551 c 0,40,41
 727 519 727 519 694 519 c 2,42,-1
 631 519 l 1,43,44
 617 484 617 484 604.5 453.5 c 128,-1,45
 592 423 592 423 578 387 c 1,46,-1
 654 387 l 1,47,48
 668 385 668 385 673 373.5 c 128,-1,49
 678 362 678 362 676 350 c 0,50,51
 673 337 673 337 663 326.5 c 128,-1,52
 653 316 653 316 637 316 c 2,53,-1
 553 316 l 1,54,55
 539 279 539 279 527 243 c 128,-1,56
 515 207 515 207 501 172 c 1,57,58
 492 158 492 158 479 153 c 128,-1,59
 466 148 466 148 455 150 c 128,-1,60
 444 152 444 152 438 160.5 c 128,-1,61
 432 169 432 169 437 184 c 2,62,-1
 484 316 l 1,63,-1
 353 316 l 1,64,-1
 301 171 l 2,65,66
 287 144 287 144 259 144 c 0,67,68
 242 144 242 144 233 155 c 128,-1,69
 224 166 224 166 235 184 c 1,70,-1
 283 316 l 1,71,-1
 226 316 l 2,72,73
 209 316 209 316 202 326.5 c 128,-1,74
 195 337 195 337 198 350 c 256,75,76
 201 363 201 363 212 374 c 128,-1,77
 223 385 223 385 240 385 c 2,78,-1
 306 385 l 1,8,-1
EndSplineSet
EndChar
StartChar: dollar
Encoding: 36 36 7
Width: 782
Flags: W
Fore
560 943 m 2,0,1
 564 963 564 963 577 972.5 c 128,-1,2
 590 982 590 982 604 982 c 0,3,4
 617 982 617 982 627 972.5 c 128,-1,5
 637 963 637 963 633 943 c 2,6,-1
 616 864 l 1,7,8
 693 851 693 851 729.5 795 c 128,-1,9
 766 739 766 739 749 645 c 1,10,11
 742 629 742 629 733 620.5 c 128,-1,12
 724 612 724 612 710 611 c 0,13,14
 683 610 683 610 687 641 c 0,15,16
 690 664 690 664 688 689 c 128,-1,17
 686 714 686 714 676.5 736.5 c 128,-1,18
 667 759 667 759 649 776.5 c 128,-1,19
 631 794 631 794 603 802 c 1,20,-1
 533 471 l 1,21,22
 594 457 594 457 626 429.5 c 128,-1,23
 658 402 658 402 670 368 c 128,-1,24
 682 334 682 334 679 296.5 c 128,-1,25
 676 259 676 259 667 225 c 0,26,27
 649 161 649 161 591 104 c 0,28,29
 536 52 536 52 441 41 c 1,30,-1
 424 -39 l 2,31,32
 420 -59 420 -59 406 -68.5 c 128,-1,33
 392 -78 392 -78 379 -78 c 0,34,35
 365 -78 365 -78 356 -68.5 c 128,-1,36
 347 -59 347 -59 351 -39 c 2,37,-1
 368 40 l 1,38,39
 268 46 268 46 209 97 c 128,-1,40
 150 148 150 148 155 241 c 1,41,-1
 155 240 l 1,42,43
 153 257 153 257 162.5 266.5 c 128,-1,44
 172 276 172 276 190 274 c 0,45,46
 205 273 205 273 212 267.5 c 128,-1,47
 219 262 219 262 217 248 c 1,48,49
 218 219 218 219 227.5 194 c 128,-1,50
 237 169 237 169 257 149 c 128,-1,51
 277 129 277 129 307.5 116.5 c 128,-1,52
 338 104 338 104 381 101 c 1,53,-1
 448 417 l 1,54,55
 347 428 347 428 301 483 c 128,-1,56
 255 538 255 538 264 629 c 0,57,58
 270 675 270 675 295 716.5 c 128,-1,59
 320 758 320 758 357.5 789.5 c 128,-1,60
 395 821 395 821 443 842 c 128,-1,61
 491 863 491 863 544 869 c 1,62,-1
 560 943 l 2,0,1
331 631 m 0,63,64
 329 610 329 610 331.5 587.5 c 128,-1,65
 334 565 334 565 347.5 544.5 c 128,-1,66
 361 524 361 524 388 507.5 c 128,-1,67
 415 491 415 491 462 482 c 1,68,-1
 531 807 l 1,69,70
 490 804 490 804 457.5 790 c 128,-1,71
 425 776 425 776 399 753 c 0,72,73
 372 728 372 728 354 697 c 128,-1,74
 336 666 336 666 331 631 c 0,63,64
607 226 m 0,75,76
 625 304 625 304 602.5 346 c 128,-1,77
 580 388 580 388 519 406 c 1,78,-1
 454 103 l 1,79,80
 495 109 495 109 523 124 c 128,-1,81
 551 139 551 139 569 158 c 128,-1,82
 587 177 587 177 595.5 195.5 c 128,-1,83
 604 214 604 214 607 226 c 0,75,76
EndSplineSet
EndChar
StartChar: percent
Encoding: 37 37 8
Width: 985
Flags: W
Fore
350 20 m 1,0,1
 321 -8 321 -8 295 -2 c 0,2,3
 263 5 263 5 287 46 c 2,4,-1
 802 872 l 2,5,6
 811 885 811 885 822 891.5 c 128,-1,7
 833 898 833 898 843 898 c 0,8,9
 852 898 852 898 859 893.5 c 128,-1,10
 866 889 866 889 869 881.5 c 128,-1,11
 872 874 872 874 869.5 864 c 128,-1,12
 867 854 867 854 858 842 c 2,13,-1
 350 20 l 1,0,1
591 674 m 0,14,15
 579 622 579 622 533 571 c 1,16,-1
 534 571 l 1,17,18
 488 522 488 522 412 522 c 0,19,20
 337 522 337 522 305 572 c 0,21,22
 276 622 276 622 288 678 c 0,23,24
 298 733 298 733 349 782 c 0,25,26
 401 832 401 832 478 832 c 0,27,28
 517 832 517 832 541.5 817 c 128,-1,29
 566 802 566 802 579 779 c 128,-1,30
 592 756 592 756 594.5 728 c 128,-1,31
 597 700 597 700 591 674 c 0,14,15
529 673 m 0,32,33
 535 705 535 705 519 733 c 0,34,35
 505 763 505 763 466 763 c 0,36,37
 425 763 425 763 395 739 c 128,-1,38
 365 715 365 715 357 680 c 0,39,40
 349 643 349 643 368 616 c 128,-1,41
 387 589 387 589 429 589 c 0,42,43
 464 589 464 589 491.5 613.5 c 128,-1,44
 519 638 519 638 529 673 c 0,32,33
871 211 m 0,45,46
 860 156 860 156 813 107 c 1,47,-1
 814 107 l 1,48,49
 769 58 769 58 693 58 c 0,50,51
 618 58 618 58 586 108 c 0,52,53
 572 134 572 134 567 160 c 128,-1,54
 562 186 562 186 568 215 c 0,55,56
 580 270 580 270 629 319 c 0,57,58
 681 369 681 369 759 369 c 0,59,60
 798 369 798 369 822 354 c 128,-1,61
 846 339 846 339 859 316 c 128,-1,62
 872 293 872 293 874.5 265 c 128,-1,63
 877 237 877 237 871 211 c 0,45,46
811 211 m 1,64,65
 813 225 813 225 810.5 240.5 c 128,-1,66
 808 256 808 256 802 270 c 0,67,68
 788 299 788 299 746 299 c 0,69,70
 705 299 705 299 675 275.5 c 128,-1,71
 645 252 645 252 638 217 c 0,72,73
 630 180 630 180 648.5 152.5 c 128,-1,74
 667 125 667 125 709 125 c 0,75,76
 744 125 744 125 771.5 150 c 128,-1,77
 799 175 799 175 811 211 c 1,64,65
EndSplineSet
EndChar
StartChar: ampersand
Encoding: 38 38 9
Width: 829
Flags: W
Fore
541 130 m 1,0,1
 535 133 535 133 530 138 c 1,2,-1
 542 148 l 1,3,-1
 541 130 l 1,0,1
363 85 m 0,4,5
 411 83 411 83 454.5 97.5 c 128,-1,6
 498 112 498 112 530 138 c 1,7,8
 461 188 461 188 421 259 c 128,-1,9
 381 330 381 330 361 419 c 1,10,11
 338 414 338 414 317.5 399 c 128,-1,12
 297 384 297 384 279.5 361.5 c 128,-1,13
 262 339 262 339 249.5 312 c 128,-1,14
 237 285 237 285 231 256 c 0,15,16
 224 225 224 225 227 194.5 c 128,-1,17
 230 164 230 164 245 140 c 128,-1,18
 260 116 260 116 289 101 c 128,-1,19
 318 86 318 86 363 85 c 0,4,5
418 519 m 1,20,21
 447 521 447 521 470.5 532 c 128,-1,22
 494 543 494 543 511 560 c 0,23,24
 527 577 527 577 538.5 597 c 128,-1,25
 550 617 550 617 555 637 c 0,26,27
 559 657 559 657 556.5 676 c 128,-1,28
 554 695 554 695 544.5 711 c 128,-1,29
 535 727 535 727 518.5 737 c 128,-1,30
 502 747 502 747 477 749 c 0,31,32
 414 755 414 755 376 723 c 0,33,34
 337 690 337 690 327 648 c 0,35,36
 317 604 317 604 337 565 c 0,37,38
 358 527 358 527 418 519 c 1,20,21
670 396 m 1,39,40
 667 411 667 411 677 419.5 c 128,-1,41
 687 428 687 428 700.5 429 c 128,-1,42
 714 430 714 430 727 424.5 c 128,-1,43
 740 419 740 419 744 406 c 0,44,45
 749 383 749 383 750 356.5 c 128,-1,46
 751 330 751 330 744 301 c 0,47,48
 737 266 737 266 719 229 c 128,-1,49
 701 192 701 192 668 156 c 1,50,51
 690 135 690 135 706 125.5 c 128,-1,52
 722 116 722 116 747 104 c 2,53,-1
 768 94 l 1,54,55
 782 84 782 84 781 70.5 c 128,-1,56
 780 57 780 57 770.5 46.5 c 128,-1,57
 761 36 761 36 747.5 30.5 c 128,-1,58
 734 25 734 25 722 31 c 1,59,-1
 724 31 l 1,60,61
 702 40 702 40 684.5 48.5 c 128,-1,62
 667 57 667 57 654 64 c 0,63,64
 643 72 643 72 631.5 83 c 128,-1,65
 620 94 620 94 608 108 c 1,66,67
 546 66 546 66 483 41 c 128,-1,68
 420 16 420 16 355 14 c 0,69,70
 289 12 289 12 245.5 33 c 128,-1,71
 202 54 202 54 177.5 89 c 128,-1,72
 153 124 153 124 147 169 c 128,-1,73
 141 214 141 214 151 260 c 0,74,75
 158 293 158 293 172.5 325.5 c 128,-1,76
 187 358 187 358 208.5 386 c 128,-1,77
 230 414 230 414 257 436.5 c 128,-1,78
 284 459 284 459 317 474 c 1,79,80
 297 484 297 484 281.5 499.5 c 128,-1,81
 266 515 266 515 258 536 c 0,82,83
 248 565 248 565 248 598 c 128,-1,84
 248 631 248 631 257 661 c 0,85,86
 266 693 266 693 287.5 722.5 c 128,-1,87
 309 752 309 752 339 776 c 0,88,89
 370 799 370 799 413.5 810.5 c 128,-1,90
 457 822 457 822 502 820 c 0,91,92
 537 818 537 818 564.5 804 c 128,-1,93
 592 790 592 790 608 764 c 0,94,95
 639 710 639 710 630 646 c 0,96,97
 621 579 621 579 568 522 c 0,98,99
 520 468 520 468 438 453 c 1,100,101
 449 410 449 410 462.5 373 c 128,-1,102
 476 336 476 336 493 305 c 0,103,104
 512 273 512 273 538.5 244 c 128,-1,105
 565 215 565 215 601 189 c 1,106,107
 628 213 628 213 644.5 241.5 c 128,-1,108
 661 270 661 270 667 300 c 0,109,110
 672 324 672 324 672.5 348 c 128,-1,111
 673 372 673 372 670 396 c 1,112,-1
 670 396 l 1,39,40
EndSplineSet
EndChar
StartChar: quotesingle
Encoding: 39 39 10
Width: 236
Flags: W
Fore
268 576 m 1,0,1
 262 562 262 562 251 554.5 c 128,-1,2
 240 547 240 547 230 547 c 128,-1,3
 220 547 220 547 213 554.5 c 128,-1,4
 206 562 206 562 206 577 c 1,5,-1
 246 808 l 1,6,7
 252 826 252 826 267 835.5 c 128,-1,8
 282 845 282 845 297 845 c 0,9,10
 311 845 311 845 321.5 835 c 128,-1,11
 332 825 332 825 328 807 c 2,12,-1
 268 576 l 1,0,1
EndSplineSet
EndChar
StartChar: parenleft
Encoding: 40 40 11
Width: 489
Flags: W
Fore
311 -73 m 1,0,1
 327 -90 327 -90 322 -112 c 0,2,3
 319 -124 319 -124 311.5 -133.5 c 128,-1,4
 304 -143 304 -143 293.5 -148.5 c 128,-1,5
 283 -154 283 -154 271 -152.5 c 128,-1,6
 259 -151 259 -151 247 -140 c 1,7,8
 164 -32 164 -32 137.5 90.5 c 128,-1,9
 111 213 111 213 142 362 c 0,10,11
 174 509 174 509 257 639.5 c 128,-1,12
 340 770 340 770 471 879 c 1,13,14
 484 886 484 886 495 884.5 c 128,-1,15
 506 883 506 883 513 876.5 c 128,-1,16
 520 870 520 870 523 859.5 c 128,-1,17
 526 849 526 849 523 837 c 0,18,19
 521 828 521 828 515 818 c 128,-1,20
 509 808 509 808 498 800 c 0,21,22
 392 710 392 710 320 598.5 c 128,-1,23
 248 487 248 487 221 362 c 0,24,25
 194 234 194 234 218 126 c 128,-1,26
 242 18 242 18 311 -74 c 1,27,-1
 311 -73 l 1,0,1
EndSplineSet
EndChar
StartChar: parenright
Encoding: 41 41 12
Width: 489
Flags: W
Fore
127 -74 m 1,0,1
 235 18 235 18 304 126 c 128,-1,2
 373 234 373 234 400 362 c 0,3,4
 427 487 427 487 402.5 599 c 128,-1,5
 378 711 378 711 312 800 c 1,6,7
 295 817 295 817 300 838 c 0,8,9
 302 850 302 850 309.5 860.5 c 128,-1,10
 317 871 317 871 327.5 878 c 128,-1,11
 338 885 338 885 349 885.5 c 128,-1,12
 360 886 360 886 370 879 c 1,13,14
 455 770 455 770 483 639.5 c 128,-1,15
 511 509 511 509 479 362 c 0,16,17
 448 213 448 213 369 90.5 c 128,-1,18
 290 -32 290 -32 162 -140 c 0,19,20
 146 -151 146 -151 133 -152.5 c 128,-1,21
 120 -154 120 -154 111.5 -149 c 128,-1,22
 103 -144 103 -144 99.5 -134.5 c 128,-1,23
 96 -125 96 -125 98 -113 c 0,24,25
 103 -90 103 -90 127 -73 c 1,26,-1
 127 -74 l 1,0,1
EndSplineSet
EndChar
StartChar: asterisk
Encoding: 42 42 13
Width: 600
Flags: W
Fore
495 580 m 1,0,1
 524 562 524 562 553.5 542.5 c 128,-1,2
 583 523 583 523 612 504 c 1,3,4
 630 483 630 483 609 459 c 0,5,6
 585 433 585 433 563 450 c 2,7,-1
 458 520 l 1,8,-1
 431 394 l 2,9,10
 428 377 428 377 415 369.5 c 128,-1,11
 402 362 402 362 389 362 c 0,12,13
 375 362 375 362 367 369.5 c 128,-1,14
 359 377 359 377 362 394 c 2,15,-1
 388 524 l 1,16,-1
 259 457 l 2,17,18
 227 444 227 444 220 471 c 0,19,20
 213 496 213 496 234 511 c 2,21,-1
 363 580 l 1,22,-1
 248 657 l 2,23,24
 224 677 224 677 245 702 c 0,25,26
 269 729 269 729 293 713 c 1,27,-1
 292 713 l 1,28,-1
 411 635 l 1,29,30
 415 652 415 652 418 667 c 128,-1,31
 424 697 l 0,32,33
 428 717 428 717 431.5 737 c 128,-1,34
 435 757 435 757 440 779 c 0,35,36
 450 818 450 818 484 816 c 0,37,38
 517 814 517 814 509 779 c 2,39,-1
 482 640 l 1,40,-1
 613 706 l 2,41,42
 656 726 656 726 662 694 c 0,43,44
 668 666 668 666 632 650 c 1,45,-1
 633 651 l 1,46,-1
 495 580 l 1,0,1
EndSplineSet
EndChar
StartChar: plus
Encoding: 43 43 14
Width: 635
Flags: W
Fore
373 455 m 1,0,1
 381 493 381 493 386.5 517 c 128,-1,2
 392 541 392 541 396 555.5 c 128,-1,3
 400 570 400 570 402 578.5 c 128,-1,4
 404 587 404 587 405 594 c 1,5,6
 413 612 413 612 423 619 c 128,-1,7
 433 626 433 626 449 626 c 0,8,9
 483 626 483 626 476 597 c 0,10,11
 467 565 467 565 461 543 c 128,-1,12
 455 521 455 521 451 504.5 c 128,-1,13
 447 488 447 488 445 476 c 128,-1,14
 443 464 443 464 442 454 c 1,15,16
 456 454 456 454 465 453.5 c 128,-1,17
 474 453 474 453 482 453 c 0,18,19
 495 453 495 453 503.5 453 c 128,-1,20
 512 453 512 453 521.5 454 c 128,-1,21
 531 455 531 455 543.5 457 c 128,-1,22
 556 459 556 459 577 463 c 1,23,-1
 576 463 l 1,24,25
 590 466 590 466 598 462.5 c 128,-1,26
 606 459 606 459 609 452 c 128,-1,27
 612 445 612 445 611 435.5 c 128,-1,28
 610 426 610 426 606 417 c 0,29,30
 599 405 599 405 578.5 399 c 128,-1,31
 558 393 558 393 532.5 390.5 c 128,-1,32
 507 388 507 388 480 388.5 c 128,-1,33
 453 389 453 389 432 390 c 1,34,35
 420 342 420 342 413.5 314.5 c 128,-1,36
 407 287 407 287 403 272 c 128,-1,37
 399 257 399 257 397.5 252 c 128,-1,38
 396 247 396 247 395 244 c 0,39,40
 386 211 386 211 356 214 c 0,41,42
 326 215 326 215 334 251 c 2,43,-1
 363 388 l 1,44,-1
 209 393 l 2,45,46
 183 397 183 397 189 428 c 0,47,48
 197 460 197 460 225 460 c 2,49,-1
 373 455 l 1,0,1
EndSplineSet
EndChar
StartChar: comma
Encoding: 44 44 15
Width: 352
Flags: W
Fore
52 -51 m 1,0,1
 70 -54 70 -54 87 -54 c 0,2,3
 134 -54 134 -54 173 -30 c 0,4,5
 208 -10 208 -10 225 20 c 1,6,7
 217 16 217 16 213 16 c 128,-1,8
 209 16 209 16 200 16 c 0,9,10
 180 16 180 16 166 23 c 1,11,-1
 168 23 l 1,12,13
 154 29 154 29 145 40.5 c 128,-1,14
 136 52 136 52 133 67 c 128,-1,15
 130 82 130 82 132.5 99 c 128,-1,16
 135 116 135 116 144 133 c 0,17,18
 158 156 158 156 181.5 171 c 128,-1,19
 205 186 205 186 232 186 c 0,20,21
 241 186 241 186 250 184.5 c 128,-1,22
 259 183 259 183 267 178 c 0,23,24
 297 164 297 164 308 119 c 1,25,-1
 308 120 l 1,26,27
 311 112 311 112 310.5 102.5 c 128,-1,28
 310 93 310 93 308 81 c 0,29,30
 300 44 300 44 269 0 c 0,31,32
 250 -27 250 -27 227 -47 c 128,-1,33
 204 -67 204 -67 179.5 -80 c 128,-1,34
 155 -93 155 -93 130.5 -99 c 128,-1,35
 106 -105 106 -105 85 -105 c 0,36,37
 62 -105 62 -105 41 -98 c 0,38,39
 26 -92 26 -92 21.5 -84 c 128,-1,40
 17 -76 17 -76 20 -68.5 c 128,-1,41
 23 -61 23 -61 31.5 -56 c 128,-1,42
 40 -51 40 -51 51 -51 c 2,43,-1
 52 -51 l 1,0,1
196 115 m 1,44,45
 188 103 188 103 188.5 89.5 c 128,-1,46
 189 76 189 76 197 74 c 1,47,48
 209 69 209 69 224 75 c 128,-1,49
 239 81 239 81 248 95 c 1,50,-1
 247 93 l 1,51,52
 251 101 251 101 247.5 113 c 128,-1,53
 244 125 244 125 233 131 c 1,54,-1
 235 131 l 1,55,56
 227 133 227 133 214 129 c 128,-1,57
 201 125 201 125 196 117 c 1,58,-1
 196 115 l 1,44,45
EndSplineSet
EndChar
StartChar: hyphen
Encoding: 45 45 16
Width: 594
Flags: W
Fore
563 463 m 1,0,-1
 562 463 l 1,1,2
 576 466 576 466 583.5 461 c 128,-1,3
 591 456 591 456 594 446.5 c 128,-1,4
 597 437 597 437 595.5 426 c 128,-1,5
 594 415 594 415 590 406 c 1,6,7
 587 403 587 403 556 402 c 128,-1,8
 525 401 525 401 472.5 400 c 128,-1,9
 420 399 420 399 348.5 397.5 c 128,-1,10
 277 396 277 396 195 393 c 1,11,12
 169 397 169 397 175 428 c 0,13,14
 183 460 183 460 211 460 c 2,15,-1
 563 463 l 1,0,-1
EndSplineSet
EndChar
StartChar: period
Encoding: 46 46 17
Width: 352
Flags: W
Fore
130 96 m 1,0,1
 136 105 136 105 146.5 113.5 c 128,-1,2
 157 122 157 122 169.5 127.5 c 128,-1,3
 182 133 182 133 194 134.5 c 128,-1,4
 206 136 206 136 214 133 c 1,5,-1
 213 133 l 1,6,7
 226 129 226 129 234 119.5 c 128,-1,8
 242 110 242 110 245.5 98.5 c 128,-1,9
 249 87 249 87 247.5 75 c 128,-1,10
 246 63 246 63 241 54 c 0,11,12
 235 41 235 41 223.5 31 c 128,-1,13
 212 21 212 21 199 15 c 128,-1,14
 186 9 186 9 172 7.5 c 128,-1,15
 158 6 158 6 146 11 c 1,16,-1
 147 10 l 1,17,18
 126 15 126 15 120.5 41 c 128,-1,19
 115 67 115 67 130 95 c 1,20,-1
 130 96 l 1,0,1
EndSplineSet
EndChar
StartChar: slash
Encoding: 47 47 18
Width: 604
Flags: W
Fore
164 1 m 1,0,1
 151 -13 151 -13 138 -18.5 c 128,-1,2
 125 -24 125 -24 116 -24 c 0,3,4
 98 -24 98 -24 93 -13 c 128,-1,5
 88 -2 88 -2 102 21 c 1,6,-1
 102 20 l 1,7,-1
 620 985 l 2,8,9
 628 1000 628 1000 639 1007 c 128,-1,10
 650 1014 650 1014 660 1014 c 0,11,12
 677 1014 677 1014 685 998 c 128,-1,13
 693 982 693 982 676 958 c 1,14,-1
 677 960 l 1,15,-1
 164 1 l 1,0,1
EndSplineSet
EndChar
StartChar: zero
Encoding: 48 48 19
Width: 717
Flags: W
Fore
748 374 m 0,0,1
 734 309 734 309 700.5 244.5 c 128,-1,2
 667 180 667 180 616 129 c 128,-1,3
 565 78 565 78 497 46 c 128,-1,4
 429 14 429 14 346 14 c 0,5,6
 261 14 261 14 208.5 47.5 c 128,-1,7
 156 81 156 81 130 133.5 c 128,-1,8
 104 186 104 186 100 249.5 c 128,-1,9
 96 313 96 313 109 374 c 0,10,11
 117 412 117 412 133.5 457.5 c 128,-1,12
 150 503 150 503 174.5 548.5 c 128,-1,13
 199 594 199 594 232.5 636.5 c 128,-1,14
 266 679 266 679 308 712 c 128,-1,15
 350 745 350 745 401.5 764.5 c 128,-1,16
 453 784 453 784 514 784 c 256,17,18
 575 784 575 784 618.5 765 c 128,-1,19
 662 746 662 746 690.5 714 c 128,-1,20
 719 682 719 682 735 640.5 c 128,-1,21
 751 599 751 599 757 553.5 c 128,-1,22
 763 508 763 508 760 461.5 c 128,-1,23
 757 415 757 415 748 374 c 0,0,1
669 374 m 0,24,25
 682 437 682 437 681.5 497 c 128,-1,26
 681 557 681 557 662 603 c 128,-1,27
 643 649 643 649 603 677 c 128,-1,28
 563 705 563 705 499 705 c 0,29,30
 433 705 433 705 381 676 c 128,-1,31
 329 647 329 647 291 600 c 128,-1,32
 253 553 253 553 228 493.5 c 128,-1,33
 203 434 203 434 190 374 c 0,34,35
 178 316 178 316 179.5 264.5 c 128,-1,36
 181 213 181 213 200.5 175 c 128,-1,37
 220 137 220 137 259.5 114.5 c 128,-1,38
 299 92 299 92 361 92 c 0,39,40
 427 92 427 92 478.5 114 c 128,-1,41
 530 136 530 136 568 174 c 128,-1,42
 606 212 606 212 631 263.5 c 128,-1,43
 656 315 656 315 669 374 c 0,24,25
EndSplineSet
EndChar
StartChar: one
Encoding: 49 49 20
Width: 528
Flags: W
Fore
437 657 m 1,0,1
 420 640 420 640 403.5 624 c 128,-1,2
 387 608 387 608 370 593 c 0,3,4
 353 579 353 579 336.5 564.5 c 128,-1,5
 320 550 320 550 301 536 c 1,6,7
 286 528 286 528 271.5 531 c 128,-1,8
 257 534 257 534 250 543.5 c 128,-1,9
 243 553 243 553 246.5 567.5 c 128,-1,10
 250 582 250 582 270 598 c 1,11,-1
 269 597 l 1,12,13
 302 622 302 622 328 645.5 c 128,-1,14
 354 669 354 669 376.5 692 c 128,-1,15
 399 715 399 715 418 738 c 128,-1,16
 437 761 437 761 457 787 c 1,17,-1
 456 786 l 1,18,19
 465 799 465 799 477.5 797.5 c 128,-1,20
 490 796 490 796 502 787.5 c 128,-1,21
 514 779 514 779 523 767.5 c 128,-1,22
 532 756 532 756 533 749 c 1,23,-1
 391 45 l 2,24,25
 388 29 388 29 371.5 20.5 c 128,-1,26
 355 12 355 12 339 12 c 256,27,28
 323 12 323 12 313 19 c 128,-1,29
 303 26 303 26 307 43 c 2,30,-1
 367 308 l 1,31,-1
 437 657 l 1,0,1
EndSplineSet
EndChar
StartChar: two
Encoding: 50 50 21
Width: 653
Flags: W
Fore
452 313 m 0,0,1
 401 286 401 286 355 255.5 c 128,-1,2
 309 225 309 225 272 193.5 c 128,-1,3
 235 162 235 162 210 131.5 c 128,-1,4
 185 101 185 101 175 76 c 1,5,6
 221 78 221 78 257.5 79.5 c 128,-1,7
 294 81 294 81 328 81 c 0,8,9
 355 81 355 81 381 80.5 c 128,-1,10
 407 80 407 80 435 78.5 c 128,-1,11
 463 77 463 77 493.5 75 c 128,-1,12
 524 73 524 73 559 71 c 0,13,14
 575 68 575 68 578 57 c 128,-1,15
 581 46 581 46 575.5 33.5 c 128,-1,16
 570 21 570 21 559.5 11.5 c 128,-1,17
 549 2 549 2 539 2 c 0,18,19
 523 4 523 4 496 5.5 c 128,-1,20
 469 7 469 7 435.5 8 c 128,-1,21
 402 9 402 9 364 9.5 c 128,-1,22
 326 10 326 10 288 10 c 0,23,24
 243 10 243 10 194 9 c 128,-1,25
 145 8 145 8 91 6 c 0,26,27
 81 6 81 6 76 10.5 c 128,-1,28
 71 15 71 15 73 20 c 1,29,-1
 74 25 l 2,30,31
 99 103 99 103 185.5 193 c 128,-1,32
 272 283 272 283 419 365 c 0,33,34
 458 387 458 387 491 415.5 c 128,-1,35
 524 444 524 444 550 475.5 c 128,-1,36
 576 507 576 507 593 540 c 128,-1,37
 610 573 610 573 617 604 c 0,38,39
 630 667 630 667 598 719 c 0,40,41
 567 768 567 768 478 768 c 0,42,43
 436 768 436 768 402.5 755 c 128,-1,44
 369 742 369 742 343.5 719 c 128,-1,45
 318 696 318 696 300.5 664 c 128,-1,46
 283 632 283 632 272 594 c 0,47,48
 264 571 264 571 232 571 c 256,49,50
 200 571 200 571 208 610 c 0,51,52
 218 655 218 655 244.5 696 c 128,-1,53
 271 737 271 737 309 768 c 128,-1,54
 347 799 347 799 393.5 817.5 c 128,-1,55
 440 836 440 836 488 836 c 0,56,57
 551 836 551 836 594 817 c 128,-1,58
 637 798 637 798 661 766 c 128,-1,59
 685 734 685 734 691 691.5 c 128,-1,60
 697 649 697 649 687 602 c 0,61,62
 670 522 670 522 610.5 444 c 128,-1,63
 551 366 551 366 452 313 c 0,0,1
EndSplineSet
EndChar
StartChar: three
Encoding: 51 51 22
Width: 678
Flags: W
Fore
285 514 m 0,0,1
 262 508 262 508 261 536 c 2,2,-1
 261 538 l 2,3,4
 259 555 259 555 260.5 569.5 c 128,-1,5
 262 584 262 584 265 599 c 0,6,7
 275 646 275 646 302.5 685 c 128,-1,8
 330 724 330 724 369 752.5 c 128,-1,9
 408 781 408 781 455 796.5 c 128,-1,10
 502 812 502 812 552 812 c 0,11,12
 597 812 597 812 635.5 797 c 128,-1,13
 674 782 674 782 700.5 754.5 c 128,-1,14
 727 727 727 727 738 688.5 c 128,-1,15
 749 650 749 650 739 602 c 0,16,17
 728 549 728 549 689 494 c 0,18,19
 675 474 675 474 652.5 457 c 128,-1,20
 630 440 630 440 603 428 c 1,21,22
 633 413 633 413 650 389 c 128,-1,23
 667 365 667 365 674.5 336.5 c 128,-1,24
 682 308 682 308 681 277.5 c 128,-1,25
 680 247 680 247 674 218 c 0,26,27
 668 188 668 188 647 150 c 128,-1,28
 626 112 626 112 589 79 c 128,-1,29
 552 46 552 46 497.5 23 c 128,-1,30
 443 0 443 0 370 0 c 0,31,32
 304 0 304 0 247.5 13 c 128,-1,33
 191 26 191 26 153.5 59 c 128,-1,34
 116 92 116 92 102 148.5 c 128,-1,35
 88 205 88 205 107 293 c 0,36,37
 116 336 116 336 149 336 c 0,38,39
 183 336 183 336 176 302 c 0,40,41
 161 234 161 234 172 188.5 c 128,-1,42
 183 143 183 143 211.5 115.5 c 128,-1,43
 240 88 240 88 282.5 76.5 c 128,-1,44
 325 65 325 65 373 65 c 0,45,46
 430 65 430 65 472 79.5 c 128,-1,47
 514 94 514 94 542.5 116.5 c 128,-1,48
 571 139 571 139 587 164.5 c 128,-1,49
 603 190 603 190 608 213 c 0,50,51
 628 309 628 309 582 349 c 0,52,53
 537 391 537 391 449 391 c 0,54,55
 423 391 423 391 420 417 c 0,56,57
 420 433 420 433 426 442 c 128,-1,58
 432 451 432 451 448 454 c 0,59,60
 555 467 555 467 608 509 c 128,-1,61
 661 551 661 551 675 613 c 0,62,63
 680 636 680 636 675 659.5 c 128,-1,64
 670 683 670 683 653.5 702 c 128,-1,65
 637 721 637 721 609 733 c 128,-1,66
 581 745 581 745 540 745 c 0,67,68
 504 745 504 745 470 734.5 c 128,-1,69
 436 724 436 724 407.5 704.5 c 128,-1,70
 379 685 379 685 359 657 c 128,-1,71
 339 629 339 629 332 594 c 0,72,73
 328 577 328 577 328 551 c 1,74,75
 324 537 324 537 312.5 528 c 128,-1,76
 301 519 301 519 285 514 c 0,0,1
EndSplineSet
EndChar
StartChar: four
Encoding: 52 52 23
Width: 653
Flags: W
Fore
557 772 m 1,0,1
 547 764 547 764 529.5 747.5 c 128,-1,2
 512 731 512 731 486 705 c 256,3,4
 460 679 460 679 432.5 650 c 128,-1,5
 405 621 405 621 374 588 c 0,6,7
 344 555 344 555 313.5 521.5 c 128,-1,8
 283 488 283 488 252 453 c 0,9,10
 225 422 225 422 200 392 c 128,-1,11
 175 362 175 362 158 336 c 1,12,13
 159 337 159 337 182 334 c 0,14,15
 205 330 205 330 231.5 328 c 128,-1,16
 258 326 258 326 288 324 c 0,17,18
 351 321 351 321 413 321 c 0,19,20
 438 321 438 321 457.5 321 c 128,-1,21
 477 321 477 321 491 323 c 1,22,-1
 564 607 l 2,23,24
 570 641 570 641 604 639 c 0,25,26
 621 638 621 638 627 628 c 128,-1,27
 633 618 633 618 629 602 c 2,28,-1
 563 338 l 1,29,30
 602 343 602 343 630.5 347 c 128,-1,31
 659 351 659 351 673 353 c 0,32,33
 681 355 681 355 684 355 c 2,34,35
 696 358 696 358 705 353 c 128,-1,36
 714 348 714 348 718 339.5 c 128,-1,37
 722 331 722 331 720 320.5 c 128,-1,38
 718 310 718 310 708 300 c 1,39,-1
 710 302 l 1,40,41
 698 293 698 293 652 286 c 0,42,43
 634 283 634 283 610.5 280 c 128,-1,44
 587 277 587 277 545 269 c 1,45,46
 531 211 531 211 516 153 c 128,-1,47
 501 95 501 95 487 37 c 0,48,49
 481 6 481 6 447 6 c 0,50,51
 415 6 415 6 421 41 c 2,52,-1
 475 256 l 1,53,54
 452 255 452 255 424 254.5 c 128,-1,55
 396 254 396 254 365 254 c 0,56,57
 309 254 309 254 251.5 258 c 128,-1,58
 194 262 194 262 151 271.5 c 128,-1,59
 108 281 108 281 88 297.5 c 128,-1,60
 68 314 68 314 86 338 c 0,61,62
 114 381 114 381 158.5 438.5 c 128,-1,63
 203 496 203 496 259 559.5 c 128,-1,64
 315 623 315 623 379.5 689 c 128,-1,65
 444 755 444 755 512 817 c 0,66,67
 527 828 527 828 541.5 827.5 c 128,-1,68
 556 827 556 827 564 819 c 128,-1,69
 572 811 572 811 571.5 798.5 c 128,-1,70
 571 786 571 786 557 773 c 1,71,-1
 557 772 l 1,0,1
EndSplineSet
EndChar
StartChar: five
Encoding: 53 53 24
Width: 686
Flags: W
Fore
214 459 m 1,0,1
 241 562 241 562 258.5 626.5 c 128,-1,2
 276 691 276 691 286.5 728.5 c 128,-1,3
 297 766 297 766 302 782.5 c 128,-1,4
 307 799 307 799 309 805 c 1,5,-1
 309 809 l 1,6,7
 310 811 310 811 312 814 c 128,-1,8
 314 817 314 817 315 818 c 0,9,10
 321 823 321 823 336.5 823 c 128,-1,11
 352 823 352 823 376 821 c 0,12,13
 407 819 407 819 453 817.5 c 128,-1,14
 499 816 499 816 552 816 c 0,15,16
 628 816 628 816 717 822 c 0,17,18
 729 822 729 822 737.5 814 c 128,-1,19
 746 806 746 806 741 791 c 0,20,21
 732 763 732 763 707 757 c 0,22,23
 647 750 647 750 587 747 c 128,-1,24
 527 744 527 744 466 744 c 0,25,26
 437 744 437 744 415 744 c 128,-1,27
 393 744 393 744 365 746 c 1,28,29
 351 692 351 692 338 645 c 128,-1,30
 325 598 325 598 311 543 c 1,31,32
 344 548 344 548 376 550.5 c 128,-1,33
 408 553 408 553 437 553 c 0,34,35
 519 555 519 555 570.5 532.5 c 128,-1,36
 622 510 622 510 648.5 470.5 c 128,-1,37
 675 431 675 431 679 377.5 c 128,-1,38
 683 324 683 324 670 264 c 0,39,40
 640 134 640 134 542 66 c 0,41,42
 444 1 444 1 333 0 c 0,43,44
 288 -2 288 -2 242.5 6.5 c 128,-1,45
 197 15 197 15 162.5 39 c 128,-1,46
 128 63 128 63 111.5 105.5 c 128,-1,47
 95 148 95 148 109 216 c 0,48,49
 112 228 112 228 115.5 241 c 128,-1,50
 119 254 119 254 124 268 c 0,51,52
 132 285 132 285 143 292.5 c 128,-1,53
 154 300 154 300 167 300 c 256,54,55
 180 300 180 300 190.5 290.5 c 128,-1,56
 201 281 201 281 196 261 c 0,57,58
 191 244 191 244 188 231 c 0,59,60
 177 180 177 180 186.5 147 c 128,-1,61
 196 114 196 114 218.5 94.5 c 128,-1,62
 241 75 241 75 273 68 c 128,-1,63
 305 61 305 61 340 63 c 0,64,65
 383 65 383 65 426 78.5 c 128,-1,66
 469 92 469 92 505.5 117.5 c 128,-1,67
 542 143 542 143 568.5 180 c 128,-1,68
 595 217 595 217 606 266 c 0,69,70
 627 363 627 363 581 425 c 0,71,72
 535 488 535 488 435 488 c 0,73,74
 389 488 389 488 339 477.5 c 128,-1,75
 289 467 289 467 229 447 c 1,76,-1
 214 459 l 1,0,1
EndSplineSet
EndChar
StartChar: six
Encoding: 54 54 25
Width: 711
Flags: W
Fore
686 610 m 1,0,1
 686 609 686 609 687 609 c 1,2,-1
 686 610 l 1,0,1
687 613 m 1,3,-1
 686 610 l 1,4,5
 684 620 684 620 678.5 642 c 128,-1,6
 673 664 673 664 658 686 c 128,-1,7
 643 708 643 708 615.5 724.5 c 128,-1,8
 588 741 588 741 543 741 c 0,9,10
 470 741 470 741 411.5 707 c 128,-1,11
 353 673 353 673 309 620 c 128,-1,12
 265 567 265 567 235.5 501 c 128,-1,13
 206 435 206 435 192 371 c 1,14,15
 222 408 222 408 258 429.5 c 128,-1,16
 294 451 294 451 330.5 462 c 128,-1,17
 367 473 367 473 401.5 476 c 128,-1,18
 436 479 436 479 463 479 c 0,19,20
 535 479 535 479 579.5 454 c 128,-1,21
 624 429 624 429 647.5 392 c 128,-1,22
 671 355 671 355 676 312.5 c 128,-1,23
 681 270 681 270 674 236 c 0,24,25
 653 140 653 140 577 70 c 0,26,27
 502 1 502 1 362 0 c 0,28,29
 200 -2 200 -2 143 88 c 128,-1,30
 86 178 86 178 128 373 c 0,31,32
 147 463 147 463 186 542 c 128,-1,33
 225 621 225 621 279 680 c 128,-1,34
 333 739 333 739 399.5 773 c 128,-1,35
 466 807 466 807 541 807 c 0,36,37
 593 807 593 807 629 798 c 128,-1,38
 665 789 665 789 689.5 768 c 128,-1,39
 714 747 714 747 730 711.5 c 128,-1,40
 746 676 746 676 758 623 c 1,41,-1
 756 615 l 2,42,43
 750 587 750 587 718 587 c 0,44,45
 692 587 692 587 687 609 c 1,46,-1
 687 613 l 1,3,-1
197 256 m 0,47,48
 180 175 180 175 221 118 c 1,49,-1
 220 118 l 1,50,51
 262 61 262 61 375 65 c 0,52,53
 433 67 433 67 475 83 c 128,-1,54
 517 99 517 99 545 123 c 128,-1,55
 573 147 573 147 588.5 174.5 c 128,-1,56
 604 202 604 202 609 228 c 0,57,58
 614 253 614 253 612.5 285.5 c 128,-1,59
 611 318 611 318 595.5 347.5 c 128,-1,60
 580 377 580 377 545.5 397 c 128,-1,61
 511 417 511 417 450 417 c 0,62,63
 403 417 403 417 361 407 c 128,-1,64
 319 397 319 397 282 374 c 0,65,66
 214 334 214 334 197 256 c 0,47,48
EndSplineSet
EndChar
StartChar: seven
Encoding: 55 55 26
Width: 653
Flags: W
Fore
385 429 m 2,0,-1
 504 447 l 1,1,2
 512 468 512 468 522.5 490.5 c 128,-1,3
 533 513 533 513 542 534 c 0,4,5
 557 566 557 566 567 594.5 c 128,-1,6
 577 623 577 623 583 650 c 0,7,8
 597 716 597 716 560 734 c 0,9,10
 517 757 517 757 448 757 c 0,11,12
 417 757 417 757 379 750.5 c 128,-1,13
 341 744 341 744 309 737 c 0,14,15
 286 732 286 732 264.5 728.5 c 128,-1,16
 243 725 243 725 226 725 c 0,17,18
 202 725 202 725 194.5 735.5 c 128,-1,19
 187 746 187 746 189 756 c 0,20,21
 192 768 192 768 225 781.5 c 128,-1,22
 258 795 258 795 303 805.5 c 128,-1,23
 348 816 348 816 394.5 823 c 128,-1,24
 441 830 441 830 471 830 c 0,25,26
 515 830 515 830 553 821.5 c 128,-1,27
 591 813 591 813 617.5 793.5 c 128,-1,28
 644 774 644 774 655 741 c 128,-1,29
 666 708 666 708 656 660 c 0,30,31
 648 624 648 624 625 567 c 128,-1,32
 602 510 602 510 575 447 c 1,33,34
 585 447 585 447 599 448.5 c 128,-1,35
 613 450 613 450 627 449.5 c 128,-1,36
 641 449 641 449 652.5 446.5 c 128,-1,37
 664 444 664 444 670 437 c 0,38,39
 674 432 674 432 676 424 c 128,-1,40
 678 416 678 416 675 407.5 c 128,-1,41
 672 399 672 399 663 391.5 c 128,-1,42
 654 384 654 384 637 381 c 1,43,-1
 638 381 l 1,44,-1
 532 368 l 1,45,46
 518 341 518 341 501 307.5 c 128,-1,47
 484 274 484 274 464.5 238 c 128,-1,48
 445 202 445 202 424 166 c 128,-1,49
 403 130 403 130 383.5 99.5 c 128,-1,50
 364 69 364 69 345.5 45.5 c 128,-1,51
 327 22 327 22 313 11 c 0,52,53
 301 2 301 2 290 2.5 c 128,-1,54
 279 3 279 3 272 9 c 128,-1,55
 265 15 265 15 265 24.5 c 128,-1,56
 265 34 265 34 274 44 c 0,57,58
 290 63 290 63 307.5 85.5 c 128,-1,59
 325 108 325 108 347.5 144 c 128,-1,60
 370 180 370 180 399.5 235 c 128,-1,61
 429 290 429 290 469 374 c 1,62,63
 443 372 443 372 418 367 c 128,-1,64
 393 362 393 362 370 362 c 0,65,66
 352 360 352 360 342.5 369.5 c 128,-1,67
 333 379 333 379 336 392 c 0,68,69
 338 405 338 405 350 416 c 128,-1,70
 362 427 362 427 385 429 c 2,0,-1
EndSplineSet
EndChar
StartChar: eight
Encoding: 56 56 27
Width: 700
Flags: W
Fore
665 646 m 0,0,1
 655 601 655 601 639 569.5 c 128,-1,2
 623 538 623 538 589 504 c 1,3,4
 646 473 646 473 685 416 c 0,5,6
 729 353 729 353 708 255 c 0,7,8
 694 192 694 192 660 144 c 128,-1,9
 626 96 626 96 577.5 64 c 128,-1,10
 529 32 529 32 470 16 c 128,-1,11
 411 0 411 0 348 0 c 0,12,13
 283 0 283 0 228.5 17.5 c 128,-1,14
 174 35 174 35 138 69 c 128,-1,15
 102 103 102 103 87 152.5 c 128,-1,16
 72 202 72 202 86 266 c 0,17,18
 96 312 96 312 118 349 c 128,-1,19
 140 386 140 386 177 416 c 0,20,21
 208 442 208 442 244.5 463.5 c 128,-1,22
 281 485 281 485 318 500 c 1,23,24
 296 529 296 529 291 563 c 128,-1,25
 286 597 286 597 294 638 c 0,26,27
 304 683 304 683 328 716.5 c 128,-1,28
 352 750 352 750 384 772.5 c 128,-1,29
 416 795 416 795 452 806.5 c 128,-1,30
 488 818 488 818 521 818 c 0,31,32
 558 818 558 818 588 805.5 c 128,-1,33
 618 793 618 793 638 770.5 c 128,-1,34
 658 748 658 748 665.5 716.5 c 128,-1,35
 673 685 673 685 665 646 c 0,0,1
447 455 m 0,36,37
 392 455 392 455 342.5 440 c 128,-1,38
 293 425 293 425 253.5 400 c 128,-1,39
 214 375 214 375 188 341 c 128,-1,40
 162 307 162 307 154 270 c 0,41,42
 146 231 146 231 153.5 194 c 128,-1,43
 161 157 161 157 186.5 129 c 128,-1,44
 212 101 212 101 255.5 84 c 128,-1,45
 299 67 299 67 362 67 c 0,46,47
 427 67 427 67 476 83.5 c 128,-1,48
 525 100 525 100 559 126.5 c 128,-1,49
 593 153 593 153 613 186 c 128,-1,50
 633 219 633 219 640 253 c 0,51,52
 649 295 649 295 640 332 c 128,-1,53
 631 369 631 369 606 396 c 128,-1,54
 581 423 581 423 541 439 c 128,-1,55
 501 455 501 455 447 455 c 0,36,37
598 646 m 1,56,-1
 598 648 l 1,57,-1
 598 646 l 1,56,-1
598 648 m 2,58,59
 604 691 604 691 581.5 721 c 128,-1,60
 559 751 559 751 510 751 c 0,61,62
 484 751 484 751 459.5 742.5 c 128,-1,63
 435 734 435 734 415.5 719 c 128,-1,64
 396 704 396 704 382 683.5 c 128,-1,65
 368 663 368 663 362 638 c 0,66,67
 350 582 350 582 379.5 552.5 c 128,-1,68
 409 523 409 523 462 523 c 0,69,70
 516 523 516 523 550 556 c 128,-1,71
 584 589 584 589 598 646 c 1,72,-1
 598 648 l 2,58,59
EndSplineSet
EndChar
StartChar: nine
Encoding: 57 57 28
Width: 688
Flags: W
Fore
163 257 m 2,0,1
 158 220 158 220 165.5 185.5 c 128,-1,2
 173 151 173 151 194.5 124 c 128,-1,3
 216 97 216 97 253.5 81 c 128,-1,4
 291 65 291 65 345 65 c 0,5,6
 467 65 467 65 552 177 c 0,7,8
 629 275 629 275 672 433 c 1,9,10
 642 395 642 395 607 370.5 c 128,-1,11
 572 346 572 346 537 332 c 128,-1,12
 502 318 502 318 468 312.5 c 128,-1,13
 434 307 434 307 405 307 c 0,14,15
 256 307 256 307 209 382 c 0,16,17
 165 454 165 454 189 571 c 0,18,19
 201 628 201 628 230.5 674 c 128,-1,20
 260 720 260 720 302 752.5 c 128,-1,21
 344 785 344 785 397 802.5 c 128,-1,22
 450 820 450 820 510 820 c 0,23,24
 590 820 590 820 642 791.5 c 128,-1,25
 694 763 694 763 721.5 714 c 128,-1,26
 749 665 749 665 753 599 c 128,-1,27
 757 533 757 533 741 458 c 0,28,29
 720 362 720 362 684 278.5 c 128,-1,30
 648 195 648 195 597 133.5 c 128,-1,31
 546 72 546 72 480.5 37 c 128,-1,32
 415 2 415 2 336 2 c 0,33,34
 264 2 264 2 213.5 23 c 128,-1,35
 163 44 163 44 133.5 79 c 128,-1,36
 104 114 104 114 95 158.5 c 128,-1,37
 86 203 86 203 96 251 c 0,38,39
 102 281 102 281 132 288 c 0,40,41
 164 295 164 295 163 258 c 2,42,-1
 163 257 l 2,0,1
671 628 m 1,43,44
 664 655 664 655 651 678 c 128,-1,45
 638 701 638 701 617 717.5 c 128,-1,46
 596 734 596 734 566 743.5 c 128,-1,47
 536 753 536 753 496 753 c 0,48,49
 441 753 441 753 399 736 c 128,-1,50
 357 719 357 719 327.5 693 c 128,-1,51
 298 667 298 667 280 635 c 128,-1,52
 262 603 262 603 256 573 c 0,53,54
 249 539 249 539 251 504 c 128,-1,55
 253 469 253 469 270.5 440 c 128,-1,56
 288 411 288 411 323.5 392.5 c 128,-1,57
 359 374 359 374 419 374 c 0,58,59
 466 374 466 374 513.5 393.5 c 128,-1,60
 561 413 561 413 598 447.5 c 128,-1,61
 635 482 635 482 656 528 c 128,-1,62
 677 574 677 574 671 628 c 1,43,44
EndSplineSet
EndChar
StartChar: colon
Encoding: 58 58 29
Width: 352
Flags: W
Fore
176 442 m 0,0,1
 180 460 180 460 190.5 476 c 128,-1,2
 201 492 201 492 216 504 c 128,-1,3
 231 516 231 516 248.5 523.5 c 128,-1,4
 266 531 266 531 284 531 c 0,5,6
 317 531 317 531 337.5 509.5 c 128,-1,7
 358 488 358 488 358 459 c 0,8,9
 358 438 358 438 348 418.5 c 128,-1,10
 338 399 338 399 322.5 384 c 128,-1,11
 307 369 307 369 287 360 c 128,-1,12
 267 351 267 351 246 351 c 0,13,14
 227 351 227 351 212.5 358.5 c 128,-1,15
 198 366 198 366 189 379 c 128,-1,16
 180 392 180 392 176.5 408 c 128,-1,17
 173 424 173 424 176 442 c 0,0,1
240 453 m 0,18,19
 234 440 234 440 239.5 426.5 c 128,-1,20
 245 413 245 413 257 413 c 0,21,22
 268 413 268 413 281.5 424 c 128,-1,23
 295 435 295 435 295 446 c 0,24,25
 295 454 295 454 287.5 461.5 c 128,-1,26
 280 469 280 469 269 469 c 0,27,28
 261 469 261 469 252 464.5 c 128,-1,29
 243 460 243 460 240 453 c 0,18,19
127 140 m 0,30,31
 131 158 131 158 141.5 174 c 128,-1,32
 152 190 152 190 167 202 c 128,-1,33
 182 214 182 214 199.5 221.5 c 128,-1,34
 217 229 217 229 234 229 c 0,35,36
 266 229 266 229 286.5 208 c 128,-1,37
 307 187 307 187 307 157 c 0,38,39
 307 136 307 136 297 116.5 c 128,-1,40
 287 97 287 97 271.5 82.5 c 128,-1,41
 256 68 256 68 236 59 c 128,-1,42
 216 50 216 50 196 50 c 0,43,44
 177 50 177 50 163 57.5 c 128,-1,45
 149 65 149 65 140 77.5 c 128,-1,46
 131 90 131 90 127.5 106 c 128,-1,47
 124 122 124 122 127 140 c 0,30,31
188 142 m 0,48,49
 183 131 183 131 189 121 c 128,-1,50
 195 111 195 111 207 111 c 0,51,52
 213 111 213 111 219.5 114 c 128,-1,53
 226 117 226 117 231.5 122 c 128,-1,54
 237 127 237 127 241 133 c 128,-1,55
 245 139 245 139 245 144 c 0,56,57
 245 152 245 152 237.5 160 c 128,-1,58
 230 168 230 168 219 168 c 0,59,60
 211 168 211 168 201 159 c 128,-1,61
 191 150 191 150 188 142 c 0,48,49
EndSplineSet
EndChar
StartChar: semicolon
Encoding: 59 59 30
Width: 352
Flags: W
Fore
108 -49 m 1,0,1
 168 -35 168 -35 206.5 -2 c 128,-1,2
 245 31 245 31 253 74 c 1,3,4
 242 65 242 65 226.5 60.5 c 128,-1,5
 211 56 211 56 195 56 c 0,6,7
 166 56 166 56 146.5 75 c 128,-1,8
 127 94 127 94 127 123 c 0,9,10
 127 142 127 142 135.5 160.5 c 128,-1,11
 144 179 144 179 159 193.5 c 128,-1,12
 174 208 174 208 193.5 216.5 c 128,-1,13
 213 225 213 225 235 225 c 0,14,15
 248 225 248 225 262 220 c 128,-1,16
 276 215 276 215 287.5 204 c 128,-1,17
 299 193 299 193 306.5 176 c 128,-1,18
 314 159 314 159 314 135 c 0,19,20
 314 83 314 83 295 42 c 128,-1,21
 276 1 276 1 247 -28 c 128,-1,22
 218 -57 218 -57 183 -74 c 128,-1,23
 148 -91 148 -91 115 -96 c 1,24,25
 98 -96 98 -96 91 -90 c 128,-1,26
 84 -84 84 -84 84 -76 c 0,27,28
 84 -59 84 -59 108 -49 c 1,0,1
200 464 m 2,29,30
 204 482 204 482 214.5 498 c 128,-1,31
 225 514 225 514 240 526 c 128,-1,32
 255 538 255 538 272.5 545.5 c 128,-1,33
 290 553 290 553 308 553 c 0,34,35
 340 553 340 553 360 532 c 128,-1,36
 380 511 380 511 380 481 c 0,37,38
 380 459 380 459 370 439.5 c 128,-1,39
 360 420 360 420 344.5 405.5 c 128,-1,40
 329 391 329 391 309 382.5 c 128,-1,41
 289 374 289 374 270 374 c 0,42,43
 239 374 239 374 218.5 394 c 128,-1,44
 198 414 198 414 198 445 c 0,45,46
 198 450 198 450 198 454.5 c 128,-1,47
 198 459 198 459 200 464 c 2,29,30
187 144 m 0,48,49
 187 142 187 142 186.5 141 c 128,-1,50
 186 140 186 140 186 138 c 0,51,52
 186 127 186 127 192 119 c 128,-1,53
 198 111 198 111 207 111 c 0,54,55
 221 111 221 111 234 123 c 128,-1,56
 247 135 247 135 247 148 c 0,57,58
 247 157 247 157 239 164.5 c 128,-1,59
 231 172 231 172 220 172 c 0,60,61
 210 172 210 172 199.5 163.5 c 128,-1,62
 189 155 189 155 187 144 c 0,48,49
262 466 m 1,63,64
 262 464 262 464 261.5 463 c 128,-1,65
 261 462 261 462 261 461 c 0,66,67
 261 451 261 451 266.5 443 c 128,-1,68
 272 435 272 435 280 435 c 0,69,70
 286 435 286 435 292.5 438 c 128,-1,71
 299 441 299 441 305 446 c 128,-1,72
 311 451 311 451 315 457 c 128,-1,73
 319 463 319 463 319 468 c 0,74,75
 319 476 319 476 311 484 c 128,-1,76
 303 492 303 492 292 492 c 0,77,78
 284 492 284 492 274 483 c 128,-1,79
 264 474 264 474 262 466 c 1,63,64
EndSplineSet
EndChar
StartChar: less
Encoding: 60 60 31
Width: 786
Flags: W
Fore
723 138 m 0,0,1
 734 131 734 131 740 119 c 128,-1,2
 746 107 746 107 740 97 c 0,3,4
 730 80 730 80 700 79.5 c 128,-1,5
 670 79 670 79 634.5 86 c 128,-1,6
 599 93 599 93 565 102.5 c 128,-1,7
 531 112 531 112 513 117 c 0,8,9
 457 131 457 131 394 154 c 128,-1,10
 331 177 331 177 279 203.5 c 128,-1,11
 227 230 227 230 194 258 c 128,-1,12
 161 286 161 286 165 312 c 1,13,14
 171 331 171 331 197.5 351 c 128,-1,15
 224 371 224 371 264 390 c 128,-1,16
 304 409 304 409 353.5 427.5 c 128,-1,17
 403 446 403 446 454 462.5 c 128,-1,18
 505 479 505 479 554.5 493 c 128,-1,19
 604 507 604 507 643.5 517 c 128,-1,20
 683 527 683 527 709.5 533.5 c 128,-1,21
 736 540 736 540 741 541 c 1,22,23
 768 541 768 541 778 532.5 c 128,-1,24
 788 524 788 524 780 509 c 0,25,26
 769 486 769 486 734 476 c 0,27,28
 694 465 694 465 642 451 c 128,-1,29
 590 437 590 437 535.5 421 c 128,-1,30
 481 405 481 405 428 389 c 128,-1,31
 375 373 375 373 333.5 358.5 c 128,-1,32
 292 344 292 344 265.5 331.5 c 128,-1,33
 239 319 239 319 238 312 c 0,34,35
 236 305 236 305 253.5 294 c 128,-1,36
 271 283 271 283 300.5 270 c 128,-1,37
 330 257 330 257 367.5 243.5 c 128,-1,38
 405 230 405 230 444 217 c 0,39,40
 476 207 476 207 504.5 199.5 c 128,-1,41
 533 192 533 192 562 184 c 0,42,43
 584 178 584 178 610 171 c 128,-1,44
 636 164 636 164 659.5 157.5 c 128,-1,45
 683 151 683 151 700.5 146 c 128,-1,46
 718 141 718 141 723 138 c 0,0,1
EndSplineSet
EndChar
StartChar: equal
Encoding: 61 61 32
Width: 635
Flags: W
Fore
175 448 m 1,0,1
 158 451 158 451 151 462 c 128,-1,2
 144 473 144 473 147 487 c 256,3,4
 150 501 150 501 165.5 512 c 128,-1,5
 181 523 181 523 206 521 c 2,6,-1
 641 525 l 2,7,8
 658 525 658 525 665.5 513 c 128,-1,9
 673 501 673 501 670 487 c 256,10,11
 667 473 667 473 655.5 462.5 c 128,-1,12
 644 452 644 452 622 452 c 2,13,-1
 175 448 l 1,0,1
143 301 m 1,14,15
 126 304 126 304 119.5 315.5 c 128,-1,16
 113 327 113 327 116 340 c 0,17,18
 119 354 119 354 134 365 c 128,-1,19
 149 376 149 376 175 374 c 2,20,-1
 615 387 l 2,21,22
 633 387 633 387 640 375 c 128,-1,23
 647 363 647 363 644 349 c 256,24,25
 641 335 641 335 629.5 324.5 c 128,-1,26
 618 314 618 314 596 314 c 2,27,-1
 143 301 l 1,14,15
EndSplineSet
EndChar
StartChar: greater
Encoding: 62 62 33
Width: 786
Flags: W
Fore
164 144 m 2,0,1
 174 149 174 149 200 156 c 128,-1,2
 226 163 226 163 263 173 c 0,3,4
 299 182 299 182 343.5 194 c 128,-1,5
 388 206 388 206 434 219 c 128,-1,6
 480 232 480 232 523.5 245 c 128,-1,7
 567 258 567 258 602 270.5 c 128,-1,8
 637 283 637 283 659 294 c 128,-1,9
 681 305 681 305 685 313 c 1,10,11
 684 320 684 320 666.5 330 c 128,-1,12
 649 340 649 340 621 352 c 128,-1,13
 593 364 593 364 557 377.5 c 128,-1,14
 521 391 521 391 482 404 c 0,15,16
 452 415 452 415 422 425.5 c 128,-1,17
 392 436 392 436 363.5 445 c 128,-1,18
 335 454 335 454 311 461 c 128,-1,19
 287 468 287 468 269 474 c 1,20,-1
 270 473 l 1,21,22
 256 477 256 477 248 480 c 128,-1,23
 240 483 240 483 236 485 c 0,24,25
 223 490 223 490 214 498 c 128,-1,26
 205 506 205 506 203 517 c 0,27,28
 202 531 202 531 215.5 540 c 128,-1,29
 229 549 229 549 255 549 c 1,30,-1
 279 542 l 1,31,-1
 278 543 l 1,32,33
 294 539 294 539 320.5 532 c 128,-1,34
 347 525 347 525 379 515 c 128,-1,35
 411 505 411 505 448 493 c 128,-1,36
 485 481 485 481 522 468 c 0,37,38
 570 451 570 451 614 432 c 128,-1,39
 658 413 658 413 691.5 393 c 128,-1,40
 725 373 725 373 743.5 352.5 c 128,-1,41
 762 332 762 332 758 312 c 0,42,43
 752 287 752 287 710 261 c 128,-1,44
 668 235 668 235 607 210 c 128,-1,45
 546 185 546 185 475 162.5 c 128,-1,46
 404 140 404 140 341 122 c 0,47,48
 303 111 303 111 267 100.5 c 128,-1,49
 231 90 231 90 205 81 c 0,50,51
 178 71 178 71 159 71 c 0,52,53
 139 71 139 71 131.5 79.5 c 128,-1,54
 124 88 124 88 127 102 c 0,55,56
 130 114 130 114 139.5 125.5 c 128,-1,57
 149 137 149 137 162 143 c 2,58,-1
 164 144 l 2,0,1
EndSplineSet
EndChar
StartChar: question
Encoding: 63 63 34
Width: 618
Flags: W
Fore
257 89 m 0,0,1
 262 112 262 112 283.5 129.5 c 128,-1,2
 305 147 305 147 330 147 c 0,3,4
 350 147 350 147 363.5 133.5 c 128,-1,5
 377 120 377 120 377 100 c 0,6,7
 377 85 377 85 370.5 72 c 128,-1,8
 364 59 364 59 353.5 49.5 c 128,-1,9
 343 40 343 40 330 34 c 128,-1,10
 317 28 317 28 304 28 c 0,11,12
 282 28 282 28 269 41.5 c 128,-1,13
 256 55 256 55 256 76 c 0,14,15
 256 84 256 84 257 89 c 0,0,1
312 490 m 1,16,17
 288 493 288 493 267 503 c 128,-1,18
 246 513 246 513 230 529 c 128,-1,19
 214 545 214 545 205 566 c 128,-1,20
 196 587 196 587 196 611 c 0,21,22
 196 668 196 668 219.5 714 c 128,-1,23
 243 760 243 760 283 792.5 c 128,-1,24
 323 825 323 825 375.5 842.5 c 128,-1,25
 428 860 428 860 485 860 c 0,26,27
 536 860 536 860 572.5 845 c 128,-1,28
 609 830 609 830 632.5 804.5 c 128,-1,29
 656 779 656 779 667 746 c 128,-1,30
 678 713 678 713 678 677 c 0,31,32
 678 616 678 616 654.5 571 c 128,-1,33
 631 526 631 526 595.5 488.5 c 128,-1,34
 560 451 560 451 517.5 415.5 c 128,-1,35
 475 380 475 380 437 339 c 1,36,-1
 438 339 l 1,37,38
 399 300 399 300 387 240 c 0,39,40
 383 224 383 224 368 215 c 128,-1,41
 353 206 353 206 340 203 c 1,42,43
 328 208 328 208 321.5 215.5 c 128,-1,44
 315 223 315 223 315 238 c 0,45,46
 315 266 315 266 330 297 c 128,-1,47
 345 328 345 328 367.5 357.5 c 128,-1,48
 390 387 390 387 417 413.5 c 128,-1,49
 444 440 444 440 469 460 c 2,50,-1
 484 472 l 2,51,52
 506 490 506 490 527.5 509.5 c 128,-1,53
 549 529 549 529 565.5 551.5 c 128,-1,54
 582 574 582 574 592 601 c 128,-1,55
 602 628 602 628 602 661 c 0,56,57
 602 714 602 714 571 749.5 c 128,-1,58
 540 785 540 785 471 785 c 0,59,60
 426 785 426 785 389.5 773.5 c 128,-1,61
 353 762 353 762 326.5 741.5 c 128,-1,62
 300 721 300 721 285.5 692.5 c 128,-1,63
 271 664 271 664 271 631 c 0,64,65
 271 609 271 609 284.5 596 c 128,-1,66
 298 583 298 583 314 574 c 128,-1,67
 330 565 330 565 343.5 557.5 c 128,-1,68
 357 550 357 550 357 538 c 0,69,70
 357 530 357 530 352 520 c 1,71,-1
 353 521 l 1,72,73
 342 496 342 496 312 490 c 1,16,17
EndSplineSet
EndChar
StartChar: at
Encoding: 64 64 35
Width: 1051
Flags: W
Fore
735 476 m 2,0,1
 744 531 744 531 713 562 c 0,2,3
 681 593 681 593 642 597 c 0,4,5
 600 598 600 598 566 579.5 c 128,-1,6
 532 561 532 561 507 535 c 128,-1,7
 482 509 482 509 466.5 481 c 128,-1,8
 451 453 451 453 445 435 c 0,9,10
 437 408 437 408 434.5 376 c 128,-1,11
 432 344 432 344 440.5 315.5 c 128,-1,12
 449 287 449 287 471.5 267 c 128,-1,13
 494 247 494 247 538 243 c 256,14,15
 582 239 582 239 621.5 255 c 128,-1,16
 661 271 661 271 683 307 c 1,17,-1
 683 306 l 1,18,-1
 700 344 l 2,19,20
 705 355 705 355 709 370.5 c 128,-1,21
 713 386 713 386 719 409 c 1,22,23
 721 413 721 413 721 414 c 2,24,-1
 735 476 l 2,0,1
952 470 m 0,25,26
 966 534 966 534 953 588 c 128,-1,27
 940 642 940 642 905 681.5 c 128,-1,28
 870 721 870 721 814 743 c 128,-1,29
 758 765 758 765 685 765 c 0,30,31
 610 765 610 765 539.5 738 c 128,-1,32
 469 711 469 711 411 663.5 c 128,-1,33
 353 616 353 616 312.5 552 c 128,-1,34
 272 488 272 488 256 414 c 0,35,36
 236 315 236 315 266 237 c 128,-1,37
 296 159 296 159 368 113 c 0,38,39
 435 67 435 67 560 67 c 0,40,41
 576 67 576 67 598.5 69 c 128,-1,42
 621 71 621 71 643.5 74.5 c 128,-1,43
 666 78 666 78 687 83 c 128,-1,44
 708 88 708 88 722 93 c 1,45,46
 733 88 733 88 739.5 80.5 c 128,-1,47
 746 73 746 73 745.5 63.5 c 128,-1,48
 745 54 745 54 736.5 44.5 c 128,-1,49
 728 35 728 35 709 27 c 0,50,51
 671 14 671 14 629 8 c 128,-1,52
 587 2 587 2 546 2 c 0,53,54
 447 2 447 2 371 32.5 c 128,-1,55
 295 63 295 63 247 118 c 128,-1,56
 199 173 199 173 182 249 c 128,-1,57
 165 325 165 325 185 416 c 0,58,59
 203 503 203 503 252.5 579 c 128,-1,60
 302 655 302 655 371.5 711.5 c 128,-1,61
 441 768 441 768 526.5 800 c 128,-1,62
 612 832 612 832 704 832 c 0,63,64
 787 832 787 832 852.5 804.5 c 128,-1,65
 918 777 918 777 960.5 728 c 128,-1,66
 1003 679 1003 679 1019 613 c 128,-1,67
 1035 547 1035 547 1019 470 c 0,68,69
 1008 422 1008 422 986.5 369 c 128,-1,70
 965 316 965 316 933.5 272 c 128,-1,71
 902 228 902 228 862 199.5 c 128,-1,72
 822 171 822 171 775 171 c 0,73,74
 765 171 765 171 756 171.5 c 128,-1,75
 747 172 747 172 737 176 c 1,76,77
 714 174 714 174 702 188.5 c 128,-1,78
 690 203 690 203 683 223 c 1,79,80
 651 199 651 199 607.5 188.5 c 128,-1,81
 564 178 564 178 523 181 c 0,82,83
 480 184 480 184 451 198.5 c 128,-1,84
 422 213 422 213 404.5 234 c 128,-1,85
 387 255 387 255 379.5 281 c 128,-1,86
 372 307 372 307 371 335 c 128,-1,87
 370 363 370 363 374 390 c 128,-1,88
 378 417 378 417 384 441 c 0,89,90
 392 469 392 469 413 507 c 128,-1,91
 434 545 434 545 468 578.5 c 128,-1,92
 502 612 502 612 549 634.5 c 128,-1,93
 596 657 596 657 657 654 c 0,94,95
 699 651 699 651 727.5 635.5 c 128,-1,96
 756 620 756 620 777 589 c 1,97,-1
 784 610 l 1,98,99
 802 642 802 642 832 636 c 0,100,101
 846 633 846 633 852.5 624.5 c 128,-1,102
 859 616 859 616 857 607 c 1,103,104
 851 596 851 596 843 578 c 128,-1,105
 835 560 835 560 826 534 c 0,106,107
 818 510 818 510 810 485 c 128,-1,108
 802 460 802 460 794 434 c 0,109,110
 783 403 783 403 773.5 370.5 c 128,-1,111
 764 338 764 338 754 303 c 0,112,113
 749 286 749 286 748.5 274 c 128,-1,114
 748 262 748 262 750 254.5 c 128,-1,115
 752 247 752 247 757 242.5 c 128,-1,116
 762 238 762 238 767 237 c 0,117,118
 803 232 803 232 834 257 c 128,-1,119
 865 282 865 282 889 320 c 128,-1,120
 913 358 913 358 929.5 399.5 c 128,-1,121
 946 441 946 441 952 470 c 0,25,26
EndSplineSet
EndChar
StartChar: A
Encoding: 65 65 36
Width: 768
Flags: W
Fore
712 293 m 1,0,1
 724 290 724 290 728 280.5 c 128,-1,2
 732 271 732 271 729.5 260.5 c 128,-1,3
 727 250 727 250 718.5 242 c 128,-1,4
 710 234 710 234 695 234 c 1,5,-1
 707 43 l 1,6,7
 697 12 697 12 667 11 c 0,8,9
 641 9 641 9 636 30 c 1,10,-1
 627 234 l 1,11,-1
 261 234 l 1,12,-1
 156 32 l 1,13,14
 145 18 145 18 132 12.5 c 128,-1,15
 119 7 119 7 108 8.5 c 128,-1,16
 97 10 97 10 91.5 17.5 c 128,-1,17
 86 25 86 25 91 39 c 2,18,-1
 220 288 l 1,19,-1
 356 535 l 2,20,21
 393 604 393 604 425.5 661.5 c 128,-1,22
 458 719 458 719 485.5 761 c 128,-1,23
 513 803 513 803 536.5 826 c 128,-1,24
 560 849 560 849 579 849 c 0,25,26
 599 849 599 849 613.5 825 c 128,-1,27
 628 801 628 801 636 758 c 0,28,29
 643 716 643 716 650 659.5 c 128,-1,30
 657 603 657 603 665 531 c 2,31,-1
 675 449 l 2,32,33
 679 411 679 411 683 373.5 c 128,-1,34
 687 336 687 336 693 293 c 1,35,-1
 712 293 l 1,0,1
614 297 m 1,36,-1
 615 302 l 2,37,38
 616 308 616 308 615 311.5 c 128,-1,39
 614 315 614 315 614 318 c 0,40,41
 609 350 609 350 604 395 c 128,-1,42
 599 440 599 440 594 486 c 0,43,44
 588 535 588 535 582 585 c 128,-1,45
 576 635 576 635 571 676 c 128,-1,46
 566 717 566 717 563.5 743.5 c 128,-1,47
 561 770 561 770 561 773 c 1,48,49
 559 771 559 771 546 747 c 128,-1,50
 533 723 533 723 512.5 686.5 c 128,-1,51
 492 650 492 650 466.5 604 c 128,-1,52
 441 558 441 558 415 512 c 2,53,-1
 360 413 l 2,54,55
 341 377 341 377 325.5 348 c 128,-1,56
 310 319 310 319 299 302 c 1,57,-1
 614 297 l 1,36,-1
EndSplineSet
EndChar
StartChar: B
Encoding: 66 66 37
Width: 688
Flags: W
Fore
62 30 m 1,0,1
 31 37 31 37 39 66 c 0,2,3
 46 92 46 92 77 100 c 1,4,-1
 102 100 l 1,5,6
 132 201 132 201 159.5 308 c 128,-1,7
 187 415 187 415 208 516 c 0,8,9
 221 574 221 574 230.5 622.5 c 128,-1,10
 240 671 240 671 249 725 c 1,11,-1
 247 725 l 2,12,13
 216 724 216 724 208.5 733.5 c 128,-1,14
 201 743 201 743 207.5 756 c 128,-1,15
 214 769 214 769 231 781.5 c 128,-1,16
 248 794 248 794 266 799 c 0,17,18
 288 806 288 806 316 813.5 c 128,-1,19
 344 821 344 821 374 827.5 c 128,-1,20
 404 834 404 834 434.5 838 c 128,-1,21
 465 842 465 842 492 842 c 0,22,23
 553 842 553 842 606 828.5 c 128,-1,24
 659 815 659 815 696 787 c 128,-1,25
 733 759 733 759 749 715 c 128,-1,26
 765 671 765 671 752 610 c 0,27,28
 746 582 746 582 728.5 554 c 128,-1,29
 711 526 711 526 686 501 c 128,-1,30
 661 476 661 476 630 455 c 128,-1,31
 599 434 599 434 567 421 c 1,32,33
 590 410 590 410 608.5 393.5 c 128,-1,34
 627 377 627 377 641 356 c 0,35,36
 678 295 678 295 657 221 c 0,37,38
 634 134 634 134 571 89 c 0,39,40
 536 57 536 57 482 44.5 c 128,-1,41
 428 32 428 32 368.5 29.5 c 128,-1,42
 309 27 309 27 250.5 29 c 128,-1,43
 192 31 192 31 149 30 c 1,44,45
 141 21 141 21 131.5 14.5 c 128,-1,46
 122 8 122 8 111 8 c 0,47,48
 86 8 86 8 86 30 c 1,49,-1
 62 30 l 1,0,1
465 783 m 1,50,51
 425 783 425 783 390 776.5 c 128,-1,52
 355 770 355 770 326 759 c 1,53,54
 303 637 303 637 278 516 c 0,55,56
 255 410 255 410 228.5 304.5 c 128,-1,57
 202 199 202 199 167 90 c 1,58,59
 205 90 205 90 257 89 c 128,-1,60
 309 88 309 88 361.5 91.5 c 128,-1,61
 414 95 414 95 460 104 c 128,-1,62
 506 113 506 113 531 132 c 0,63,64
 552 148 552 148 570 169 c 128,-1,65
 588 190 588 190 595 220 c 0,66,67
 616 308 616 308 552 349 c 128,-1,68
 488 390 488 390 339 392 c 0,69,70
 299 392 299 392 307 425 c 0,71,72
 310 437 310 437 313.5 443.5 c 128,-1,73
 317 450 317 450 323 453 c 128,-1,74
 329 456 329 456 338.5 456 c 128,-1,75
 348 456 348 456 362 456 c 0,76,77
 407 457 407 457 460 462.5 c 128,-1,78
 513 468 513 468 561 484 c 128,-1,79
 609 500 609 500 644.5 530 c 128,-1,80
 680 560 680 560 691 610 c 0,81,82
 701 655 701 655 684.5 688 c 128,-1,83
 668 721 668 721 635 742 c 128,-1,84
 602 763 602 763 557.5 773 c 128,-1,85
 513 783 513 783 465 783 c 1,86,-1
 465 783 l 1,50,51
EndSplineSet
EndChar
StartChar: C
Encoding: 67 67 38
Width: 809
Flags: W
Fore
879 843 m 2,0,-1
 884 843 l 2,1,2
 907 843 907 843 907 825 c 0,3,4
 907 822 907 822 904.5 808 c 128,-1,5
 902 794 902 794 894 753 c 0,6,7
 888 726 888 726 883.5 703 c 128,-1,8
 879 680 879 680 873 662.5 c 128,-1,9
 867 645 867 645 857.5 635.5 c 128,-1,10
 848 626 848 626 833 626 c 0,11,12
 825 626 825 626 817 629.5 c 128,-1,13
 809 633 809 633 804 640 c 0,14,15
 781 676 781 676 760.5 702.5 c 128,-1,16
 740 729 740 729 717.5 746.5 c 128,-1,17
 695 764 695 764 668.5 772.5 c 128,-1,18
 642 781 642 781 609 781 c 0,19,20
 545 781 545 781 480 753.5 c 128,-1,21
 415 726 415 726 358.5 675.5 c 128,-1,22
 302 625 302 625 259.5 553 c 128,-1,23
 217 481 217 481 198 391 c 0,24,25
 188 344 188 344 188 302 c 0,26,27
 188 237 188 237 211 192 c 128,-1,28
 234 147 234 147 271 119 c 128,-1,29
 308 91 308 91 354.5 78.5 c 128,-1,30
 401 66 401 66 448 66 c 0,31,32
 502 66 502 66 550 79 c 128,-1,33
 598 92 598 92 639 119.5 c 128,-1,34
 680 147 680 147 712.5 189.5 c 128,-1,35
 745 232 745 232 768 291 c 0,36,37
 776 308 776 308 786.5 315 c 128,-1,38
 797 322 797 322 813 322 c 0,39,40
 839 322 839 322 839 299 c 0,41,42
 839 292 839 292 836 282 c 0,43,44
 809 205 809 205 767 151 c 128,-1,45
 725 97 725 97 672.5 63 c 128,-1,46
 620 29 620 29 558.5 13.5 c 128,-1,47
 497 -2 497 -2 433 -2 c 0,48,49
 378 -2 378 -2 322 13 c 128,-1,50
 266 28 266 28 221 62 c 128,-1,51
 176 96 176 96 147.5 150.5 c 128,-1,52
 119 205 119 205 119 285 c 0,53,54
 119 332 119 332 131 389 c 0,55,56
 154 497 154 497 205.5 582.5 c 128,-1,57
 257 668 257 668 325.5 727 c 128,-1,58
 394 786 394 786 473.5 817.5 c 128,-1,59
 553 849 553 849 631 849 c 0,60,61
 693 849 693 849 740.5 819 c 128,-1,62
 788 789 788 789 827 747 c 1,63,64
 830 759 830 759 832 775 c 128,-1,65
 834 791 834 791 839.5 805.5 c 128,-1,66
 845 820 845 820 854 830.5 c 128,-1,67
 863 841 863 841 879 843 c 2,0,-1
EndSplineSet
EndChar
StartChar: D
Encoding: 68 68 39
Width: 791
Flags: W
Fore
311 762 m 1,0,1
 282 762 282 762 271 772 c 128,-1,2
 260 782 260 782 260 793 c 0,3,4
 260 800 260 800 265.5 807 c 128,-1,5
 271 814 271 814 277 819.5 c 128,-1,6
 283 825 283 825 288.5 829 c 128,-1,7
 293 832 293 832 294 833 c 1,8,9
 296 833 296 833 302.5 832.5 c 128,-1,10
 309 832 309 832 326 832 c 1,11,12
 338 849 338 849 361 849 c 0,13,14
 381 849 381 849 388 832 c 1,15,16
 493 832 493 832 582 805.5 c 128,-1,17
 671 779 671 779 732 728.5 c 128,-1,18
 793 678 793 678 820 603 c 128,-1,19
 847 528 847 528 829 431 c 0,20,21
 806 330 806 330 749.5 251 c 128,-1,22
 693 172 693 172 611.5 117.5 c 128,-1,23
 530 63 530 63 428.5 34.5 c 128,-1,24
 327 6 327 6 214 6 c 0,25,26
 197 6 197 6 177 6 c 128,-1,27
 157 6 157 6 140.5 8.5 c 128,-1,28
 124 11 124 11 113 17 c 128,-1,29
 102 23 102 23 102 36 c 0,30,31
 102 77 102 77 138 80 c 1,32,-1
 187 73 l 1,33,-1
 311 762 l 1,0,1
252 74 m 1,34,35
 313 75 313 75 374 89 c 128,-1,36
 435 103 435 103 491.5 128 c 128,-1,37
 548 153 548 153 596.5 189.5 c 128,-1,38
 645 226 645 226 681 271.5 c 128,-1,39
 717 317 717 317 737.5 372.5 c 128,-1,40
 758 428 758 428 758 491 c 0,41,42
 758 566 758 566 726.5 617 c 128,-1,43
 695 668 695 668 642 700 c 128,-1,44
 589 732 589 732 520.5 747 c 128,-1,45
 452 762 452 762 378 764 c 1,46,-1
 252 74 l 1,34,35
EndSplineSet
EndChar
StartChar: E
Encoding: 69 69 40
Width: 629
Flags: W
Fore
101 85 m 1,0,1
 126 157 126 157 147.5 237 c 128,-1,2
 169 317 169 317 190 398 c 2,3,-1
 192 407 l 1,4,-1
 176 409 l 1,5,6
 166 415 166 415 163 425.5 c 128,-1,7
 160 436 160 436 163.5 446 c 128,-1,8
 167 456 167 456 176 463.5 c 128,-1,9
 185 471 185 471 199 471 c 2,10,-1
 207 471 l 1,11,12
 224 543 224 543 241 617 c 128,-1,13
 258 691 258 691 268 766 c 1,14,15
 245 767 245 767 245 786 c 0,16,17
 245 804 245 804 257.5 813 c 128,-1,18
 270 822 270 822 292 824 c 0,19,20
 334 826 334 826 386 828 c 128,-1,21
 438 830 438 830 489 830 c 0,22,23
 549 830 549 830 599 829 c 128,-1,24
 649 828 649 828 685 825 c 128,-1,25
 721 822 721 822 741 815.5 c 128,-1,26
 761 809 761 809 761 799 c 0,27,28
 761 783 761 783 748 770 c 128,-1,29
 735 757 735 757 718 756 c 0,30,31
 704 757 704 757 678.5 758.5 c 128,-1,32
 653 760 653 760 620.5 761.5 c 128,-1,33
 588 763 588 763 550 764 c 128,-1,34
 512 765 512 765 472 765 c 0,35,36
 433 765 433 765 401.5 764.5 c 128,-1,37
 370 764 370 764 335 761 c 1,38,39
 317 678 317 678 307 628.5 c 128,-1,40
 297 579 297 579 291 549.5 c 128,-1,41
 285 520 285 520 281.5 504 c 128,-1,42
 278 488 278 488 274 473 c 1,43,44
 304 472 304 472 342 472 c 128,-1,45
 380 472 380 472 420.5 472 c 128,-1,46
 461 472 461 472 500 471 c 128,-1,47
 539 470 539 470 569 467 c 1,48,49
 585 463 585 463 585 436 c 0,50,51
 585 422 585 422 576.5 413.5 c 128,-1,52
 568 405 568 405 555 405 c 0,53,54
 462 406 462 406 407.5 406.5 c 128,-1,55
 353 407 353 407 323 407 c 128,-1,56
 293 407 293 407 281 407 c 128,-1,57
 269 407 269 407 261 406 c 1,58,59
 253 372 253 372 241 330.5 c 128,-1,60
 229 289 229 289 216.5 247 c 128,-1,61
 204 205 204 205 193 165.5 c 128,-1,62
 182 126 182 126 176 95 c 1,63,64
 249 87 249 87 303 82.5 c 128,-1,65
 357 78 357 78 400.5 77 c 128,-1,66
 444 76 444 76 481.5 78.5 c 128,-1,67
 519 81 519 81 560 87 c 1,68,69
 577 87 577 87 587 78.5 c 128,-1,70
 597 70 597 70 597 60 c 0,71,72
 597 47 597 47 584 38.5 c 128,-1,73
 571 30 571 30 548.5 25 c 128,-1,74
 526 20 526 20 496.5 18 c 128,-1,75
 467 16 467 16 434 16 c 0,76,77
 394 16 394 16 349.5 18 c 128,-1,78
 305 20 305 20 263 22 c 128,-1,79
 221 24 221 24 183.5 26 c 128,-1,80
 146 28 146 28 121 28 c 0,81,82
 112 28 112 28 100.5 26.5 c 128,-1,83
 89 25 89 25 78.5 26 c 128,-1,84
 68 27 68 27 60.5 31 c 128,-1,85
 53 35 53 35 53 47 c 0,86,87
 53 64 53 64 56 71.5 c 128,-1,88
 59 79 59 79 65 81.5 c 128,-1,89
 71 84 71 84 80 83.5 c 128,-1,90
 89 83 89 83 101 85 c 1,0,1
EndSplineSet
EndChar
StartChar: F
Encoding: 70 70 41
Width: 608
Flags: W
Fore
141 428 m 1,0,-1
 210 441 l 1,1,-1
 264 760 l 1,2,3
 253 759 253 759 242 758.5 c 128,-1,4
 231 758 231 758 222 758 c 0,5,6
 193 758 193 758 193 782 c 0,7,8
 193 801 193 801 204 811.5 c 128,-1,9
 215 822 215 822 235 822 c 2,10,-1
 273 824 l 1,11,-1
 274 851 l 1,12,13
 278 869 278 869 289.5 877.5 c 128,-1,14
 301 886 301 886 313 886 c 0,15,16
 327 886 327 886 336 875.5 c 128,-1,17
 345 865 345 865 345 847 c 2,18,-1
 345 830 l 1,19,20
 465 832 465 832 542.5 830.5 c 128,-1,21
 620 829 620 829 665 824.5 c 128,-1,22
 710 820 710 820 727.5 811.5 c 128,-1,23
 745 803 745 803 745 791 c 256,24,25
 745 779 745 779 735 767.5 c 128,-1,26
 725 756 725 756 708 749 c 1,27,28
 664 758 664 758 613 762 c 128,-1,29
 562 766 562 766 482 766 c 0,30,31
 449 766 449 766 416 765.5 c 128,-1,32
 383 765 383 765 335 764 c 1,33,34
 326 692 326 692 312.5 614 c 128,-1,35
 299 536 299 536 282 452 c 1,36,37
 294 452 294 452 312 453 c 128,-1,38
 330 454 330 454 352 455.5 c 128,-1,39
 374 457 374 457 399 458 c 128,-1,40
 424 459 424 459 448 459 c 0,41,42
 477 459 477 459 503.5 457 c 128,-1,43
 530 455 530 455 550.5 450.5 c 128,-1,44
 571 446 571 446 583 438.5 c 128,-1,45
 595 431 595 431 595 419 c 0,46,47
 595 400 595 400 583 391 c 128,-1,48
 571 382 571 382 555 382 c 0,49,50
 513 386 513 386 471 388.5 c 128,-1,51
 429 391 429 391 384 391 c 0,52,53
 331 391 331 391 267 385 c 1,54,-1
 263 364 l 2,55,56
 248 295 248 295 234 230.5 c 128,-1,57
 220 166 220 166 205.5 116.5 c 128,-1,58
 191 67 191 67 176 37.5 c 128,-1,59
 161 8 161 8 146 8 c 0,60,61
 132 8 132 8 120.5 13.5 c 128,-1,62
 109 19 109 19 109 29 c 0,63,64
 109 30 109 30 109.5 31 c 128,-1,65
 110 32 110 32 110 33 c 0,66,67
 127 86 127 86 139 131 c 128,-1,68
 151 176 151 176 161 216.5 c 128,-1,69
 171 257 171 257 179.5 296.5 c 128,-1,70
 188 336 188 336 197 378 c 1,71,-1
 195 378 l 1,72,73
 188 375 188 375 174 370 c 128,-1,74
 160 365 160 365 146.5 362.5 c 128,-1,75
 133 360 133 360 122.5 363.5 c 128,-1,76
 112 367 112 367 112 382 c 0,77,78
 112 401 112 401 120.5 412 c 128,-1,79
 129 423 129 423 141 428 c 1,0,-1
EndSplineSet
EndChar
StartChar: G
Encoding: 71 71 42
Width: 858
Flags: W
Fore
850 412 m 0,0,1
 867 410 867 410 871.5 401 c 128,-1,2
 876 392 876 392 871 378 c 256,3,4
 866 364 866 364 855 358 c 128,-1,5
 844 352 844 352 818 352 c 1,6,7
 806 292 806 292 778.5 230 c 128,-1,8
 751 168 751 168 705 117.5 c 128,-1,9
 659 67 659 67 593 35.5 c 128,-1,10
 527 4 527 4 438 4 c 0,11,12
 346 4 346 4 281 38 c 128,-1,13
 216 72 216 72 178 129 c 128,-1,14
 140 186 140 186 130 260.5 c 128,-1,15
 120 335 120 335 137 415 c 0,16,17
 154 494 154 494 196 566.5 c 128,-1,18
 238 639 238 639 298 694.5 c 128,-1,19
 358 750 358 750 433 784 c 128,-1,20
 508 818 508 818 590 820 c 0,21,22
 632 821 632 821 667.5 816.5 c 128,-1,23
 703 812 703 812 734 800 c 128,-1,24
 765 788 765 788 793 767 c 128,-1,25
 821 746 821 746 848 712 c 1,26,27
 851 723 851 723 851.5 735.5 c 128,-1,28
 852 748 852 748 854.5 758.5 c 128,-1,29
 857 769 857 769 864 775.5 c 128,-1,30
 871 782 871 782 887 782 c 0,31,32
 915 782 915 782 912 759 c 0,33,34
 911 736 911 736 908 715 c 128,-1,35
 905 694 905 694 898.5 677.5 c 128,-1,36
 892 661 892 661 880 651 c 128,-1,37
 868 641 868 641 850 641 c 1,38,39
 819 649 819 649 799.5 667.5 c 128,-1,40
 780 686 780 686 755.5 704.5 c 128,-1,41
 731 723 731 723 691.5 737.5 c 128,-1,42
 652 752 652 752 582 752 c 0,43,44
 522 752 522 752 462.5 726.5 c 128,-1,45
 403 701 403 701 352.5 656 c 128,-1,46
 302 611 302 611 264.5 549 c 128,-1,47
 227 487 227 487 212 415 c 0,48,49
 196 342 196 342 203.5 279 c 128,-1,50
 211 216 211 216 241.5 170 c 128,-1,51
 272 124 272 124 325 98 c 128,-1,52
 378 72 378 72 453 72 c 0,53,54
 521 72 521 72 570.5 93 c 128,-1,55
 620 114 620 114 655 151 c 128,-1,56
 690 188 690 188 712 238 c 128,-1,57
 734 288 734 288 748 346 c 1,58,-1
 742 346 l 1,59,-1
 694 350 l 2,60,61
 676 352 676 352 670 362 c 128,-1,62
 664 372 664 372 666 384 c 0,63,64
 669 398 669 398 680.5 407.5 c 128,-1,65
 692 417 692 417 709 417 c 0,66,67
 754 413 754 413 786.5 413.5 c 128,-1,68
 819 414 819 414 850 412 c 0,0,1
EndSplineSet
EndChar
StartChar: H
Encoding: 72 72 43
Width: 782
Flags: W
Fore
217 413 m 1,0,-1
 339 826 l 2,1,2
 344 844 344 844 356 851 c 128,-1,3
 368 858 368 858 381 858 c 256,4,5
 394 858 394 858 402.5 851 c 128,-1,6
 411 844 411 844 411 832 c 0,7,8
 411 824 411 824 409 820 c 1,9,-1
 409 822 l 1,10,11
 377 717 377 717 346 618 c 128,-1,12
 315 519 315 519 283 413 c 1,13,-1
 684 408 l 1,14,-1
 755 824 l 2,15,16
 758 843 758 843 770.5 850.5 c 128,-1,17
 783 858 783 858 797 858 c 0,18,19
 809 858 809 858 818 852 c 128,-1,20
 827 846 827 846 827 835 c 0,21,22
 827 828 827 828 825 824 c 1,23,24
 806 718 806 718 789 616.5 c 128,-1,25
 772 515 772 515 753 408 c 1,26,27
 777 408 777 408 795 404 c 128,-1,28
 813 400 813 400 813 382 c 0,29,30
 813 361 813 361 802 350.5 c 128,-1,31
 791 340 791 340 774 340 c 2,32,-1
 739 340 l 1,33,-1
 682 51 l 2,34,35
 679 37 679 37 662.5 29 c 128,-1,36
 646 21 646 21 631 21 c 0,37,38
 623 21 623 21 616.5 24 c 128,-1,39
 610 27 610 27 610 35 c 0,40,41
 610 36 610 36 610.5 36.5 c 128,-1,42
 611 37 611 37 611 39 c 1,43,-1
 675 340 l 1,44,45
 569 342 569 342 467.5 344 c 128,-1,46
 366 346 366 346 259 348 c 1,47,-1
 171 26 l 1,48,49
 163 15 163 15 150 9.5 c 128,-1,50
 137 4 137 4 125 4 c 0,51,52
 116 4 116 4 109.5 8 c 128,-1,53
 103 12 103 12 103 20 c 0,54,55
 103 26 103 26 107 34 c 1,56,-1
 196 350 l 1,57,58
 186 350 186 350 175.5 350.5 c 128,-1,59
 165 351 165 351 156 353 c 128,-1,60
 147 355 147 355 141 359.5 c 128,-1,61
 135 364 135 364 135 373 c 0,62,63
 135 393 135 393 148.5 404.5 c 128,-1,64
 162 416 162 416 176 415 c 2,65,-1
 217 413 l 1,0,-1
EndSplineSet
EndChar
StartChar: I
Encoding: 73 73 44
Width: 455
Flags: W
Fore
215 76 m 1,0,1
 221 97 221 97 230 133.5 c 128,-1,2
 239 170 239 170 250 216.5 c 128,-1,3
 261 263 261 263 274.5 316.5 c 128,-1,4
 288 370 288 370 303 425 c 1,5,-1
 303 424 l 1,6,7
 318 482 318 482 331.5 537 c 128,-1,8
 345 592 345 592 356 638.5 c 128,-1,9
 367 685 367 685 375 720 c 128,-1,10
 383 755 383 755 387 773 c 1,11,12
 374 774 374 774 364.5 774.5 c 128,-1,13
 355 775 355 775 344 775 c 0,14,15
 322 775 322 775 295 772 c 128,-1,16
 268 769 268 769 221 769 c 0,17,18
 204 769 204 769 195.5 776.5 c 128,-1,19
 187 784 187 784 187 794 c 0,20,21
 187 825 187 825 256.5 834 c 128,-1,22
 326 843 326 843 455 843 c 0,23,24
 522 843 522 843 565.5 839 c 128,-1,25
 609 835 609 835 609 816 c 0,26,27
 609 807 609 807 604.5 799 c 128,-1,28
 600 791 600 791 594 785 c 128,-1,29
 588 779 588 779 581 775.5 c 128,-1,30
 574 772 574 772 568 772 c 0,31,32
 541 774 541 774 522.5 775.5 c 128,-1,33
 504 777 504 777 493 777 c 256,34,35
 482 777 482 777 475 777 c 128,-1,36
 468 777 468 777 453 775 c 1,37,38
 447 746 447 746 433.5 689.5 c 128,-1,39
 420 633 420 633 403.5 563 c 128,-1,40
 387 493 387 493 368.5 417 c 128,-1,41
 350 341 350 341 332.5 273 c 128,-1,42
 315 205 315 205 301.5 152 c 128,-1,43
 288 99 288 99 281 76 c 1,44,45
 321 71 321 71 353.5 69.5 c 128,-1,46
 386 68 386 68 417 70 c 0,47,48
 444 69 444 69 444 48 c 0,49,50
 444 28 444 28 432 17 c 128,-1,51
 420 6 420 6 404 6 c 2,52,-1
 53 12 l 1,53,54
 32 19 32 19 32 34 c 0,55,56
 32 51 32 51 44.5 63.5 c 128,-1,57
 57 76 57 76 68 76 c 2,58,-1
 215 76 l 1,0,1
EndSplineSet
EndChar
StartChar: J
Encoding: 74 74 45
Width: 575
Flags: W
Fore
700 771 m 0,0,1
 692 771 692 771 683.5 771 c 128,-1,2
 675 771 675 771 665 770 c 1,3,4
 642 671 642 671 626.5 601 c 128,-1,5
 611 531 611 531 600 482.5 c 128,-1,6
 589 434 589 434 582.5 404.5 c 128,-1,7
 576 375 576 375 572 357 c 128,-1,8
 568 339 568 339 566 329.5 c 128,-1,9
 564 320 564 320 562 312 c 0,10,11
 542 231 542 231 509 172 c 128,-1,12
 476 113 476 113 435.5 75.5 c 128,-1,13
 395 38 395 38 351 20 c 128,-1,14
 307 2 307 2 266 2 c 0,15,16
 234 2 234 2 199 9 c 128,-1,17
 164 16 164 16 135 36.5 c 128,-1,18
 106 57 106 57 87 94 c 128,-1,19
 68 131 68 131 68 191 c 0,20,21
 68 205 68 205 69.5 230 c 128,-1,22
 71 255 71 255 76.5 279 c 128,-1,23
 82 303 82 303 91.5 321 c 128,-1,24
 101 339 101 339 117 339 c 0,25,26
 147 339 147 339 147 315 c 0,27,28
 147 283 147 283 141 257 c 128,-1,29
 135 231 135 231 135 209 c 0,30,31
 135 160 135 160 149 131.5 c 128,-1,32
 163 103 163 103 184 88.5 c 128,-1,33
 205 74 205 74 229.5 70 c 128,-1,34
 254 66 254 66 276 66 c 0,35,36
 306 66 306 66 337.5 79 c 128,-1,37
 369 92 369 92 397.5 121.5 c 128,-1,38
 426 151 426 151 451 197.5 c 128,-1,39
 476 244 476 244 494 311 c 0,40,41
 511 374 511 374 522 429 c 128,-1,42
 533 484 533 484 543 538 c 128,-1,43
 553 592 553 592 565 648.5 c 128,-1,44
 577 705 577 705 595 771 c 1,45,46
 584 771 584 771 565.5 769.5 c 128,-1,47
 547 768 547 768 518 768 c 0,48,49
 504 768 504 768 497.5 776.5 c 128,-1,50
 491 785 491 785 491 794 c 0,51,52
 491 821 491 821 522 829 c 128,-1,53
 553 837 553 837 621 837 c 0,54,55
 656 837 656 837 685 836 c 128,-1,56
 714 835 714 835 734.5 832.5 c 128,-1,57
 755 830 755 830 766.5 825 c 128,-1,58
 778 820 778 820 778 812 c 256,59,60
 778 804 778 804 770 791 c 0,61,62
 761 776 761 776 745 773.5 c 128,-1,63
 729 771 729 771 700 771 c 0,0,1
EndSplineSet
EndChar
StartChar: K
Encoding: 75 75 46
Width: 688
Flags: W
Fore
532 579 m 0,0,1
 481 549 481 549 426 516.5 c 128,-1,2
 371 484 371 484 315 452 c 1,3,4
 320 430 320 430 351 388 c 128,-1,5
 382 346 382 346 429.5 294 c 128,-1,6
 477 242 477 242 536.5 186 c 128,-1,7
 596 130 596 130 659 80 c 0,8,9
 682 63 682 63 681.5 48.5 c 128,-1,10
 681 34 681 34 668.5 25.5 c 128,-1,11
 656 17 656 17 637.5 16.5 c 128,-1,12
 619 16 619 16 606 26 c 0,13,14
 539 81 539 81 488.5 127 c 128,-1,15
 438 173 438 173 397 216.5 c 128,-1,16
 356 260 356 260 321.5 305 c 128,-1,17
 287 350 287 350 253 402 c 1,18,-1
 175 55 l 1,19,20
 167 35 167 35 153.5 26 c 128,-1,21
 140 17 140 17 128 17 c 0,22,23
 117 17 117 17 109.5 26 c 128,-1,24
 102 35 102 35 102 49 c 0,25,26
 102 50 102 50 102.5 54.5 c 128,-1,27
 103 59 103 59 107.5 77.5 c 128,-1,28
 112 96 112 96 120.5 135.5 c 128,-1,29
 129 175 129 175 146 247 c 0,30,31
 164 328 164 328 181 401.5 c 128,-1,32
 198 475 198 475 213 545 c 128,-1,33
 228 615 228 615 241.5 682 c 128,-1,34
 255 749 255 749 268 817 c 0,35,36
 270 825 270 825 280 829 c 128,-1,37
 290 833 290 833 302 833 c 0,38,39
 318 833 318 833 328 827.5 c 128,-1,40
 338 822 338 822 338 813 c 1,41,42
 327 763 327 763 318.5 722.5 c 128,-1,43
 310 682 310 682 302.5 646 c 128,-1,44
 295 610 295 610 288.5 577 c 128,-1,45
 282 544 282 544 276 509 c 1,46,-1
 498 637 l 2,47,48
 564 675 564 675 621.5 713.5 c 128,-1,49
 679 752 679 752 721.5 777 c 128,-1,50
 764 802 764 802 789 807 c 128,-1,51
 814 812 814 812 814 782 c 0,52,53
 814 763 814 763 798 752 c 1,54,-1
 799 753 l 1,55,56
 781 738 781 738 753 719 c 128,-1,57
 725 700 725 700 690.5 677.5 c 128,-1,58
 656 655 656 655 615.5 630 c 128,-1,59
 575 605 575 605 532 579 c 0,0,1
EndSplineSet
EndChar
StartChar: L
Encoding: 76 76 47
Width: 592
Flags: W
Fore
171 211 m 1,0,1
 163 184 163 184 161.5 159 c 128,-1,2
 160 134 160 134 170.5 115.5 c 128,-1,3
 181 97 181 97 207 87.5 c 128,-1,4
 233 78 233 78 280 82 c 0,5,6
 313 84 313 84 353 89 c 128,-1,7
 393 94 393 94 433 100 c 0,8,9
 456 104 456 104 482.5 107 c 128,-1,10
 509 110 509 110 536 114 c 0,11,12
 553 116 553 116 564.5 103.5 c 128,-1,13
 576 91 576 91 573 77 c 0,14,15
 570 65 570 65 560.5 54.5 c 128,-1,16
 551 44 551 44 531 42 c 2,17,-1
 465 32 l 2,18,19
 417 24 417 24 372.5 19 c 128,-1,20
 328 14 328 14 270 14 c 0,21,22
 214 14 214 14 176 17.5 c 128,-1,23
 138 21 138 21 117.5 42 c 128,-1,24
 97 63 97 63 95 108 c 128,-1,25
 93 153 93 153 111 236 c 0,26,27
 143 367 143 367 172 473.5 c 128,-1,28
 201 580 201 580 227 658 c 1,29,-1
 227 657 l 1,30,31
 242 703 242 703 256.5 744.5 c 128,-1,32
 271 786 271 786 285 823 c 0,33,34
 290 838 290 838 301.5 844.5 c 128,-1,35
 313 851 313 851 326 851 c 0,36,37
 341 851 341 851 349.5 841 c 128,-1,38
 358 831 358 831 353 813 c 0,39,40
 330 754 330 754 308 689.5 c 128,-1,41
 286 625 286 625 266.5 560.5 c 128,-1,42
 247 496 247 496 229.5 432.5 c 128,-1,43
 212 369 212 369 197 311 c 0,44,45
 191 288 191 288 184 262 c 128,-1,46
 177 236 177 236 172 212 c 1,47,-1
 171 211 l 1,0,1
EndSplineSet
EndChar
StartChar: M
Encoding: 77 77 48
Width: 956
Flags: W
Fore
844 41 m 0,0,1
 840 20 840 20 828.5 9 c 128,-1,2
 817 -2 817 -2 805 -2 c 128,-1,3
 793 -2 793 -2 784 9 c 128,-1,4
 775 20 775 20 775 43 c 1,5,6
 784 90 784 90 796.5 159 c 128,-1,7
 809 228 809 228 822.5 304.5 c 128,-1,8
 836 381 836 381 849 459 c 128,-1,9
 862 537 862 537 872 602.5 c 128,-1,10
 882 668 882 668 887.5 714.5 c 128,-1,11
 893 761 893 761 892 775 c 1,12,13
 865 769 865 769 834 743 c 128,-1,14
 803 717 803 717 770.5 679.5 c 128,-1,15
 738 642 738 642 706.5 595 c 128,-1,16
 675 548 675 548 647.5 499.5 c 128,-1,17
 620 451 620 451 598.5 405 c 128,-1,18
 577 359 577 359 565 321 c 0,19,20
 554 288 554 288 528 288 c 0,21,22
 515 288 515 288 507 293.5 c 128,-1,23
 499 299 499 299 500 311 c 0,24,25
 502 355 502 355 500.5 407.5 c 128,-1,26
 499 460 499 460 493 512 c 128,-1,27
 487 564 487 564 477.5 613 c 128,-1,28
 468 662 468 662 455 700 c 128,-1,29
 442 738 442 738 425 760.5 c 128,-1,30
 408 783 408 783 388 783 c 0,31,32
 381 783 381 783 368.5 755 c 128,-1,33
 356 727 356 727 339.5 676.5 c 128,-1,34
 323 626 323 626 303.5 556 c 128,-1,35
 284 486 284 486 262.5 402 c 128,-1,36
 241 318 241 318 218.5 222.5 c 128,-1,37
 196 127 196 127 175 27 c 1,38,39
 170 20 170 20 158.5 14.5 c 128,-1,40
 147 9 147 9 135 7.5 c 128,-1,41
 123 6 123 6 114 10.5 c 128,-1,42
 105 15 105 15 105 27 c 1,43,44
 195 438 195 438 264 645.5 c 128,-1,45
 333 853 333 853 398 853 c 0,46,47
 434 853 434 853 463.5 825.5 c 128,-1,48
 493 798 493 798 514.5 748.5 c 128,-1,49
 536 699 536 699 549.5 630.5 c 128,-1,50
 563 562 563 562 567 481 c 1,51,52
 603 562 603 562 649.5 630 c 128,-1,53
 696 698 696 698 744 747.5 c 128,-1,54
 792 797 792 797 838 825 c 128,-1,55
 884 853 884 853 920 853 c 0,56,57
 939 853 939 853 946.5 831.5 c 128,-1,58
 954 810 954 810 954 771 c 0,59,60
 954 721 954 721 944 647 c 128,-1,61
 934 573 934 573 918 479.5 c 128,-1,62
 902 386 902 386 882.5 275 c 128,-1,63
 863 164 863 164 844 41 c 0,0,1
EndSplineSet
EndChar
StartChar: N
Encoding: 78 78 49
Width: 877
Flags: W
Fore
329 724 m 1,0,1
 307 641 307 641 288 554 c 128,-1,2
 269 467 269 467 252 380 c 128,-1,3
 235 293 235 293 218 207 c 128,-1,4
 201 121 201 121 184 39 c 0,5,6
 182 33 182 33 169.5 27 c 128,-1,7
 157 21 157 21 143 18.5 c 128,-1,8
 129 16 129 16 118.5 20 c 128,-1,9
 108 24 108 24 110 39 c 0,10,11
 125 108 125 108 142.5 195 c 128,-1,12
 160 282 160 282 179 372 c 128,-1,13
 198 462 198 462 217.5 548 c 128,-1,14
 237 634 237 634 256 700.5 c 128,-1,15
 275 767 275 767 294 808 c 128,-1,16
 313 849 313 849 331 849 c 0,17,18
 343 849 343 849 365 816.5 c 128,-1,19
 387 784 387 784 415 730 c 128,-1,20
 443 676 443 676 475 608 c 128,-1,21
 507 540 507 540 539 468.5 c 128,-1,22
 571 397 571 397 600.5 329 c 128,-1,23
 630 261 630 261 652.5 207.5 c 128,-1,24
 675 154 675 154 689.5 121.5 c 128,-1,25
 704 89 704 89 705 90 c 1,26,27
 708 90 708 90 723 149.5 c 128,-1,28
 738 209 738 209 761 309.5 c 128,-1,29
 784 410 784 410 812.5 541.5 c 128,-1,30
 841 673 841 673 872 818 c 1,31,32
 880 835 880 835 891 841.5 c 128,-1,33
 902 848 902 848 918 848 c 1,34,35
 929 846 929 846 936.5 839 c 128,-1,36
 944 832 944 832 942 820 c 0,37,38
 905 645 905 645 878.5 522 c 128,-1,39
 852 399 852 399 833 315.5 c 128,-1,40
 814 232 814 232 802 181.5 c 128,-1,41
 790 131 790 131 783 101 c 0,42,43
 774 74 774 74 762 57 c 128,-1,44
 750 40 750 40 737 30.5 c 128,-1,45
 724 21 724 21 711.5 18 c 128,-1,46
 699 15 699 15 690 16 c 1,47,48
 674 15 674 15 650.5 50.5 c 128,-1,49
 627 86 627 86 598 145 c 128,-1,50
 569 204 569 204 536 279.5 c 128,-1,51
 503 355 503 355 468.5 433.5 c 128,-1,52
 434 512 434 512 398.5 588 c 128,-1,53
 363 664 363 664 329 724 c 1,0,1
EndSplineSet
EndChar
StartChar: O
Encoding: 79 79 50
Width: 922
Flags: W
Fore
935 394 m 1,0,1
 909 292 909 292 857 219.5 c 128,-1,2
 805 147 805 147 737.5 101 c 128,-1,3
 670 55 670 55 592 33.5 c 128,-1,4
 514 12 514 12 436 12 c 0,5,6
 370 12 370 12 307 34 c 128,-1,7
 244 56 244 56 199.5 102.5 c 128,-1,8
 155 149 155 149 136.5 221 c 128,-1,9
 118 293 118 293 139 393 c 0,10,11
 161 495 161 495 205.5 577.5 c 128,-1,12
 250 660 250 660 312 718.5 c 128,-1,13
 374 777 374 777 450.5 808.5 c 128,-1,14
 527 840 527 840 614 840 c 0,15,16
 702 840 702 840 772 809 c 128,-1,17
 842 778 842 778 886 720 c 128,-1,18
 930 662 930 662 944.5 579.5 c 128,-1,19
 959 497 959 497 935 395 c 1,20,-1
 935 394 l 1,0,1
455 82 m 0,21,22
 515 82 515 82 578.5 96.5 c 128,-1,23
 642 111 642 111 698 146.5 c 128,-1,24
 754 182 754 182 798.5 242.5 c 128,-1,25
 843 303 843 303 865 394 c 0,26,27
 882 476 882 476 873 544.5 c 128,-1,28
 864 613 864 613 830 662 c 128,-1,29
 796 711 796 711 738 739 c 128,-1,30
 680 767 680 767 599 768 c 0,31,32
 533 768 533 768 472 744 c 128,-1,33
 411 720 411 720 360 673 c 128,-1,34
 309 626 309 626 271 556 c 128,-1,35
 233 486 233 486 213 393 c 0,36,37
 194 304 194 304 212.5 244.5 c 128,-1,38
 231 185 231 185 269.5 149 c 128,-1,39
 308 113 308 113 358.5 97.5 c 128,-1,40
 409 82 409 82 455 82 c 0,21,22
EndSplineSet
EndChar
StartChar: P
Encoding: 80 80 51
Width: 678
Flags: W
Fore
258 417 m 1,0,1
 334 390 334 390 413 390 c 0,2,3
 465 390 465 390 518 404 c 128,-1,4
 571 418 571 418 613.5 446 c 128,-1,5
 656 474 656 474 683 515.5 c 128,-1,6
 710 557 710 557 710 612 c 0,7,8
 710 647 710 647 692.5 676.5 c 128,-1,9
 675 706 675 706 644.5 727 c 128,-1,10
 614 748 614 748 572.5 760 c 128,-1,11
 531 772 531 772 483 772 c 0,12,13
 401 772 401 772 308 734 c 1,14,-1
 258 417 l 1,0,1
315 799 m 1,15,16
 402 834 402 834 496 834 c 0,17,18
 551 834 551 834 601.5 821 c 128,-1,19
 652 808 652 808 691 783.5 c 128,-1,20
 730 759 730 759 753 722 c 128,-1,21
 776 685 776 685 776 637 c 0,22,23
 776 557 776 557 743.5 497.5 c 128,-1,24
 711 438 711 438 658.5 398.5 c 128,-1,25
 606 359 606 359 541 339.5 c 128,-1,26
 476 320 476 320 412 320 c 0,27,28
 370 320 370 320 327 327.5 c 128,-1,29
 284 335 284 335 243 350 c 1,30,31
 226 269 226 269 207 186.5 c 128,-1,32
 188 104 188 104 171 23 c 1,33,34
 166 10 166 10 151 1.5 c 128,-1,35
 136 -7 136 -7 122 -7 c 0,36,37
 106 -7 106 -7 99 3 c 128,-1,38
 92 13 92 13 96 27 c 0,39,40
 123 127 123 127 143.5 223 c 128,-1,41
 164 319 164 319 181 406 c 128,-1,42
 198 493 198 493 212 568 c 128,-1,43
 226 643 226 643 238 702 c 1,44,45
 228 692 228 692 214 697.5 c 128,-1,46
 200 703 200 703 200 720 c 0,47,48
 200 729 200 729 207.5 738 c 128,-1,49
 215 747 215 747 224.5 754.5 c 128,-1,50
 234 762 234 762 242 767 c 128,-1,51
 250 772 250 772 251 772 c 1,52,53
 256 794 256 794 259 808.5 c 128,-1,54
 262 823 262 823 266 831 c 128,-1,55
 270 839 270 839 276 842.5 c 128,-1,56
 282 846 282 846 292 847 c 1,57,58
 300 846 300 846 305.5 841 c 128,-1,59
 311 836 311 836 314 829 c 128,-1,60
 317 822 317 822 317 814 c 128,-1,61
 317 806 317 806 315 799 c 1,15,16
EndSplineSet
EndChar
StartChar: Q
Encoding: 81 81 52
Width: 901
Flags: W
Fore
837 78 m 1,0,1
 842 66 842 66 838 55 c 128,-1,2
 834 44 834 44 825 36.5 c 128,-1,3
 816 29 816 29 804.5 26 c 128,-1,4
 793 23 793 23 783 28 c 1,5,6
 782 29 782 29 778.5 32 c 128,-1,7
 775 35 775 35 767.5 44 c 128,-1,8
 760 53 760 53 747 69 c 128,-1,9
 734 85 734 85 715 112 c 1,10,11
 652 67 652 67 579 42.5 c 128,-1,12
 506 18 506 18 431 18 c 0,13,14
 344 18 344 18 281.5 45 c 128,-1,15
 219 72 219 72 182 124 c 128,-1,16
 145 176 145 176 134.5 250 c 128,-1,17
 124 324 124 324 142 419 c 0,18,19
 161 520 161 520 212 599 c 128,-1,20
 263 678 263 678 330.5 733 c 128,-1,21
 398 788 398 788 475.5 816.5 c 128,-1,22
 553 845 553 845 626 845 c 0,23,24
 695 845 695 845 758 817 c 128,-1,25
 821 789 821 789 865.5 734.5 c 128,-1,26
 910 680 910 680 928 600 c 128,-1,27
 946 520 946 520 924 417 c 0,28,29
 915 373 915 373 902.5 338 c 128,-1,30
 890 303 890 303 872 272 c 128,-1,31
 854 241 854 241 830.5 212.5 c 128,-1,32
 807 184 807 184 776 153 c 1,33,-1
 837 78 l 1,0,1
683 283 m 1,34,35
 691 275 691 275 701.5 257 c 128,-1,36
 712 239 712 239 738 204 c 1,37,38
 784 249 784 249 813.5 301.5 c 128,-1,39
 843 354 843 354 854 420 c 0,40,41
 864 497 864 497 849 562 c 128,-1,42
 834 627 834 627 800.5 673.5 c 128,-1,43
 767 720 767 720 718 746 c 128,-1,44
 669 772 669 772 611 772 c 0,45,46
 554 772 554 772 491.5 747.5 c 128,-1,47
 429 723 429 723 373.5 677 c 128,-1,48
 318 631 318 631 275 565.5 c 128,-1,49
 232 500 232 500 215 419 c 0,50,51
 199 344 199 344 207.5 282.5 c 128,-1,52
 216 221 216 221 246.5 177.5 c 128,-1,53
 277 134 277 134 327.5 110.5 c 128,-1,54
 378 87 378 87 446 87 c 0,55,56
 506 87 506 87 564.5 106 c 128,-1,57
 623 125 623 125 677 165 c 1,58,59
 659 188 659 188 640.5 210 c 128,-1,60
 622 232 622 232 605 255 c 1,61,62
 601 271 601 271 606 284.5 c 128,-1,63
 611 298 611 298 622 304 c 128,-1,64
 633 310 633 310 649 305.5 c 128,-1,65
 665 301 665 301 683 283 c 1,66,-1
 683 283 l 1,34,35
EndSplineSet
EndChar
StartChar: R
Encoding: 82 82 53
Width: 731
Flags: W
Fore
501 766 m 1,0,1
 456 766 456 766 407 756 c 128,-1,2
 358 746 358 746 304 725 c 1,3,4
 290 655 290 655 281 608 c 128,-1,5
 272 561 272 561 266.5 528.5 c 128,-1,6
 261 496 261 496 258 474 c 128,-1,7
 255 452 255 452 253 432 c 1,8,9
 294 422 294 422 341 418.5 c 128,-1,10
 388 415 388 415 436 418.5 c 128,-1,11
 484 422 484 422 529 433 c 128,-1,12
 574 444 574 444 610.5 463.5 c 128,-1,13
 647 483 647 483 672.5 511.5 c 128,-1,14
 698 540 698 540 706 578 c 0,15,16
 715 620 715 620 704 654.5 c 128,-1,17
 693 689 693 689 665 713.5 c 128,-1,18
 637 738 637 738 595 752 c 128,-1,19
 553 766 553 766 501 766 c 1,20,-1
 501 766 l 1,0,1
317 796 m 1,21,22
 369 814 369 814 422 823.5 c 128,-1,23
 475 833 475 833 523 833 c 0,24,25
 585 833 585 833 638 817.5 c 128,-1,26
 691 802 691 802 726.5 769.5 c 128,-1,27
 762 737 762 737 775.5 688.5 c 128,-1,28
 789 640 789 640 773 574 c 0,29,30
 754 502 754 502 704 453.5 c 128,-1,31
 654 405 654 405 588 377 c 128,-1,32
 522 349 522 349 448.5 341.5 c 128,-1,33
 375 334 375 334 310 345 c 1,34,35
 392 277 392 277 473 210.5 c 128,-1,36
 554 144 554 144 636 78 c 1,37,38
 645 66 645 66 640.5 53 c 128,-1,39
 636 40 636 40 626 30 c 128,-1,40
 616 20 616 20 602.5 15.5 c 128,-1,41
 589 11 589 11 580 18 c 2,42,-1
 231 315 l 1,43,44
 214 237 214 237 203 184.5 c 128,-1,45
 192 132 192 132 184.5 99.5 c 128,-1,46
 177 67 177 67 172.5 50 c 128,-1,47
 168 33 168 33 165 25 c 0,48,49
 160 12 160 12 148 4 c 128,-1,50
 136 -4 136 -4 123 -4 c 0,51,52
 109 -4 109 -4 101 4 c 128,-1,53
 93 12 93 12 97 30 c 0,54,55
 120 109 120 109 138.5 195 c 128,-1,56
 157 281 157 281 173 367.5 c 128,-1,57
 189 454 189 454 204 538.5 c 128,-1,58
 219 623 219 623 235 700 c 1,59,60
 215 684 215 684 201 703 c 0,61,62
 187 721 187 721 210 741 c 0,63,64
 221 751 221 751 229.5 758 c 128,-1,65
 238 765 238 765 248 770 c 1,66,67
 250 780 250 780 251 788 c 128,-1,68
 252 796 252 796 254 806 c 0,69,70
 257 836 257 836 287 836 c 0,71,72
 311 836 311 836 321 820 c 1,73,-1
 317 796 l 1,21,22
EndSplineSet
EndChar
StartChar: S
Encoding: 83 83 54
Width: 621
Flags: W
Fore
610 611 m 0,0,1
 614 640 614 640 611 669 c 128,-1,2
 608 698 608 698 593.5 721.5 c 128,-1,3
 579 745 579 745 552 759.5 c 128,-1,4
 525 774 525 774 483 774 c 0,5,6
 391 777 391 777 334 725 c 0,7,8
 274 674 274 674 263 601 c 0,9,10
 260 579 260 579 264 558.5 c 128,-1,11
 268 538 268 538 284.5 518.5 c 128,-1,12
 301 499 301 499 334 481 c 128,-1,13
 367 463 367 463 424 446 c 0,14,15
 498 426 498 426 537.5 395 c 128,-1,16
 577 364 577 364 593 329 c 128,-1,17
 609 294 609 294 607.5 257.5 c 128,-1,18
 606 221 606 221 597 189 c 0,19,20
 589 159 589 159 568 126.5 c 128,-1,21
 547 94 547 94 514 67 c 128,-1,22
 481 40 481 40 436 22 c 128,-1,23
 391 4 391 4 333 2 c 0,24,25
 270 0 270 0 225 19.5 c 128,-1,26
 180 39 180 39 153 73.5 c 128,-1,27
 126 108 126 108 117.5 154.5 c 128,-1,28
 109 201 109 201 120 254 c 1,29,30
 121 272 121 272 133 282.5 c 128,-1,31
 145 293 145 293 158.5 294.5 c 128,-1,32
 172 296 172 296 182.5 287 c 128,-1,33
 193 278 193 278 192 257 c 0,34,35
 186 219 186 219 190 185 c 128,-1,36
 194 151 194 151 212 125.5 c 128,-1,37
 230 100 230 100 263 85 c 128,-1,38
 296 70 296 70 347 70 c 0,39,40
 395 70 395 70 427.5 83.5 c 128,-1,41
 460 97 460 97 481 116.5 c 128,-1,42
 502 136 502 136 513 156.5 c 128,-1,43
 524 177 524 177 529 191 c 0,44,45
 539 223 539 223 535.5 252 c 128,-1,46
 532 281 532 281 514 305.5 c 128,-1,47
 496 330 496 330 462 349 c 128,-1,48
 428 368 428 368 376 382 c 0,49,50
 282 405 282 405 231.5 457 c 128,-1,51
 181 509 181 509 192 599 c 0,52,53
 198 650 198 650 224.5 694.5 c 128,-1,54
 251 739 251 739 291.5 772 c 128,-1,55
 332 805 332 805 384.5 823.5 c 128,-1,56
 437 842 437 842 497 842 c 0,57,58
 597 840 597 840 646 779 c 0,59,60
 697 719 697 719 679 616 c 1,61,62
 665 582 665 582 638 581 c 0,63,64
 607 578 607 578 610 611 c 0,0,1
EndSplineSet
EndChar
StartChar: T
Encoding: 84 84 55
Width: 643
Flags: W
Fore
680 759 m 0,0,1
 657 761 657 761 623.5 763 c 128,-1,2
 590 765 590 765 534 766 c 1,3,4
 520 727 520 727 501.5 663 c 128,-1,5
 483 599 483 599 463 523.5 c 128,-1,6
 443 448 443 448 424 369 c 128,-1,7
 405 290 405 290 389 222.5 c 128,-1,8
 373 155 373 155 361.5 106.5 c 128,-1,9
 350 58 350 58 347 43 c 0,10,11
 343 26 343 26 328 18 c 128,-1,12
 313 10 313 10 298 10 c 0,13,14
 281 10 281 10 269.5 18 c 128,-1,15
 258 26 258 26 262 43 c 0,16,17
 264 53 264 53 272 85.5 c 128,-1,18
 280 118 280 118 291 165 c 128,-1,19
 302 212 302 212 316.5 269 c 128,-1,20
 331 326 331 326 347 386 c 0,21,22
 367 458 367 458 385 528 c 128,-1,23
 403 598 403 598 417 657 c 0,24,25
 427 697 427 697 433.5 722 c 128,-1,26
 440 747 440 747 445 764 c 1,27,28
 418 764 418 764 399 763.5 c 128,-1,29
 380 763 380 763 364 762.5 c 128,-1,30
 348 762 348 762 334 761 c 128,-1,31
 320 760 320 760 304 759 c 2,32,-1
 232 754 l 2,33,34
 226 754 226 754 223.5 764.5 c 128,-1,35
 221 775 221 775 223 788 c 128,-1,36
 225 801 225 801 230 812 c 128,-1,37
 235 823 235 823 244 824 c 0,38,39
 306 831 306 831 372 834.5 c 128,-1,40
 438 838 438 838 505 838 c 256,41,42
 572 838 572 838 631.5 836 c 128,-1,43
 691 834 691 834 743 830 c 0,44,45
 759 829 759 829 764.5 819 c 128,-1,46
 770 809 770 809 765 792 c 0,47,48
 756 759 756 759 729 756 c 0,49,50
 701 756 701 756 680 759 c 0,0,1
EndSplineSet
EndChar
StartChar: U
Encoding: 85 85 56
Width: 772
Flags: W
Fore
621 110 m 1,0,1
 581 62 581 62 517 33 c 128,-1,2
 453 4 453 4 360 4 c 0,3,4
 296 4 296 4 253.5 24 c 128,-1,5
 211 44 211 44 185.5 76 c 128,-1,6
 160 108 160 108 149.5 148 c 128,-1,7
 139 188 139 188 139 229 c 1,8,9
 168 367 168 367 188.5 465.5 c 128,-1,10
 209 564 209 564 222.5 631 c 128,-1,11
 236 698 236 698 246 738.5 c 128,-1,12
 256 779 256 779 264.5 800.5 c 128,-1,13
 273 822 273 822 282 828.5 c 128,-1,14
 291 835 291 835 305 835 c 0,15,16
 341 835 341 835 341 803 c 1,17,18
 308 663 308 663 285 564.5 c 128,-1,19
 262 466 262 466 247.5 399 c 128,-1,20
 233 332 233 332 225 291 c 128,-1,21
 217 250 217 250 214 225 c 0,22,23
 206 154 206 154 252.5 114.5 c 128,-1,24
 299 75 299 75 384 75 c 0,25,26
 454 75 454 75 503 102 c 128,-1,27
 552 129 552 129 586 171.5 c 128,-1,28
 620 214 620 214 640 267.5 c 128,-1,29
 660 321 660 321 671 375 c 2,30,-1
 763 809 l 2,31,32
 767 826 767 826 780 834 c 128,-1,33
 793 842 793 842 808 842 c 256,34,35
 823 842 823 842 832.5 834.5 c 128,-1,36
 842 827 842 827 842 813 c 1,37,-1
 685 35 l 2,38,39
 682 21 682 21 669 11 c 128,-1,40
 656 1 656 1 641.5 -1.5 c 128,-1,41
 627 -4 627 -4 615 3 c 128,-1,42
 603 10 603 10 603 30 c 0,43,44
 603 46 603 46 609 65 c 128,-1,45
 615 84 615 84 621 110 c 1,0,1
EndSplineSet
EndChar
StartChar: V
Encoding: 86 86 57
Width: 780
Flags: W
Fore
385 100 m 2,0,1
 387 84 387 84 392 79.5 c 128,-1,2
 397 75 397 75 403 76.5 c 128,-1,3
 409 78 409 78 414 84 c 128,-1,4
 419 90 419 90 422 96 c 2,5,-1
 782 809 l 2,6,7
 789 824 789 824 803 830.5 c 128,-1,8
 817 837 817 837 830.5 835.5 c 128,-1,9
 844 834 844 834 853 824.5 c 128,-1,10
 862 815 862 815 858 799 c 1,11,12
 834 748 834 748 802 682 c 128,-1,13
 770 616 770 616 734.5 543.5 c 128,-1,14
 699 471 699 471 662.5 397.5 c 128,-1,15
 626 324 626 324 592 257.5 c 128,-1,16
 558 191 558 191 529 136.5 c 128,-1,17
 500 82 500 82 480 48 c 0,18,19
 471 27 471 27 445.5 13.5 c 128,-1,20
 420 0 420 0 392 -2 c 128,-1,21
 364 -4 364 -4 340.5 7.5 c 128,-1,22
 317 19 317 19 313 46 c 0,23,24
 299 174 299 174 289 271 c 128,-1,25
 279 368 279 368 271.5 441.5 c 128,-1,26
 264 515 264 515 259 569.5 c 128,-1,27
 254 624 254 624 250.5 666 c 128,-1,28
 247 708 247 708 244.5 741.5 c 128,-1,29
 242 775 242 775 240 808 c 1,30,31
 243 823 243 823 255.5 832 c 128,-1,32
 268 841 268 841 283 842 c 128,-1,33
 298 843 298 843 311 836 c 128,-1,34
 324 829 324 829 326 814 c 2,35,-1
 385 100 l 2,0,1
EndSplineSet
EndChar
StartChar: W
Encoding: 87 87 58
Width: 1053
Flags: W
Fore
369 129 m 1,0,-1
 561 419 l 2,1,2
 574 438 574 438 581.5 449 c 128,-1,3
 589 460 589 460 595.5 466 c 128,-1,4
 602 472 602 472 609 474 c 128,-1,5
 616 476 616 476 627 476 c 0,6,7
 637 476 637 476 644.5 474 c 128,-1,8
 652 472 652 472 657 466 c 128,-1,9
 662 460 662 460 667 448.5 c 128,-1,10
 672 437 672 437 678 417 c 0,11,12
 685 398 685 398 692 372.5 c 128,-1,13
 699 347 699 347 707.5 312.5 c 128,-1,14
 716 278 716 278 727.5 233 c 128,-1,15
 739 188 739 188 755 130 c 1,16,17
 799 232 799 232 833.5 313 c 128,-1,18
 868 394 868 394 896.5 458 c 128,-1,19
 925 522 925 522 947.5 572.5 c 128,-1,20
 970 623 970 623 989 664.5 c 128,-1,21
 1008 706 1008 706 1024.5 741.5 c 128,-1,22
 1041 777 1041 777 1057 812 c 0,23,24
 1061 821 1061 821 1073.5 822.5 c 128,-1,25
 1086 824 1086 824 1099 821 c 128,-1,26
 1112 818 1112 818 1122 811.5 c 128,-1,27
 1132 805 1132 805 1132 799 c 1,28,29
 1129.5 793 l 130,-1,30
 1127 787 1127 787 1123.5 780.5 c 128,-1,31
 1120 774 1120 774 1117 768 c 128,-1,32
 1114 763 1114 763 1114 762 c 1,33,34
 1076 682 1076 682 1038.5 601 c 128,-1,35
 1001 520 1001 520 962 432.5 c 128,-1,36
 923 345 923 345 882 249 c 128,-1,37
 841 153 841 153 798 44 c 0,38,39
 789 24 789 24 775 15.5 c 128,-1,40
 761 7 761 7 745 7 c 256,41,42
 729 7 729 7 715.5 17.5 c 128,-1,43
 702 28 702 28 700 45 c 1,44,-1
 700 43 l 1,45,-1
 607 365 l 1,46,47
 581 328 581 328 547.5 279.5 c 128,-1,48
 514 231 514 231 482 184.5 c 128,-1,49
 450 138 450 138 424 99.5 c 128,-1,50
 398 61 398 61 388 44 c 1,51,-1
 388 45 l 1,52,53
 366 5 366 5 329 5 c 0,54,55
 296 5 296 5 290 39 c 1,56,57
 288 194 288 194 281.5 331 c 128,-1,58
 275 468 275 468 270 571 c 1,59,-1
 270 570 l 1,60,61
 265 630 265 630 261 686 c 128,-1,62
 257 742 257 742 251 794 c 1,63,64
 253 815 253 815 263.5 826 c 128,-1,65
 274 837 274 837 287 838.5 c 128,-1,66
 300 840 300 840 312.5 832.5 c 128,-1,67
 325 825 325 825 330 807 c 1,68,-1
 369 129 l 1,0,-1
EndSplineSet
EndChar
StartChar: X
Encoding: 88 88 59
Width: 784
Flags: W
Fore
419 433 m 1,0,1
 375 523 375 523 329.5 618 c 128,-1,2
 284 713 284 713 245 803 c 0,3,4
 239 815 239 815 247 826 c 128,-1,5
 255 837 255 837 268.5 843 c 128,-1,6
 282 849 282 849 297.5 849 c 128,-1,7
 313 849 313 849 321 839 c 1,8,9
 359 755 359 755 403.5 667.5 c 128,-1,10
 448 580 448 580 487 499 c 1,11,12
 574 589 574 589 629 646.5 c 128,-1,13
 684 704 684 704 718.5 740 c 128,-1,14
 753 776 753 776 773 797 c 128,-1,15
 793 818 793 818 810 835 c 0,16,17
 818 843 818 843 830 841 c 128,-1,18
 842 839 842 839 851.5 831.5 c 128,-1,19
 861 824 861 824 866 813.5 c 128,-1,20
 871 803 871 803 865 794 c 1,21,-1
 522 433 l 1,22,-1
 718 54 l 2,23,24
 723 44 723 44 714 34.5 c 128,-1,25
 705 25 705 25 690.5 19.5 c 128,-1,26
 676 14 676 14 660.5 13.5 c 128,-1,27
 645 13 645 13 637 21 c 1,28,-1
 457 369 l 1,29,30
 379 283 379 283 299 197.5 c 128,-1,31
 219 112 219 112 141 27 c 0,32,33
 133 19 133 19 120 21.5 c 128,-1,34
 107 24 107 24 96 31.5 c 128,-1,35
 85 39 85 39 80 49 c 128,-1,36
 75 59 75 59 82 66 c 2,37,-1
 419 433 l 1,0,1
EndSplineSet
EndChar
StartChar: Y
Encoding: 89 89 60
Width: 770
Flags: W
Fore
434 43 m 2,0,1
 429 24 429 24 414 15 c 128,-1,2
 399 6 399 6 384 6 c 0,3,4
 370 6 370 6 359.5 12.5 c 128,-1,5
 349 19 349 19 349 32 c 1,6,-1
 419 385 l 1,7,8
 400 395 400 395 381.5 422 c 128,-1,9
 363 449 363 449 345 486 c 128,-1,10
 327 523 327 523 311 567.5 c 128,-1,11
 295 612 295 612 282 657 c 128,-1,12
 269 702 269 702 260.5 743.5 c 128,-1,13
 252 785 252 785 248 817 c 0,14,15
 248 831 248 831 261.5 838.5 c 128,-1,16
 275 846 275 846 293 846 c 0,17,18
 312 846 312 846 321 835.5 c 128,-1,19
 330 825 330 825 335 807.5 c 128,-1,20
 340 790 340 790 343 766.5 c 128,-1,21
 346 743 346 743 354 716 c 0,22,23
 368 669 368 669 382 621.5 c 128,-1,24
 396 574 396 574 411 536.5 c 128,-1,25
 426 499 426 499 442 475.5 c 128,-1,26
 458 452 458 452 476 452 c 0,27,28
 488 452 488 452 509 470 c 128,-1,29
 530 488 530 488 556 517.5 c 128,-1,30
 582 547 582 547 611.5 586 c 128,-1,31
 641 625 641 625 670.5 666 c 128,-1,32
 700 707 700 707 728 747.5 c 128,-1,33
 756 788 756 788 779 822 c 0,34,35
 786 832 786 832 799 837.5 c 128,-1,36
 812 843 812 843 823 843 c 0,37,38
 844 843 844 843 853 829 c 128,-1,39
 862 815 862 815 852 798 c 0,40,41
 814 742 814 742 767 675 c 128,-1,42
 720 608 720 608 671.5 547 c 128,-1,43
 623 486 623 486 578 441 c 128,-1,44
 533 396 533 396 500 383 c 1,45,-1
 434 43 l 2,0,1
EndSplineSet
EndChar
StartChar: Z
Encoding: 90 90 61
Width: 768
Flags: W
Fore
415 326 m 0,0,1
 364 282 364 282 316 240.5 c 128,-1,2
 268 199 268 199 228.5 166 c 128,-1,3
 189 133 189 133 162 112.5 c 128,-1,4
 135 92 135 92 128 90 c 1,5,6
 158 88 158 88 212.5 90 c 128,-1,7
 267 92 267 92 331 94 c 128,-1,8
 395 96 395 96 462 97.5 c 128,-1,9
 529 99 529 99 583 95.5 c 128,-1,10
 637 92 637 92 671.5 83.5 c 128,-1,11
 706 75 706 75 706 57 c 0,12,13
 706 36 706 36 693.5 27 c 128,-1,14
 681 18 681 18 663 18 c 0,15,16
 561 23 561 23 486 26 c 128,-1,17
 411 29 411 29 356.5 29.5 c 128,-1,18
 302 30 302 30 264.5 29 c 128,-1,19
 227 28 227 28 201 26.5 c 128,-1,20
 175 25 175 25 157 24 c 128,-1,21
 139 23 139 23 123 23 c 0,22,23
 112 23 112 23 100 24 c 128,-1,24
 88 25 88 25 78 28.5 c 128,-1,25
 68 32 68 32 61.5 38.5 c 128,-1,26
 55 45 55 45 55 56 c 0,27,28
 55 75 55 75 94.5 119 c 128,-1,29
 134 163 134 163 194.5 220 c 128,-1,30
 255 277 255 277 327 339 c 128,-1,31
 399 401 399 401 465 456 c 0,32,33
 509 493 509 493 553.5 532 c 128,-1,34
 598 571 598 571 641 610 c 128,-1,35
 684 649 684 649 723.5 687 c 128,-1,36
 763 725 763 725 797 758 c 1,37,38
 743 751 743 751 701 748.5 c 128,-1,39
 659 746 659 746 616 746 c 0,40,41
 550 746 550 746 486 746.5 c 128,-1,42
 422 747 422 747 371.5 752.5 c 128,-1,43
 321 758 321 758 290 769.5 c 128,-1,44
 259 781 259 781 259 802 c 0,45,46
 259 819 259 819 273.5 826 c 128,-1,47
 288 833 288 833 305 833 c 0,48,49
 333 833 333 833 359 830.5 c 128,-1,50
 385 828 385 828 415 825 c 128,-1,51
 445 822 445 822 483 819.5 c 128,-1,52
 521 817 521 817 573 816.5 c 128,-1,53
 625 816 625 816 693.5 818.5 c 128,-1,54
 762 821 762 821 853 828 c 0,55,56
 868 828 868 828 885 820 c 128,-1,57
 902 812 902 812 902 792 c 0,58,59
 902 779 902 779 879.5 751.5 c 128,-1,60
 857 724 857 724 819.5 686.5 c 128,-1,61
 782 649 782 649 732 604 c 128,-1,62
 682 559 682 559 628 511.5 c 128,-1,63
 574 464 574 464 519 416.5 c 128,-1,64
 464 369 464 369 415 326 c 0,0,1
EndSplineSet
EndChar
StartChar: bracketleft
Encoding: 91 91 62
Width: 334
Flags: W
Fore
441 805 m 0,0,1
 408 806 408 806 386 807 c 128,-1,2
 364 808 364 808 348 808 c 128,-1,3
 332 808 332 808 321 807.5 c 128,-1,4
 310 807 310 807 299 807 c 1,5,6
 279 700 279 700 255 575 c 128,-1,7
 231 450 231 450 205.5 325.5 c 128,-1,8
 180 201 180 201 155 87.5 c 128,-1,9
 130 -26 130 -26 109 -110 c 1,10,11
 129 -114 129 -114 148.5 -113.5 c 128,-1,12
 168 -113 168 -113 187 -110.5 c 128,-1,13
 225 -105.5 l 128,-1,14
 244 -103 244 -103 264 -103 c 0,15,16
 275 -103 275 -103 281.5 -111 c 128,-1,17
 288 -119 288 -119 288 -130 c 0,18,19
 288 -149 288 -149 271.5 -159.5 c 128,-1,20
 255 -170 255 -170 230.5 -174.5 c 128,-1,21
 206 -179 206 -179 178.5 -180 c 128,-1,22
 151 -181 151 -181 130 -181 c 0,23,24
 113 -181 113 -181 93 -180 c 128,-1,25
 73 -179 73 -179 55.5 -176.5 c 128,-1,26
 38 -174 38 -174 26.5 -169 c 128,-1,27
 15 -164 15 -164 15 -156 c 1,28,29
 39 -73 39 -73 65.5 28.5 c 128,-1,30
 92 130 92 130 120.5 255 c 128,-1,31
 149 380 149 380 177.5 529.5 c 128,-1,32
 206 679 206 679 233 858 c 0,33,34
 234 867 234 867 252 871 c 128,-1,35
 270 875 270 875 292.5 876.5 c 128,-1,36
 315 878 315 878 337 877.5 c 128,-1,37
 359 877 359 877 369 877 c 0,38,39
 390 877 390 877 411.5 876 c 128,-1,40
 433 875 433 875 449.5 871.5 c 128,-1,41
 466 868 466 868 476.5 861.5 c 128,-1,42
 487 855 487 855 487 844 c 0,43,44
 487 829 487 829 475.5 817 c 128,-1,45
 464 805 464 805 441 805 c 0,0,1
EndSplineSet
EndChar
StartChar: backslash
Encoding: 92 92 63
Width: 571
Flags: W
Fore
479 66 m 2,0,1
 482 37 482 37 472.5 23 c 128,-1,2
 463 9 463 9 449.5 7.5 c 128,-1,3
 436 6 436 6 423.5 15.5 c 128,-1,4
 411 25 411 25 410 42 c 0,5,6
 382 292 382 292 362.5 463.5 c 128,-1,7
 343 635 343 635 330.5 746 c 128,-1,8
 318 857 318 857 311 917.5 c 128,-1,9
 304 978 304 978 301 1006 c 128,-1,10
 298 1034 298 1034 297.5 1039.5 c 128,-1,11
 297 1044 297 1044 297 1045 c 0,12,13
 297 1065 297 1065 309.5 1076.5 c 128,-1,14
 322 1088 322 1088 338 1088 c 0,15,16
 349 1088 349 1088 357 1081 c 128,-1,17
 365 1074 365 1074 367 1057 c 2,18,-1
 479 66 l 2,0,1
EndSplineSet
EndChar
StartChar: bracketright
Encoding: 93 93 64
Width: 334
Flags: W
Fore
217 805 m 0,0,1
 200 805 200 805 192.5 812 c 128,-1,2
 185 819 185 819 185 830 c 0,3,4
 185 846 185 846 196.5 855.5 c 128,-1,5
 208 865 208 865 227.5 869.5 c 128,-1,6
 247 874 247 874 273.5 875.5 c 128,-1,7
 300 877 300 877 331 877 c 0,8,9
 338 877 338 877 357 877 c 128,-1,10
 376 877 376 877 396 876 c 128,-1,11
 416 875 416 875 432 871 c 128,-1,12
 448 867 448 867 448 860 c 2,13,-1
 448 858 l 1,14,15
 399 675 399 675 363.5 525.5 c 128,-1,16
 328 376 328 376 303.5 253 c 128,-1,17
 279 130 279 130 262.5 30 c 128,-1,18
 246 -70 246 -70 235 -154 c 0,19,20
 234 -163 234 -163 220.5 -167.5 c 128,-1,21
 207 -172 207 -172 188.5 -174.5 c 128,-1,22
 170 -177 170 -177 151.5 -177 c 128,-1,23
 133 -177 133 -177 121 -177 c 0,24,25
 102 -177 102 -177 76.5 -177 c 128,-1,26
 51 -177 51 -177 28.5 -174.5 c 128,-1,27
 6 -172 6 -172 -10 -165.5 c 128,-1,28
 -26 -159 -26 -159 -26 -146 c 0,29,30
 -26 -123 -26 -123 -14.5 -112 c 128,-1,31
 -3 -101 -3 -101 11 -101 c 0,32,33
 27 -101 27 -101 45.5 -103.5 c 128,-1,34
 64 -106 64 -106 83.5 -108.5 c 128,-1,35
 103 -111 103 -111 123 -111.5 c 128,-1,36
 143 -112 143 -112 162 -108 c 1,37,38
 194 75 194 75 243 306 c 128,-1,39
 292 537 292 537 361 807 c 1,40,41
 325 807 325 807 301.5 807 c 128,-1,42
 278 807 278 807 262 807 c 128,-1,43
 246 807 246 807 236 806.5 c 128,-1,44
 226 806 226 806 217 805 c 0,0,1
EndSplineSet
EndChar
StartChar: asciicircum
Encoding: 94 94 65
Width: 717
Flags: W
Fore
609 269 m 0,0,1
 605 307 605 307 600.5 358 c 128,-1,2
 596 409 596 409 590.5 462 c 128,-1,3
 585 515 585 515 578.5 566.5 c 128,-1,4
 572 618 572 618 564 658.5 c 128,-1,5
 556 699 556 699 546.5 724 c 128,-1,6
 537 749 537 749 526 749 c 0,7,8
 518 749 518 749 502 730 c 128,-1,9
 486 711 486 711 464.5 680 c 128,-1,10
 443 649 443 649 418 608.5 c 128,-1,11
 393 568 393 568 367.5 525 c 128,-1,12
 342 482 342 482 317.5 440 c 128,-1,13
 293 398 293 398 273.5 363 c 128,-1,14
 254 328 254 328 240 303.5 c 128,-1,15
 226 279 226 279 222 271 c 0,16,17
 213 255 213 255 198 249.5 c 128,-1,18
 183 244 183 244 171 247.5 c 128,-1,19
 159 251 159 251 154.5 264 c 128,-1,20
 150 277 150 277 161 298 c 0,21,22
 245 449 245 449 306 551 c 128,-1,23
 367 653 367 653 411 715 c 128,-1,24
 455 777 455 777 484 803.5 c 128,-1,25
 513 830 513 830 531 830 c 0,26,27
 556 829 556 829 577 797 c 128,-1,28
 598 765 598 765 614 715 c 128,-1,29
 630 665 630 665 641.5 604.5 c 128,-1,30
 653 544 653 544 660.5 485.5 c 128,-1,31
 668 427 668 427 671.5 377.5 c 128,-1,32
 675 328 675 328 675 301 c 0,33,34
 675 270 675 270 662.5 256 c 128,-1,35
 650 242 650 242 637 242 c 0,36,37
 627 242 627 242 619 249 c 128,-1,38
 611 256 611 256 609 269 c 0,0,1
EndSplineSet
EndChar
StartChar: underscore
Encoding: 95 95 66
Width: 1026
Flags: W
Fore
983 48 m 0,0,1
 999 48 999 48 1004.5 38 c 128,-1,2
 1010 28 1010 28 1006 15.5 c 128,-1,3
 1002 3 1002 3 991.5 -8 c 128,-1,4
 981 -19 981 -19 966 -20 c 0,5,6
 929 -20 929 -20 893.5 -19.5 c 128,-1,7
 858 -19 858 -19 815.5 -19 c 128,-1,8
 773 -19 773 -19 718.5 -18.5 c 128,-1,9
 664 -18 664 -18 589 -18 c 0,10,11
 542 -18 542 -18 497 -18.5 c 128,-1,12
 452 -19 452 -19 391.5 -19 c 128,-1,13
 331 -19 331 -19 247 -18 c 128,-1,14
 163 -17 163 -17 38 -14 c 0,15,16
 19 -14 19 -14 13.5 -2.5 c 128,-1,17
 8 9 8 9 11.5 22 c 128,-1,18
 15 35 15 35 26.5 45 c 128,-1,19
 38 55 38 55 53 52 c 1,20,21
 142 48 142 48 203 46.5 c 128,-1,22
 264 45 264 45 317 45 c 0,23,24
 377 45 377 45 458 46 c 128,-1,25
 539 47 539 47 628.5 48 c 128,-1,26
 718 49 718 49 810 49 c 128,-1,27
 902 49 902 49 983 48 c 0,0,1
EndSplineSet
EndChar
StartChar: grave
Encoding: 96 96 67
Width: 369
Flags: W
Fore
437 612 m 0,0,1
 446 600 446 600 442.5 586 c 128,-1,2
 439 572 439 572 428.5 563 c 128,-1,3
 418 554 418 554 403.5 553.5 c 128,-1,4
 389 553 389 553 375 569 c 2,5,-1
 217 767 l 2,6,7
 208 779 208 779 212 792 c 128,-1,8
 216 805 216 805 226 813.5 c 128,-1,9
 236 822 236 822 250.5 823 c 128,-1,10
 265 824 265 824 277 812 c 0,11,12
 292 793 292 793 307.5 773.5 c 128,-1,13
 323 754 323 754 341.5 731 c 128,-1,14
 360 708 360 708 383.5 679 c 128,-1,15
 407 650 407 650 437 612 c 0,0,1
EndSplineSet
EndChar
StartChar: a
Encoding: 97 97 68
Width: 680
Flags: W
Fore
570 376 m 1,0,1
 570 411 570 411 558.5 438.5 c 128,-1,2
 547 466 547 466 528 485 c 128,-1,3
 509 504 509 504 484.5 514 c 128,-1,4
 460 524 460 524 433 524 c 0,5,6
 376 524 376 524 332 496.5 c 128,-1,7
 288 469 288 469 257.5 431.5 c 128,-1,8
 227 394 227 394 209.5 356.5 c 128,-1,9
 192 319 192 319 188 298 c 0,10,11
 180 260 180 260 179 218.5 c 128,-1,12
 178 177 178 177 192 142.5 c 128,-1,13
 206 108 206 108 238 85.5 c 128,-1,14
 270 63 270 63 328 63 c 0,15,16
 387 63 387 63 439.5 88 c 128,-1,17
 492 113 492 113 518 162 c 1,18,-1
 570 376 l 1,0,1
515 57 m 1,19,20
 475 22 475 22 424 7 c 128,-1,21
 373 -8 373 -8 316 -8 c 0,22,23
 235 -8 235 -8 189.5 20.5 c 128,-1,24
 144 49 144 49 123.5 94 c 128,-1,25
 103 139 103 139 103.5 193.5 c 128,-1,26
 104 248 104 248 116 300 c 0,27,28
 121 323 121 323 132.5 353 c 128,-1,29
 144 383 144 383 163.5 415 c 128,-1,30
 183 447 183 447 210 478.5 c 128,-1,31
 237 510 237 510 272 534.5 c 128,-1,32
 307 559 307 559 350 574 c 128,-1,33
 393 589 393 589 445 589 c 0,34,35
 500 589 500 589 538 573 c 128,-1,36
 576 557 576 557 606 512 c 1,37,38
 614 535 614 535 621.5 549 c 128,-1,39
 629 563 629 563 636 570 c 128,-1,40
 643 577 643 577 650 579 c 128,-1,41
 657 581 657 581 665 581 c 0,42,43
 680 581 680 581 692 573 c 128,-1,44
 704 565 704 565 704 554 c 0,45,46
 704 549 704 549 700.5 539 c 128,-1,47
 697 529 697 529 691.5 516 c 128,-1,48
 686 503 686 503 680.5 488.5 c 128,-1,49
 675 474 675 474 671 459 c 0,50,51
 651 377 651 377 637.5 320 c 128,-1,52
 624 263 624 263 615 224.5 c 128,-1,53
 606 186 606 186 601 163.5 c 128,-1,54
 596 141 596 141 593.5 128.5 c 128,-1,55
 591 116 591 116 590.5 111 c 128,-1,56
 590 106 590 106 590 103 c 0,57,58
 590 88 590 88 600 81 c 128,-1,59
 610 74 610 74 621.5 69.5 c 128,-1,60
 633 65 633 65 643 60 c 128,-1,61
 653 55 653 55 653 42 c 0,62,63
 653 20 653 20 632.5 10 c 128,-1,64
 612 0 612 0 586.5 1.5 c 128,-1,65
 561 3 561 3 539.5 16.5 c 128,-1,66
 518 30 518 30 515 57 c 1,19,20
EndSplineSet
Substitution: 0 65534 'L026' uni0E38
Substitution: 0 65534 'L026' uni0E38
EndChar
StartChar: b
Encoding: 98 98 69
Width: 680
Flags: W
Fore
159 145 m 1,0,1
 197 106 197 106 246.5 84 c 128,-1,2
 296 62 296 62 348 59.5 c 128,-1,3
 400 57 400 57 449.5 73.5 c 128,-1,4
 499 90 499 90 538 128 c 128,-1,5
 577 166 577 166 600.5 226 c 128,-1,6
 624 286 624 286 624 369 c 0,7,8
 624 421 624 421 602 455 c 128,-1,9
 580 489 580 489 544 507 c 128,-1,10
 508 525 508 525 463.5 528 c 128,-1,11
 419 531 419 531 374 522 c 128,-1,12
 329 513 329 513 288 492.5 c 128,-1,13
 247 472 247 472 219 443 c 1,14,-1
 159 145 l 1,0,1
234 532 m 1,15,16
 275 562 275 562 325.5 579.5 c 128,-1,17
 376 597 376 597 427.5 600 c 128,-1,18
 479 603 479 603 527.5 591.5 c 128,-1,19
 576 580 576 580 614 554 c 128,-1,20
 652 528 652 528 675 486 c 128,-1,21
 698 444 698 444 698 386 c 0,22,23
 698 281 698 281 666 206 c 128,-1,24
 634 131 634 131 583 82.5 c 128,-1,25
 532 34 532 34 468.5 12 c 128,-1,26
 405 -10 405 -10 341 -8.5 c 128,-1,27
 277 -7 277 -7 219.5 17.5 c 128,-1,28
 162 42 162 42 124 87 c 1,29,30
 99 47 99 47 74 28.5 c 128,-1,31
 49 10 49 10 28 10 c 0,32,33
 0 10 0 10 0 32 c 0,34,35
 0 44 0 44 8.5 53 c 128,-1,36
 17 62 17 62 28 71 c 128,-1,37
 39 80 39 80 49 90 c 128,-1,38
 59 100 59 100 63 112 c 0,39,40
 83 181 83 181 104.5 268.5 c 128,-1,41
 126 356 126 356 148.5 467 c 128,-1,42
 171 578 171 578 194 714.5 c 128,-1,43
 217 851 217 851 241 1019 c 1,44,45
 248 1031 248 1031 260 1038.5 c 128,-1,46
 272 1046 272 1046 284 1046.5 c 128,-1,47
 296 1047 296 1047 304.5 1040 c 128,-1,48
 313 1033 313 1033 313 1016 c 1,49,50
 295 903 295 903 282.5 824.5 c 128,-1,51
 270 746 270 746 261.5 693.5 c 128,-1,52
 253 641 253 641 248 610.5 c 128,-1,53
 243 580 243 580 240 564 c 128,-1,54
 237 548 237 548 236 542 c 128,-1,55
 235 536 235 536 234 532 c 1,15,16
EndSplineSet
Substitution: 0 65534 'L026' uni0E39
Substitution: 0 65534 'L026' uni0E39
EndChar
StartChar: c
Encoding: 99 99 70
Width: 614
Flags: W
Fore
592 435 m 1,0,1
 578 489 578 489 538 514 c 128,-1,2
 498 539 498 539 442 539 c 0,3,4
 375 539 375 539 322 510.5 c 128,-1,5
 269 482 269 482 232.5 437 c 128,-1,6
 196 392 196 392 176.5 337.5 c 128,-1,7
 157 283 157 283 157 231 c 0,8,9
 157 198 157 198 167 169.5 c 128,-1,10
 177 141 177 141 198.5 120 c 128,-1,11
 220 99 220 99 254 87 c 128,-1,12
 288 75 288 75 337 75 c 0,13,14
 396 75 396 75 437.5 95 c 128,-1,15
 479 115 479 115 507 141 c 128,-1,16
 535 167 535 167 550 192 c 128,-1,17
 565 217 565 217 570 226 c 1,18,19
 575 241 575 241 587.5 250.5 c 128,-1,20
 600 260 600 260 612.5 262 c 128,-1,21
 625 264 625 264 634.5 257.5 c 128,-1,22
 644 251 644 251 644 235 c 0,23,24
 644 223 644 223 635.5 201.5 c 128,-1,25
 627 180 627 180 609.5 154 c 128,-1,26
 592 128 592 128 565.5 101 c 128,-1,27
 539 74 539 74 503 52 c 128,-1,28
 467 30 467 30 421 16 c 128,-1,29
 375 2 375 2 320 2 c 0,30,31
 255 2 255 2 209.5 19 c 128,-1,32
 164 36 164 36 135.5 65 c 128,-1,33
 107 94 107 94 94.5 132.5 c 128,-1,34
 82 171 82 171 82 215 c 0,35,36
 82 254 82 254 92.5 298.5 c 128,-1,37
 103 343 103 343 123.5 387 c 128,-1,38
 144 431 144 431 175.5 472 c 128,-1,39
 207 513 207 513 248.5 544 c 128,-1,40
 290 575 290 575 342.5 593.5 c 128,-1,41
 395 612 395 612 458 612 c 0,42,43
 497 612 497 612 535.5 601 c 128,-1,44
 574 590 574 590 604.5 569 c 128,-1,45
 635 548 635 548 654 516.5 c 128,-1,46
 673 485 673 485 673 445 c 0,47,48
 673 434 673 434 664.5 424 c 128,-1,49
 656 414 656 414 643.5 410.5 c 128,-1,50
 631 407 631 407 617 411.5 c 128,-1,51
 603 416 603 416 592 435 c 1,0,1
EndSplineSet
Substitution: 0 65534 'L026' uni0E3A
Substitution: 0 65534 'L026' uni0E3A
EndChar
StartChar: d
Encoding: 100 100 71
Width: 680
Flags: W
Fore
632 422 m 1,0,1
 620 449 620 449 599.5 468.5 c 128,-1,2
 579 488 579 488 554.5 500 c 128,-1,3
 530 512 530 512 503 518 c 128,-1,4
 476 524 476 524 451 524 c 0,5,6
 407 524 407 524 358 507.5 c 128,-1,7
 309 491 309 491 267 456 c 128,-1,8
 225 421 225 421 197.5 366.5 c 128,-1,9
 170 312 170 312 170 236 c 0,10,11
 170 187 170 187 189.5 154.5 c 128,-1,12
 209 122 209 122 237 102.5 c 128,-1,13
 265 83 265 83 296 75 c 128,-1,14
 327 67 327 67 350 67 c 0,15,16
 385 67 385 67 423.5 77.5 c 128,-1,17
 462 88 462 88 495 103.5 c 128,-1,18
 528 119 528 119 551 136 c 128,-1,19
 574 153 574 153 579 165 c 1,20,-1
 632 422 l 1,0,1
653 534 m 1,21,22
 657 552 657 552 665.5 586 c 128,-1,23
 674 620 674 620 685 662 c 128,-1,24
 696 704 696 704 708.5 752.5 c 128,-1,25
 721 801 721 801 734 848 c 128,-1,26
 747 895 747 895 758.5 938.5 c 128,-1,27
 770 982 770 982 780 1016 c 0,28,29
 785 1031 785 1031 798.5 1039.5 c 128,-1,30
 812 1048 812 1048 824 1048 c 256,31,32
 836 1048 836 1048 845 1041.5 c 128,-1,33
 854 1035 854 1035 854 1019 c 1,34,35
 804 843 804 843 769 704 c 128,-1,36
 734 565 734 565 710.5 455.5 c 128,-1,37
 687 346 687 346 673 262 c 128,-1,38
 659 178 659 178 651 112 c 1,39,40
 648 103 648 103 652 94.5 c 128,-1,41
 656 86 656 86 661.5 78 c 128,-1,42
 672.5 62 l 128,-1,43
 678 54 678 54 678 45 c 0,44,45
 678 28 678 28 666 19 c 128,-1,46
 654 10 654 10 637 10 c 0,47,48
 629 10 629 10 617.5 14 c 128,-1,49
 606 18 606 18 595.5 25.5 c 128,-1,50
 585 33 585 33 577 45 c 128,-1,51
 569 57 569 57 568 74 c 1,52,53
 550 50 550 50 519.5 34.5 c 128,-1,54
 489 19 489 19 454 10 c 128,-1,55
 419 1 419 1 384.5 -2.5 c 128,-1,56
 350 -6 350 -6 325 -6 c 0,57,58
 292 -6 292 -6 252 5 c 128,-1,59
 212 16 212 16 177 42 c 128,-1,60
 142 68 142 68 118.5 111 c 128,-1,61
 95 154 95 154 95 218 c 0,62,63
 95 306 95 306 128.5 376.5 c 128,-1,64
 162 447 162 447 214.5 496.5 c 128,-1,65
 267 546 267 546 331 572.5 c 128,-1,66
 395 599 395 599 456 599 c 0,67,68
 511 599 511 599 564.5 586 c 128,-1,69
 618 573 618 573 653 534 c 1,21,22
EndSplineSet
EndChar
StartChar: e
Encoding: 101 101 72
Width: 676
Flags: W
Fore
177 299 m 1,0,1
 173 284 173 284 171.5 263.5 c 128,-1,2
 170 243 170 243 170 229 c 0,3,4
 170 196 170 196 180 168 c 128,-1,5
 190 140 190 140 212.5 119.5 c 128,-1,6
 235 99 235 99 270 87 c 128,-1,7
 305 75 305 75 355 75 c 0,8,9
 380 75 380 75 409.5 82.5 c 128,-1,10
 439 90 439 90 468.5 104.5 c 128,-1,11
 498 119 498 119 525 141 c 128,-1,12
 552 163 552 163 573 192 c 1,13,14
 586 200 586 200 598 200 c 128,-1,15
 610 200 610 200 617.5 192.5 c 128,-1,16
 625 185 625 185 626 171 c 128,-1,17
 627 157 627 157 619 139 c 1,18,-1
 619 140 l 1,19,20
 595 108 595 108 562.5 82.5 c 128,-1,21
 530 57 530 57 493.5 38.5 c 128,-1,22
 457 20 457 20 417.5 10 c 128,-1,23
 378 0 378 0 340 0 c 0,24,25
 275 0 275 0 228.5 18.5 c 128,-1,26
 182 37 182 37 152 68.5 c 128,-1,27
 122 100 122 100 108 142 c 128,-1,28
 94 184 94 184 94 230 c 0,29,30
 94 295 94 295 120.5 362.5 c 128,-1,31
 147 430 147 430 196 485.5 c 128,-1,32
 245 541 245 541 314 576.5 c 128,-1,33
 383 612 383 612 468 612 c 0,34,35
 525 612 525 612 568.5 594.5 c 128,-1,36
 612 577 612 577 641 549.5 c 128,-1,37
 670 522 670 522 685 487 c 128,-1,38
 700 452 700 452 700 417 c 0,39,40
 700 360 700 360 679.5 330.5 c 128,-1,41
 659 301 659 301 631 301 c 2,42,-1
 177 299 l 1,0,1
195 362 m 1,43,44
 196 363 196 363 228 364 c 128,-1,45
 260 365 260 365 307.5 365 c 128,-1,46
 355 365 355 365 410.5 365 c 128,-1,47
 466 365 466 365 513.5 364 c 128,-1,48
 561 363 561 363 592.5 361.5 c 128,-1,49
 624 360 624 360 624 358 c 1,50,51
 628 383 628 383 622.5 414.5 c 128,-1,52
 617 446 617 446 597.5 474 c 128,-1,53
 578 502 578 502 542.5 520.5 c 128,-1,54
 507 539 507 539 450 539 c 0,55,56
 406 539 406 539 367.5 525 c 128,-1,57
 329 511 329 511 296.5 486.5 c 128,-1,58
 264 462 264 462 238.5 430 c 128,-1,59
 213 398 213 398 195 362 c 1,43,44
EndSplineSet
EndChar
StartChar: f
Encoding: 102 102 73
Width: 369
Flags: W
Fore
134 483 m 256,0,1
 151 486 151 486 162 487.5 c 128,-1,2
 173 489 173 489 181 489 c 128,-1,3
 189 489 189 489 195.5 489 c 128,-1,4
 202 489 202 489 210 489 c 1,5,6
 228 576 228 576 249 647.5 c 128,-1,7
 270 719 270 719 298.5 769 c 128,-1,8
 327 819 327 819 366.5 846.5 c 128,-1,9
 406 874 406 874 462 874 c 0,10,11
 488 874 488 874 510 867 c 128,-1,12
 532 860 532 860 547.5 846 c 128,-1,13
 563 832 563 832 571.5 812 c 128,-1,14
 580 792 580 792 579 767 c 0,15,16
 579 755 579 755 578 736.5 c 128,-1,17
 577 718 577 718 573 700 c 128,-1,18
 569 682 569 682 559.5 669 c 128,-1,19
 550 656 550 656 533 655 c 0,20,21
 519 654 519 654 508 663 c 128,-1,22
 497 672 497 672 497 686 c 1,23,24
 502 709 502 709 502.5 730 c 128,-1,25
 503 751 503 751 497.5 766.5 c 128,-1,26
 492 782 492 782 480 791.5 c 128,-1,27
 468 801 468 801 447 801 c 0,28,29
 417 801 417 801 394.5 780 c 128,-1,30
 372 759 372 759 354 719.5 c 128,-1,31
 336 680 336 680 320.5 622 c 128,-1,32
 305 564 305 564 289 491 c 1,33,34
 340 491 340 491 370 485 c 128,-1,35
 400 479 400 479 400 455 c 0,36,37
 400 435 400 435 387 426.5 c 128,-1,38
 374 418 374 418 356 418 c 0,39,40
 342 418 342 418 326 418 c 128,-1,41
 310 418 310 418 273 419 c 1,42,-1
 202 34 l 1,43,44
 187 0 187 0 155 0 c 256,45,46
 123 0 123 0 123 25 c 1,47,-1
 196 415 l 1,48,49
 173 414 173 414 158.5 413.5 c 128,-1,50
 144 413 144 413 136 413 c 0,51,52
 116 413 116 413 107 423 c 128,-1,53
 98 433 98 433 98.5 445 c 128,-1,54
 99 457 99 457 108 468.5 c 128,-1,55
 117 480 117 480 134 483 c 256,0,1
EndSplineSet
EndChar
StartChar: g
Encoding: 103 103 74
Width: 631
Flags: W
Fore
565 497 m 1,0,1
 557 515 557 515 541 528.5 c 128,-1,2
 525 542 525 542 504 550 c 128,-1,3
 483 558 483 558 459 562 c 128,-1,4
 435 566 435 566 411 566 c 0,5,6
 367 566 367 566 327.5 547.5 c 128,-1,7
 288 529 288 529 256 499 c 128,-1,8
 224 469 224 469 201.5 430 c 128,-1,9
 179 391 179 391 170 350 c 0,10,11
 156 286 156 286 163 240.5 c 128,-1,12
 170 195 170 195 191 166.5 c 128,-1,13
 212 138 212 138 244 125.5 c 128,-1,14
 276 113 276 113 313 115 c 0,15,16
 349 116 349 116 385.5 126 c 128,-1,17
 422 136 422 136 452 151.5 c 128,-1,18
 482 167 482 167 502.5 186 c 128,-1,19
 523 205 523 205 528 226 c 2,20,-1
 565 497 l 1,0,1
530 129 m 1,21,22
 499 103 499 103 466 86.5 c 128,-1,23
 433 70 433 70 400.5 61 c 128,-1,24
 368 52 368 52 337 49 c 128,-1,25
 306 46 306 46 280 46 c 0,26,27
 226 46 226 46 186 71.5 c 128,-1,28
 146 97 146 97 121.5 140 c 128,-1,29
 97 183 97 183 90 237.5 c 128,-1,30
 83 292 83 292 95 350 c 0,31,32
 107 404 107 404 136.5 456.5 c 128,-1,33
 166 509 166 509 209.5 550.5 c 128,-1,34
 253 592 253 592 308.5 617.5 c 128,-1,35
 364 643 364 643 427 643 c 0,36,37
 469 643 469 643 508 630.5 c 128,-1,38
 547 618 547 618 575 589 c 1,39,40
 582 600 582 600 589.5 615.5 c 128,-1,41
 597 631 597 631 602 643 c 1,42,43
 613 661 613 661 625 669 c 128,-1,44
 637 677 637 677 649 677 c 0,45,46
 658 677 658 677 665.5 672.5 c 128,-1,47
 673 668 673 668 677 661 c 128,-1,48
 681 654 681 654 680 644 c 128,-1,49
 679 634 679 634 671 624 c 1,50,-1
 672 626 l 1,51,-1
 639 562 l 1,52,53
 636 547 636 547 633 525 c 128,-1,54
 630 503 630 503 625.5 454 c 128,-1,55
 621 405 621 405 613.5 318.5 c 128,-1,56
 606 232 606 232 594 88 c 0,57,58
 576 -75 576 -75 495 -171.5 c 128,-1,59
 414 -268 414 -268 275 -280 c 0,60,61
 217 -281 217 -281 176 -265.5 c 128,-1,62
 135 -250 135 -250 109.5 -225 c 128,-1,63
 84 -200 84 -200 72.5 -169 c 128,-1,64
 61 -138 61 -138 63 -108 c 0,65,66
 64 -87 64 -87 74 -74.5 c 128,-1,67
 84 -62 84 -62 96 -60 c 128,-1,68
 108 -58 108 -58 118 -66.5 c 128,-1,69
 128 -75 128 -75 129 -96 c 0,70,71
 129 -132 129 -132 141 -156 c 128,-1,72
 153 -180 153 -180 173.5 -194.5 c 128,-1,73
 194 -209 194 -209 220.5 -214 c 128,-1,74
 247 -219 247 -219 276 -217 c 0,75,76
 349 -211 349 -211 398 -174.5 c 128,-1,77
 447 -138 447 -138 476 -86.5 c 128,-1,78
 505 -35 505 -35 517.5 23 c 128,-1,79
 530 81 530 81 530 129 c 1,21,22
EndSplineSet
EndChar
StartChar: h
Encoding: 104 104 75
Width: 649
Flags: W
Fore
300 516 m 1,0,1
 316 534 316 534 338 551.5 c 128,-1,2
 360 569 360 569 386 582.5 c 128,-1,3
 412 596 412 596 442 604 c 128,-1,4
 472 612 472 612 505 610 c 0,5,6
 549 607 549 607 581.5 592 c 128,-1,7
 614 577 614 577 635.5 552.5 c 128,-1,8
 657 528 657 528 667 496.5 c 128,-1,9
 677 465 677 465 676 430 c 0,10,11
 673 359 673 359 656 259.5 c 128,-1,12
 639 160 639 160 611 26 c 0,13,14
 609 18 609 18 598.5 13.5 c 128,-1,15
 588 9 588 9 575 9.5 c 128,-1,16
 562 10 562 10 552 16 c 128,-1,17
 542 22 542 22 542 35 c 1,18,19
 567 153 567 153 585 242.5 c 128,-1,20
 603 332 603 332 605 395 c 0,21,22
 608 470 608 470 581.5 505 c 128,-1,23
 555 540 555 540 495 541 c 0,24,25
 437 542 437 542 394 514 c 128,-1,26
 351 486 351 486 319.5 440 c 128,-1,27
 288 394 288 394 266.5 337 c 128,-1,28
 245 280 245 280 230.5 222 c 128,-1,29
 216 164 216 164 206.5 111 c 128,-1,30
 197 58 197 58 189 22 c 0,31,32
 187 10 187 10 176.5 5.5 c 128,-1,33
 166 1 166 1 154 2 c 128,-1,34
 142 3 142 3 131.5 8 c 128,-1,35
 121 13 121 13 118 20 c 1,36,37
 161 256 161 256 214.5 479 c 128,-1,38
 268 702 268 702 336 925 c 0,39,40
 339 935 339 935 350.5 940.5 c 128,-1,41
 362 946 362 946 375 946 c 128,-1,42
 388 946 388 946 398.5 939.5 c 128,-1,43
 409 933 409 933 408 919 c 2,44,45
 407.5 916.5 l 130,-1,46
 407 914 407 914 404 903 c 128,-1,47
 401 892 401 892 394.5 867.5 c 128,-1,48
 388 843 388 843 376 798 c 128,-1,49
 364 753 364 753 345.5 684.5 c 128,-1,50
 327 616 327 616 300 516 c 1,0,1
EndSplineSet
EndChar
StartChar: i
Encoding: 105 105 76
Width: 334
Flags: W
Fore
427 853 m 256,0,1
 448 841 448 841 457.5 816.5 c 128,-1,2
 467 792 467 792 457 768 c 0,3,4
 446 743 446 743 429.5 721.5 c 128,-1,5
 413 700 413 700 392 687 c 128,-1,6
 371 674 371 674 346 671.5 c 128,-1,7
 321 669 321 669 294 682 c 0,8,9
 276 694 276 694 268 710.5 c 128,-1,10
 260 727 260 727 259.5 745 c 128,-1,11
 259 763 259 763 265.5 781 c 128,-1,12
 272 799 272 799 284 814 c 0,13,14
 294 825 294 825 309.5 837 c 128,-1,15
 325 849 325 849 344 856.5 c 128,-1,16
 363 864 363 864 384.5 864.5 c 128,-1,17
 406 865 406 865 427 853 c 256,0,1
222 44 m 2,18,19
 216 25 216 25 203 16 c 128,-1,20
 190 7 190 7 178 7 c 0,21,22
 164 7 164 7 155.5 16.5 c 128,-1,23
 147 26 147 26 147 43 c 1,24,-1
 270 566 l 2,25,26
 274 585 274 585 287 594 c 128,-1,27
 300 603 300 603 314 603 c 0,28,29
 327 603 327 603 337 594 c 128,-1,30
 347 585 347 585 343 566 c 2,31,-1
 222 44 l 2,18,19
EndSplineSet
EndChar
StartChar: j
Encoding: 106 106 77
Width: 334
Flags: W
Fore
237 39 m 2,0,1
 222 -40 222 -40 193 -98.5 c 128,-1,2
 164 -157 164 -157 127 -195 c 128,-1,3
 90 -233 90 -233 50 -252 c 128,-1,4
 10 -271 10 -271 -26 -271 c 0,5,6
 -76 -271 -76 -271 -109.5 -237 c 128,-1,7
 -143 -203 -143 -203 -143 -135 c 0,8,9
 -143 -100 -143 -100 -130 -82.5 c 128,-1,10
 -117 -65 -117 -65 -97 -65 c 0,11,12
 -61 -65 -61 -65 -61 -100 c 0,13,14
 -61 -122 -61 -122 -61 -139 c 128,-1,15
 -61 -156 -61 -156 -57.5 -168 c 128,-1,16
 -54 -180 -54 -180 -44.5 -186.5 c 128,-1,17
 -35 -193 -35 -193 -17 -193 c 0,18,19
 3 -193 3 -193 29.5 -179 c 128,-1,20
 56 -165 56 -165 81.5 -136.5 c 128,-1,21
 107 -108 107 -108 129 -64 c 128,-1,22
 151 -20 151 -20 162 39 c 2,23,-1
 283 560 l 2,24,25
 286 577 286 577 299.5 587 c 128,-1,26
 313 597 313 597 327 597 c 0,27,28
 344 597 344 597 351 586.5 c 128,-1,29
 358 576 358 576 358 560 c 1,30,-1
 237 39 l 2,0,1
472 791 m 0,31,32
 472 770 472 770 462 748.5 c 128,-1,33
 452 727 452 727 435 709.5 c 128,-1,34
 418 692 418 692 396.5 681.5 c 128,-1,35
 375 671 375 671 352 671 c 0,36,37
 334 671 334 671 319 678 c 128,-1,38
 304 685 304 685 293.5 696.5 c 128,-1,39
 283 708 283 708 277.5 722.5 c 128,-1,40
 272 737 272 737 272 751 c 0,41,42
 272 771 272 771 282.5 792 c 128,-1,43
 293 813 293 813 310.5 830 c 128,-1,44
 328 847 328 847 350.5 858 c 128,-1,45
 373 869 373 869 396 869 c 0,46,47
 429 869 429 869 450.5 845 c 128,-1,48
 472 821 472 821 472 791 c 0,31,32
EndSplineSet
EndChar
StartChar: k
Encoding: 107 107 78
Width: 618
Flags: W
Fore
275 332 m 1,0,-1
 574 52 l 1,1,2
 582 38 582 38 581 28 c 128,-1,3
 580 18 580 18 573 12 c 128,-1,4
 566 6 566 6 555 3 c 128,-1,5
 544 0 544 0 532 2 c 1,6,7
 474 54 474 54 433 94 c 128,-1,8
 392 134 392 134 359.5 166 c 128,-1,9
 327 198 327 198 300 223.5 c 128,-1,10
 273 249 273 249 243 273 c 1,11,-1
 192 26 l 2,12,13
 189 17 189 17 178 10 c 128,-1,14
 167 3 167 3 155 1 c 128,-1,15
 143 -1 143 -1 133.5 4.5 c 128,-1,16
 124 10 124 10 124 26 c 1,17,-1
 310 886 l 1,18,19
 324 919 324 919 349 919 c 0,20,21
 363 919 363 919 371 907.5 c 128,-1,22
 379 896 379 896 374 872 c 2,23,-1
 277 412 l 1,24,25
 353 454 353 454 406.5 484 c 128,-1,26
 460 514 460 514 501 537.5 c 128,-1,27
 542 561 542 561 575.5 581 c 128,-1,28
 609 601 609 601 645 624 c 0,29,30
 655 630 655 630 667.5 628 c 128,-1,31
 680 626 680 626 688 617.5 c 128,-1,32
 696 609 696 609 697 596.5 c 128,-1,33
 698 584 698 584 685 570 c 1,34,-1
 275 332 l 1,0,-1
EndSplineSet
EndChar
StartChar: l
Encoding: 108 108 79
Width: 281
Flags: W
Fore
177 45 m 1,0,1
 170 26 170 26 158 18 c 128,-1,2
 146 10 146 10 132 10 c 256,3,4
 118 10 118 10 109 18.5 c 128,-1,5
 100 27 100 27 104 47 c 2,6,-1
 295 975 l 1,7,8
 302 992 302 992 315 1001 c 128,-1,9
 328 1010 328 1010 341 1010 c 0,10,11
 355 1010 355 1010 363.5 1000.5 c 128,-1,12
 372 991 372 991 369 973 c 2,13,-1
 177 45 l 1,0,1
EndSplineSet
EndChar
StartChar: m
Encoding: 109 109 80
Width: 940
Flags: W
Fore
282 495 m 1,0,1
 320 565 320 565 362 591 c 128,-1,2
 404 617 404 617 456 614 c 0,3,4
 479 612 479 612 501 601.5 c 128,-1,5
 523 591 523 591 540.5 572 c 128,-1,6
 558 553 558 553 569 526 c 128,-1,7
 580 499 580 499 581 465 c 1,8,9
 597 500 597 500 615.5 528 c 128,-1,10
 634 556 634 556 655.5 576 c 128,-1,11
 677 596 677 596 704 607 c 128,-1,12
 731 618 731 618 764 618 c 0,13,14
 808 618 808 618 837.5 600.5 c 128,-1,15
 867 583 867 583 884 555.5 c 128,-1,16
 901 528 901 528 906.5 494.5 c 128,-1,17
 912 461 912 461 909 429 c 0,18,19
 898 322 898 322 876.5 225 c 128,-1,20
 855 128 855 128 835 30 c 0,21,22
 833 19 833 19 823.5 11 c 128,-1,23
 814 3 814 3 802.5 0.5 c 128,-1,24
 791 -2 791 -2 781 3 c 128,-1,25
 771 8 771 8 768 22 c 1,26,27
 770 48 770 48 781.5 95.5 c 128,-1,28
 793 143 793 143 806.5 200 c 128,-1,29
 820 257 820 257 831 316.5 c 128,-1,30
 842 376 842 376 842 426 c 0,31,32
 842 454 842 454 837 477.5 c 128,-1,33
 832 501 832 501 821.5 518 c 128,-1,34
 811 535 811 535 794 545 c 128,-1,35
 777 555 777 555 752 555 c 0,36,37
 720 555 720 555 691.5 520.5 c 128,-1,38
 663 486 663 486 639 433.5 c 128,-1,39
 615 381 615 381 595 317 c 128,-1,40
 575 253 575 253 560.5 194.5 c 128,-1,41
 546 136 546 136 537 90 c 128,-1,42
 528 44 528 44 525 27 c 0,43,44
 523 16 523 16 511.5 9.5 c 128,-1,45
 500 3 500 3 487 2 c 128,-1,46
 474 1 474 1 463.5 6.5 c 128,-1,47
 453 12 453 12 453 24 c 0,48,49
 453 35 453 35 458 58 c 128,-1,50
 463 81 463 81 471 112 c 128,-1,51
 479 143 479 143 487.5 179.5 c 128,-1,52
 496 216 496 216 504 254.5 c 128,-1,53
 512 293 512 293 517 331.5 c 128,-1,54
 522 370 522 370 522 405 c 0,55,56
 522 435 522 435 517 461.5 c 128,-1,57
 512 488 512 488 501.5 507.5 c 128,-1,58
 491 527 491 527 474.5 538 c 128,-1,59
 458 549 458 549 436 549 c 0,60,61
 407 549 407 549 379.5 524.5 c 128,-1,62
 352 500 352 500 326 459.5 c 128,-1,63
 300 419 300 419 277.5 366 c 128,-1,64
 255 313 255 313 237 256 c 128,-1,65
 219 199 219 199 206.5 141.5 c 128,-1,66
 194 84 194 84 189 34 c 1,67,68
 186 22 186 22 174 14 c 128,-1,69
 162 6 162 6 149 4.5 c 128,-1,70
 136 3 136 3 125.5 8.5 c 128,-1,71
 115 14 115 14 115 29 c 1,72,73
 115.5 32 l 130,-1,74
 116 35 116 35 118.5 48 c 128,-1,75
 121 61 121 61 126.5 89.5 c 128,-1,76
 132 118 132 118 142.5 169 c 128,-1,77
 153 220 153 220 169 299.5 c 128,-1,78
 185 379 185 379 208 494 c 1,79,80
 208 504 208 504 204.5 512.5 c 128,-1,81
 201 521 201 521 197 529 c 128,-1,82
 193 537 193 537 189.5 545.5 c 128,-1,83
 186 554 186 554 186 563 c 0,84,85
 186 578 186 578 201 590.5 c 128,-1,86
 216 603 216 603 234 603 c 0,87,88
 246 603 246 603 254 593.5 c 128,-1,89
 262 584 262 584 267.5 569 c 128,-1,90
 273 554 273 554 276 534.5 c 128,-1,91
 279 515 279 515 282 495 c 1,0,1
EndSplineSet
EndChar
StartChar: n
Encoding: 110 110 81
Width: 635
Flags: W
Fore
277 499 m 1,0,1
 297 532 297 532 319.5 553 c 128,-1,2
 342 574 342 574 366 586 c 128,-1,3
 390 598 390 598 416.5 602.5 c 128,-1,4
 443 607 443 607 472 607 c 0,5,6
 537 607 537 607 572 582.5 c 128,-1,7
 607 558 607 558 620 518 c 128,-1,8
 633 478 633 478 629.5 427 c 128,-1,9
 626 376 626 376 614 324 c 2,10,-1
 553 34 l 1,11,12
 547 22 547 22 535.5 14.5 c 128,-1,13
 524 7 524 7 512 5.5 c 128,-1,14
 500 4 500 4 491.5 9 c 128,-1,15
 483 14 483 14 483 27 c 0,16,17
 483 28 483 28 483.5 30 c 128,-1,18
 484 32 484 32 485.5 40.5 c 128,-1,19
 487 49 487 49 490.5 67.5 c 128,-1,20
 494 86 494 86 501 119 c 128,-1,21
 508 152 508 152 518.5 202.5 c 128,-1,22
 529 253 529 253 544 327 c 1,23,-1
 544 326 l 1,24,25
 549 360 549 360 554.5 397.5 c 128,-1,26
 560 435 560 435 554.5 467 c 128,-1,27
 549 499 549 499 526.5 520 c 128,-1,28
 504 541 504 541 453 541 c 0,29,30
 411 541 411 541 377 510 c 128,-1,31
 343 479 343 479 316 430.5 c 128,-1,32
 289 382 289 382 268 322.5 c 128,-1,33
 247 263 247 263 232 207 c 128,-1,34
 217 151 217 151 207 105 c 128,-1,35
 197 59 197 59 191 36 c 0,36,37
 187 22 187 22 175 13.5 c 128,-1,38
 163 5 163 5 150 3.5 c 128,-1,39
 137 2 137 2 126.5 8.5 c 128,-1,40
 116 15 116 15 116 32 c 1,41,42
 116.5 35 l 130,-1,43
 117 38 117 38 119.5 50.5 c 128,-1,44
 122 63 122 63 127.5 89.5 c 128,-1,45
 133 116 133 116 143 165.5 c 128,-1,46
 153 215 153 215 168.5 290 c 128,-1,47
 184 365 184 365 207 475 c 0,48,49
 208 482 208 482 203 493 c 128,-1,50
 198 504 198 504 192 516 c 128,-1,51
 186 528 186 528 181 540 c 128,-1,52
 176 552 176 552 176 561 c 0,53,54
 176 576 176 576 191 588.5 c 128,-1,55
 206 601 206 601 223 601 c 0,56,57
 237 601 237 601 246.5 592 c 128,-1,58
 256 583 256 583 262 568.5 c 128,-1,59
 268 554 268 554 271.5 535.5 c 128,-1,60
 275 517 275 517 277 499 c 1,0,1
EndSplineSet
EndChar
StartChar: o
Encoding: 111 111 82
Width: 680
Flags: W
Fore
698 296 m 0,0,1
 681 215 681 215 645 158.5 c 128,-1,2
 609 102 609 102 560 66.5 c 128,-1,3
 511 31 511 31 451.5 15.5 c 128,-1,4
 392 0 392 0 328 0 c 0,5,6
 280 0 280 0 230.5 14 c 128,-1,7
 181 28 181 28 144 61 c 128,-1,8
 107 94 107 94 90.5 148.5 c 128,-1,9
 74 203 74 203 91 285 c 0,10,11
 107 363 107 363 140 424 c 128,-1,12
 173 485 173 485 220 528 c 128,-1,13
 267 571 267 571 329 593.5 c 128,-1,14
 391 616 391 616 466 616 c 0,15,16
 524 616 524 616 574.5 596 c 128,-1,17
 625 576 625 576 658 536 c 128,-1,18
 691 496 691 496 703 436 c 128,-1,19
 715 376 715 376 698 296 c 0,0,1
622 280 m 0,20,21
 637 351 637 351 628.5 401.5 c 128,-1,22
 620 452 620 452 595 484.5 c 128,-1,23
 570 517 570 517 532.5 532 c 128,-1,24
 495 547 495 547 452 547 c 0,25,26
 340 547 340 547 267 483 c 128,-1,27
 194 419 194 419 165 285 c 0,28,29
 152 224 152 224 164 183.5 c 128,-1,30
 176 143 176 143 203.5 119 c 128,-1,31
 231 95 231 95 268 85 c 128,-1,32
 305 75 305 75 343 75 c 0,33,34
 392 75 392 75 437 86 c 128,-1,35
 482 97 482 97 519 121 c 128,-1,36
 556 145 556 145 583 184 c 128,-1,37
 610 223 610 223 622 280 c 0,20,21
EndSplineSet
EndChar
StartChar: p
Encoding: 112 112 83
Width: 705
Flags: W
Fore
225 415 m 1,0,1
 210 358 210 358 201.5 320.5 c 128,-1,2
 193 283 193 283 188.5 257 c 128,-1,3
 184 231 184 231 181.5 212.5 c 128,-1,4
 179 194 179 194 176 175 c 1,5,6
 187 150 187 150 207.5 132 c 128,-1,7
 228 114 228 114 253 102 c 128,-1,8
 278 90 278 90 305.5 84 c 128,-1,9
 333 78 333 78 359 77 c 0,10,11
 409 80 409 80 453.5 96.5 c 128,-1,12
 498 113 498 113 534 143 c 128,-1,13
 570 173 570 173 596 216 c 128,-1,14
 622 259 622 259 635 316 c 0,15,16
 646 374 646 374 632.5 416.5 c 128,-1,17
 619 459 619 459 591.5 487 c 128,-1,18
 564 515 564 515 527 528 c 128,-1,19
 490 541 490 541 454 541 c 0,20,21
 419 541 419 541 383.5 532 c 128,-1,22
 348 523 348 523 317.5 506.5 c 128,-1,23
 287 490 287 490 262.5 466.5 c 128,-1,24
 238 443 238 443 225 415 c 1,0,1
345 2 m 0,25,26
 320 2 320 2 295 3.5 c 128,-1,27
 270 5 270 5 245 12 c 128,-1,28
 220 19 220 19 197 31.5 c 128,-1,29
 174 44 174 44 153 67 c 1,30,-1
 135 -3 l 2,31,32
 125 -41 125 -41 110.5 -96 c 128,-1,33
 96 -151 96 -151 76 -226 c 0,34,35
 73 -240 73 -240 61 -247.5 c 128,-1,36
 49 -255 49 -255 36 -256 c 128,-1,37
 23 -257 23 -257 12.5 -250.5 c 128,-1,38
 2 -244 2 -244 2 -228 c 1,39,40
 47 -61 47 -61 76.5 58 c 128,-1,41
 106 177 106 177 123.5 259.5 c 128,-1,42
 141 342 141 342 148 395 c 128,-1,43
 155 448 155 448 155 483 c 0,44,45
 155 500 155 500 148 513 c 128,-1,46
 141 526 141 526 123 540 c 1,47,48
 114 561 114 561 128 576 c 128,-1,49
 142 591 142 591 162 591 c 0,50,51
 181 591 181 591 193 581 c 128,-1,52
 205 571 205 571 212.5 558.5 c 128,-1,53
 220 546 220 546 223.5 533.5 c 128,-1,54
 227 521 227 521 228 515 c 1,55,56
 295 566 295 566 360 589 c 128,-1,57
 425 612 425 612 478 612 c 0,58,59
 511 612 511 612 552.5 602.5 c 128,-1,60
 594 593 594 593 630.5 568 c 128,-1,61
 667 543 667 543 692 501 c 128,-1,62
 717 459 717 459 717 394 c 0,63,64
 717 298 717 298 684.5 225 c 128,-1,65
 652 152 652 152 599 102.5 c 128,-1,66
 546 53 546 53 479.5 28 c 128,-1,67
 413 3 413 3 345 2 c 0,25,26
EndSplineSet
EndChar
StartChar: q
Encoding: 113 113 84
Width: 723
Flags: W
Fore
621 395 m 1,0,1
 621 427 621 427 604.5 453.5 c 128,-1,2
 588 480 588 480 561.5 499.5 c 128,-1,3
 535 519 535 519 502 529.5 c 128,-1,4
 469 540 469 540 435 540 c 0,5,6
 392 540 392 540 344 521 c 128,-1,7
 296 502 296 502 255.5 464 c 128,-1,8
 215 426 215 426 188 369 c 128,-1,9
 161 312 161 312 161 235 c 0,10,11
 161 156 161 156 212 116 c 128,-1,12
 263 76 263 76 354 76 c 0,13,14
 410 76 410 76 465.5 97.5 c 128,-1,15
 521 119 521 119 563 163 c 1,16,-1
 621 395 l 1,0,1
535 57 m 1,17,18
 482 21 482 21 436.5 11 c 128,-1,19
 391 1 391 1 346 1 c 0,20,21
 291 1 291 1 243.5 14.5 c 128,-1,22
 196 28 196 28 161.5 55 c 128,-1,23
 127 82 127 82 107 122 c 128,-1,24
 87 162 87 162 87 216 c 0,25,26
 87 324 87 324 122 400 c 128,-1,27
 157 476 157 476 211.5 523.5 c 128,-1,28
 266 571 266 571 333.5 592 c 128,-1,29
 401 613 401 613 467 612 c 0,30,31
 521 611 521 611 571 585.5 c 128,-1,32
 621 560 621 560 671 503 c 1,33,34
 683 519 683 519 697 532 c 0,35,36
 728 559 728 559 742 566.5 c 128,-1,37
 756 574 756 574 765 574 c 0,38,39
 783 574 783 574 790.5 567 c 128,-1,40
 798 560 798 560 796.5 549.5 c 128,-1,41
 795 539 795 539 785 526.5 c 128,-1,42
 775 514 775 514 759 503 c 0,43,44
 739 486 739 486 723 443 c 128,-1,45
 707 400 707 400 686 334 c 0,46,47
 674 298 674 298 660.5 249.5 c 128,-1,48
 647 201 647 201 630 132 c 128,-1,49
 613 63 613 63 591.5 -29.5 c 128,-1,50
 570 -122 570 -122 543 -246 c 1,51,52
 537 -260 537 -260 525.5 -266 c 128,-1,53
 514 -272 514 -272 503 -272 c 0,54,55
 491 -272 491 -272 481 -264.5 c 128,-1,56
 471 -257 471 -257 471 -244 c 0,57,58
 471 -243 471 -243 471.5 -241 c 128,-1,59
 472 -239 472 -239 473.5 -230 c 128,-1,60
 475 -221 475 -221 479 -203 c 128,-1,61
 483 -185 483 -185 490.5 -151.5 c 128,-1,62
 498 -118 498 -118 508.5 -67.5 c 128,-1,63
 519 -17 519 -17 535 57 c 1,17,18
EndSplineSet
EndChar
StartChar: r
Encoding: 114 114 85
Width: 481
Flags: W
Fore
229 594 m 1,0,1
 228 589 228 589 227 582.5 c 128,-1,2
 226 576 226 576 224 564.5 c 128,-1,3
 222 553 222 553 219 534.5 c 128,-1,4
 216 516 216 516 211 487 c 1,5,6
 232 520 232 520 257.5 543.5 c 128,-1,7
 283 567 283 567 309.5 582 c 128,-1,8
 336 597 336 597 361.5 603.5 c 128,-1,9
 387 610 387 610 408 610 c 0,10,11
 448 609 448 609 474.5 599.5 c 128,-1,12
 501 590 501 590 516 573.5 c 128,-1,13
 531 557 531 557 537 534.5 c 128,-1,14
 543 512 543 512 543 485 c 0,15,16
 543 452 543 452 532.5 422 c 128,-1,17
 522 392 522 392 503.5 368.5 c 128,-1,18
 485 345 485 345 459 331 c 128,-1,19
 433 317 433 317 400 317 c 0,20,21
 382 317 382 317 369.5 322 c 128,-1,22
 357 327 357 327 357 340 c 0,23,24
 358 359 358 359 367 368 c 128,-1,25
 376 377 376 377 388.5 381.5 c 128,-1,26
 401 386 401 386 415.5 389.5 c 128,-1,27
 430 393 430 393 442.5 401 c 128,-1,28
 455 409 455 409 463 425 c 128,-1,29
 471 441 471 441 471 471 c 0,30,31
 471 498 471 498 454 517.5 c 128,-1,32
 437 537 437 537 393 537 c 0,33,34
 359 537 359 537 330 514.5 c 128,-1,35
 301 492 301 492 277 455 c 128,-1,36
 253 418 253 418 234 371 c 128,-1,37
 215 324 215 324 199 274 c 128,-1,38
 183 224 183 224 171 176 c 128,-1,39
 159 128 159 128 150 90 c 2,40,-1
 133 27 l 2,41,42
 128 10 128 10 115 1 c 128,-1,43
 102 -8 102 -8 88 -8 c 256,44,45
 74 -8 74 -8 65 -1.5 c 128,-1,46
 56 5 56 5 56 19 c 0,47,48
 56 37 56 37 65.5 66.5 c 128,-1,49
 75 96 75 96 83 141 c 0,50,51
 98 208 98 208 116.5 317 c 128,-1,52
 135 426 135 426 155 591 c 0,53,54
 159 609 159 609 171 617.5 c 128,-1,55
 183 626 183 626 196 626 c 0,56,57
 210 626 210 626 219.5 618 c 128,-1,58
 229 610 229 610 229 597 c 2,59,-1
 229 594 l 1,0,1
EndSplineSet
EndChar
StartChar: s
Encoding: 115 115 86
Width: 475
Flags: W
Fore
450 456 m 0,0,1
 450 468 450 468 446.5 483 c 128,-1,2
 443 498 443 498 430.5 512 c 128,-1,3
 418 526 418 526 394.5 535.5 c 128,-1,4
 371 545 371 545 331 545 c 0,5,6
 293 545 293 545 268.5 533 c 128,-1,7
 244 521 244 521 229 505 c 128,-1,8
 214 489 214 489 207 473 c 128,-1,9
 200 457 200 457 198 448 c 0,10,11
 192 418 192 418 210 399.5 c 128,-1,12
 228 381 228 381 258.5 367.5 c 128,-1,13
 289 354 289 354 326.5 341.5 c 128,-1,14
 364 329 364 329 396.5 311 c 128,-1,15
 429 293 429 293 451 265.5 c 128,-1,16
 473 238 473 238 473 194 c 0,17,18
 473 164 473 164 459 129.5 c 128,-1,19
 445 95 445 95 416 65.5 c 128,-1,20
 387 36 387 36 343 17 c 128,-1,21
 299 -2 299 -2 238 -2 c 0,22,23
 192 -2 192 -2 157 12.5 c 128,-1,24
 122 27 122 27 98 50.5 c 128,-1,25
 74 74 74 74 61.5 103 c 128,-1,26
 49 132 49 132 49 162 c 0,27,28
 51 191 51 191 64.5 203 c 128,-1,29
 78 215 78 215 92 214 c 0,30,31
 108 213 108 213 116 202.5 c 128,-1,32
 124 192 124 192 129.5 176 c 128,-1,33
 135 160 135 160 141.5 141.5 c 128,-1,34
 148 123 148 123 160.5 107.5 c 128,-1,35
 173 92 173 92 195 81.5 c 128,-1,36
 217 71 217 71 254 71 c 0,37,38
 305 71 305 71 333.5 86 c 128,-1,39
 362 101 362 101 376.5 119.5 c 128,-1,40
 391 138 391 138 394.5 155 c 128,-1,41
 398 172 398 172 398 175 c 0,42,43
 398 206 398 206 377.5 225.5 c 128,-1,44
 357 245 357 245 326 258.5 c 128,-1,45
 295 272 295 272 259.5 283.5 c 128,-1,46
 224 295 224 295 193 311 c 128,-1,47
 162 327 162 327 141.5 351 c 128,-1,48
 121 375 121 375 121 414 c 0,49,50
 121 460 121 460 139 499 c 128,-1,51
 157 538 157 538 188.5 565.5 c 128,-1,52
 220 593 220 593 262.5 607 c 128,-1,53
 305 621 305 621 354 618 c 0,54,55
 392 616 392 616 423.5 603.5 c 128,-1,56
 455 591 455 591 477.5 572 c 128,-1,57
 500 553 500 553 513 528.5 c 128,-1,58
 526 504 526 504 526 477 c 0,59,60
 526 446 526 446 514 431 c 128,-1,61
 502 416 502 416 487.5 414.5 c 128,-1,62
 473 413 473 413 461 424 c 128,-1,63
 449 435 449 435 450 456 c 0,0,1
EndSplineSet
EndChar
StartChar: t
Encoding: 116 116 87
Width: 420
Flags: W
Fore
167 553 m 0,0,1
 184 553 184 553 207 549 c 128,-1,2
 230 545 230 545 241 541 c 1,3,4
 259 596 259 596 273 649 c 128,-1,5
 287 702 287 702 299 744.5 c 128,-1,6
 311 787 311 787 322.5 816.5 c 128,-1,7
 334 846 334 846 347 854 c 1,8,9
 352 859 352 859 362.5 861 c 128,-1,10
 373 863 373 863 383.5 861 c 128,-1,11
 394 859 394 859 401 853 c 128,-1,12
 408 847 408 847 406 836 c 0,13,14
 398 799 398 799 389.5 769.5 c 128,-1,15
 381 740 381 740 370 707 c 128,-1,16
 359 674 359 674 345.5 633 c 128,-1,17
 332 592 332 592 315 532 c 1,18,19
 355 532 355 532 379.5 528.5 c 128,-1,20
 404 525 404 525 417.5 520 c 128,-1,21
 431 515 431 515 435 508.5 c 128,-1,22
 439 502 439 502 439 496 c 0,23,24
 439 476 439 476 420.5 468.5 c 128,-1,25
 402 461 402 461 378 459.5 c 128,-1,26
 354 458 354 458 330.5 459 c 128,-1,27
 307 460 307 460 298 457 c 1,28,29
 273 341 273 341 260 270.5 c 128,-1,30
 247 200 247 200 247 162 c 0,31,32
 247 92 247 92 298 92 c 0,33,34
 319 92 319 92 331.5 109 c 128,-1,35
 344 126 344 126 354.5 147 c 128,-1,36
 365 168 365 168 376.5 185 c 128,-1,37
 388 202 388 202 406 202 c 0,38,39
 420 202 420 202 433.5 189.5 c 128,-1,40
 447 177 447 177 440 159 c 0,41,42
 423 114 423 114 404.5 86 c 128,-1,43
 386 58 386 58 365 42.5 c 128,-1,44
 344 27 344 27 321.5 21 c 128,-1,45
 299 15 299 15 274 15 c 0,46,47
 217 15 217 15 192.5 52 c 128,-1,48
 168 89 168 89 168 157 c 0,49,50
 168 214 168 214 182.5 293 c 128,-1,51
 197 372 197 372 223 464 c 1,52,53
 212 467 212 467 195.5 469.5 c 128,-1,54
 179 472 179 472 163 476.5 c 128,-1,55
 147 481 147 481 135 489 c 128,-1,56
 123 497 123 497 122 511 c 0,57,58
 120 537 120 537 133.5 545 c 128,-1,59
 147 553 147 553 167 553 c 0,0,1
EndSplineSet
EndChar
StartChar: u
Encoding: 117 117 88
Width: 623
Flags: W
Fore
473 106 m 1,0,1
 453 74 453 74 429.5 54 c 128,-1,2
 406 34 406 34 380.5 22.5 c 128,-1,3
 355 11 355 11 328 6.5 c 128,-1,4
 301 2 301 2 273 2 c 0,5,6
 189 0 189 0 152 37.5 c 128,-1,7
 115 75 115 75 115 156 c 1,8,-1
 193 574 l 2,9,10
 195 585 195 585 206 591.5 c 128,-1,11
 217 598 217 598 229 599.5 c 128,-1,12
 241 601 241 601 251 597 c 128,-1,13
 261 593 261 593 261 581 c 1,14,15
 244 496 244 496 232 435 c 128,-1,16
 220 374 220 374 212 331 c 128,-1,17
 204 288 204 288 199 260 c 128,-1,18
 194 232 194 232 191.5 214.5 c 128,-1,19
 189 197 189 197 188 186.5 c 128,-1,20
 187 176 187 176 187 168 c 0,21,22
 187 145 187 145 189.5 127 c 128,-1,23
 192 109 192 109 202.5 96 c 128,-1,24
 213 83 213 83 234 75.5 c 128,-1,25
 255 68 255 68 292 67 c 0,26,27
 343 65 343 65 382 95.5 c 128,-1,28
 421 126 421 126 449.5 174 c 128,-1,29
 478 222 478 222 497 281 c 128,-1,30
 516 340 516 340 528.5 397 c 128,-1,31
 541 454 541 454 546.5 501 c 128,-1,32
 552 548 552 548 554 572 c 0,33,34
 556 589 556 589 570.5 598 c 128,-1,35
 585 607 585 607 599 607 c 0,36,37
 616 607 616 607 622.5 595.5 c 128,-1,38
 629 584 629 584 629 570 c 1,39,40
 608 458 608 458 593.5 380.5 c 128,-1,41
 579 303 579 303 569 252 c 128,-1,42
 559 201 559 201 553.5 173 c 128,-1,43
 548 145 548 145 545 131 c 128,-1,44
 542 117 542 117 541.5 114 c 128,-1,45
 541 111 541 111 541 110 c 0,46,47
 541 93 541 93 549.5 75 c 128,-1,48
 558 57 558 57 558 43 c 0,49,50
 558 9 558 9 525 9 c 0,51,52
 516 9 516 9 507 12 c 128,-1,53
 498 15 498 15 491.5 25.5 c 128,-1,54
 485 36 485 36 480 55 c 128,-1,55
 475 74 475 74 473 106 c 1,0,1
EndSplineSet
EndChar
StartChar: v
Encoding: 118 118 89
Width: 594
Flags: W
Fore
253 571 m 1,0,1
 255 559 255 559 257 518 c 128,-1,2
 259 477 259 477 262.5 423 c 128,-1,3
 266 369 266 369 271 309.5 c 128,-1,4
 276 250 276 250 282.5 200 c 128,-1,5
 289 150 289 150 297.5 117.5 c 128,-1,6
 306 85 306 85 317 85 c 0,7,8
 326 85 326 85 348.5 119 c 128,-1,9
 371 153 371 153 400.5 205 c 128,-1,10
 430 257 430 257 462 318 c 128,-1,11
 494 379 494 379 522 433 c 128,-1,12
 550 487 550 487 569.5 526 c 128,-1,13
 589 565 589 565 593 572 c 1,14,-1
 593 571 l 1,15,16
 602 590 602 590 614.5 602 c 128,-1,17
 627 614 627 614 641 614 c 0,18,19
 659 614 659 614 666.5 599.5 c 128,-1,20
 674 585 674 585 671 572 c 1,21,22
 655 539 655 539 628 485 c 128,-1,23
 601 431 601 431 567.5 368.5 c 128,-1,24
 534 306 534 306 497.5 242.5 c 128,-1,25
 461 179 461 179 425 128 c 128,-1,26
 389 77 389 77 357 44.5 c 128,-1,27
 325 12 325 12 301 12 c 0,28,29
 267 12 267 12 248.5 53 c 128,-1,30
 230 94 230 94 219 164 c 128,-1,31
 208 234 208 234 199.5 326 c 128,-1,32
 191 418 191 418 178 519 c 0,33,34
 175 552 175 552 183 572.5 c 128,-1,35
 191 593 191 593 204 599.5 c 128,-1,36
 217 606 217 606 231 599 c 128,-1,37
 245 592 245 592 253 571 c 1,0,1
EndSplineSet
EndChar
StartChar: w
Encoding: 119 119 90
Width: 918
Flags: W
Fore
955 581 m 1,0,1
 906 434 906 434 862.5 319 c 128,-1,2
 819 204 819 204 780.5 128.5 c 128,-1,3
 742 53 742 53 707.5 22 c 128,-1,4
 673 -9 673 -9 642 12 c 128,-1,5
 611 33 611 33 583 111.5 c 128,-1,6
 555 190 555 190 528 333 c 1,7,8
 499 253 499 253 463 185.5 c 128,-1,9
 427 118 427 118 389 73.5 c 128,-1,10
 351 29 351 29 315 11.5 c 128,-1,11
 279 -6 279 -6 251 13.5 c 128,-1,12
 223 33 223 33 206 94.5 c 128,-1,13
 189 156 189 156 189 269 c 0,14,15
 189 332 189 332 195 412 c 128,-1,16
 201 492 201 492 215 593 c 0,17,18
 216 603 216 603 224.5 608.5 c 128,-1,19
 233 614 233 614 244 614 c 128,-1,20
 255 614 255 614 266 609 c 128,-1,21
 277 604 277 604 282 594 c 1,22,23
 271 500 271 500 265.5 425.5 c 128,-1,24
 260 351 260 351 260 293 c 0,25,26
 260 206 260 206 268 158 c 128,-1,27
 276 110 276 110 290 93 c 128,-1,28
 304 76 304 76 322.5 86 c 128,-1,29
 341 96 341 96 362 124 c 128,-1,30
 383 152 383 152 405 194.5 c 128,-1,31
 427 237 427 237 449 285 c 128,-1,32
 471 333 471 333 490.5 383 c 128,-1,33
 510 433 510 433 525 476 c 0,34,35
 530 490 530 490 540.5 496 c 128,-1,36
 551 502 551 502 564 502 c 0,37,38
 590 502 590 502 591 478 c 0,39,40
 601 278 601 278 623.5 187.5 c 128,-1,41
 646 97 646 97 682 114 c 128,-1,42
 718 131 718 131 768.5 253.5 c 128,-1,43
 819 376 819 376 887 601 c 0,44,45
 890 609 890 609 899.5 614.5 c 128,-1,46
 909 620 909 620 920 619.5 c 128,-1,47
 931 619 931 619 941.5 610 c 128,-1,48
 952 601 952 601 955 581 c 1,0,1
EndSplineSet
EndChar
StartChar: x
Encoding: 120 120 91
Width: 586
Flags: W
Fore
482 19 m 0,0,1
 449 74 449 74 427.5 112 c 128,-1,2
 406 150 406 150 391.5 177 c 128,-1,3
 377 204 377 204 366.5 224 c 128,-1,4
 356 244 356 244 346 264 c 1,5,6
 300 219 300 219 265 183.5 c 128,-1,7
 230 148 230 148 202 118.5 c 128,-1,8
 174 89 174 89 152.5 64.5 c 128,-1,9
 131 40 131 40 112 17 c 0,10,11
 106 9 106 9 96 6.5 c 128,-1,12
 86 4 86 4 76.5 5.5 c 128,-1,13
 67 7 67 7 60 12.5 c 128,-1,14
 53 18 53 18 53 28 c 0,15,16
 53 41 53 41 68 64 c 128,-1,17
 83 87 83 87 107 115.5 c 128,-1,18
 131 144 131 144 160.5 175 c 128,-1,19
 190 206 190 206 218.5 235.5 c 128,-1,20
 247 265 247 265 271.5 291 c 128,-1,21
 296 317 296 317 311 334 c 1,22,23
 276 390 276 390 250.5 442.5 c 128,-1,24
 225 495 225 495 192 552 c 0,25,26
 178 576 178 576 183.5 592.5 c 128,-1,27
 189 609 189 609 203.5 616 c 128,-1,28
 218 623 218 623 235.5 619 c 128,-1,29
 253 615 253 615 263 596 c 0,30,31
 272 575 272 575 286 549 c 128,-1,32
 300 523 300 523 314.5 495.5 c 128,-1,33
 343.5 440.5 l 128,-1,34
 358 413 358 413 369 388 c 1,35,-1
 557 593 l 1,36,37
 571 602 571 602 584 600.5 c 128,-1,38
 597 599 597 599 605 591 c 128,-1,39
 613 583 613 583 613.5 570.5 c 128,-1,40
 614 558 614 558 604 546 c 0,41,42
 572 505 572 505 518.5 445.5 c 128,-1,43
 465 386 465 386 402 323 c 1,44,45
 419 288 419 288 436.5 255.5 c 128,-1,46
 454 223 454 223 473 190 c 128,-1,47
 492 157 492 157 512 121.5 c 128,-1,48
 532 86 532 86 555 47 c 1,49,50
 558 33 558 33 550.5 21 c 128,-1,51
 543 9 543 9 530.5 3 c 128,-1,52
 518 -3 518 -3 504.5 0 c 128,-1,53
 491 3 491 3 482 19 c 0,0,1
EndSplineSet
EndChar
StartChar: y
Encoding: 121 121 92
Width: 598
Flags: W
Fore
306 49 m 1,0,1
 281 60 281 60 256.5 92.5 c 128,-1,2
 232 125 232 125 211.5 186.5 c 128,-1,3
 191 248 191 248 176 343 c 128,-1,4
 161 438 161 438 157 573 c 0,5,6
 158 588 158 588 168 598 c 128,-1,7
 178 608 178 608 190 609.5 c 128,-1,8
 202 611 202 611 213 603.5 c 128,-1,9
 224 596 224 596 228 578 c 1,10,11
 234 452 234 452 246.5 368 c 128,-1,12
 259 284 259 284 275 231.5 c 128,-1,13
 291 179 291 179 308.5 153 c 128,-1,14
 326 127 326 127 341 118 c 1,15,16
 351 127 351 127 370 154.5 c 128,-1,17
 389 182 389 182 418 236 c 128,-1,18
 447 290 447 290 487.5 374 c 128,-1,19
 528 458 528 458 582 578 c 0,20,21
 591 596 591 596 605.5 604.5 c 128,-1,22
 620 613 620 613 632.5 612 c 128,-1,23
 645 611 645 611 652.5 602 c 128,-1,24
 660 593 660 593 655 575 c 0,25,26
 621 492 621 492 581.5 408 c 128,-1,27
 542 324 542 324 488.5 225.5 c 128,-1,28
 435 127 435 127 363.5 6 c 128,-1,29
 292 -115 292 -115 193 -273 c 1,30,31
 181 -287 181 -287 167.5 -291 c 128,-1,32
 154 -295 154 -295 144 -291.5 c 128,-1,33
 134 -288 134 -288 129.5 -279 c 128,-1,34
 125 -270 125 -270 130 -256 c 2,35,36
 130 -255 130 -255 131 -253 c 128,-1,37
 132 -251 132 -251 137 -243 c 128,-1,38
 142 -235 142 -235 152 -217.5 c 128,-1,39
 162 -200 162 -200 181.5 -167 c 128,-1,40
 201 -134 201 -134 231 -81.5 c 128,-1,41
 261 -29 261 -29 306 49 c 1,0,1
EndSplineSet
EndChar
StartChar: z
Encoding: 122 122 93
Width: 647
Flags: W
Fore
130 50 m 1,0,1
 139 50 139 50 158.5 53 c 128,-1,2
 178 56 178 56 204.5 60 c 128,-1,3
 231 64 231 64 262.5 67 c 128,-1,4
 294 70 294 70 329 70 c 0,5,6
 384 70 384 70 440.5 67 c 128,-1,7
 497 64 497 64 547 56 c 1,8,9
 557 51 557 51 561 42.5 c 128,-1,10
 565 34 565 34 562 25 c 128,-1,11
 559 16 559 16 550.5 8.5 c 128,-1,12
 542 1 542 1 529 0 c 1,13,14
 469 6 469 6 423.5 8.5 c 128,-1,15
 378 11 378 11 342 11 c 0,16,17
 313 11 313 11 285.5 10 c 128,-1,18
 258 9 258 9 229.5 7.5 c 128,-1,19
 201 6 201 6 168.5 5 c 128,-1,20
 136 4 136 4 96 4 c 0,21,22
 91 4 91 4 84 6 c 128,-1,23
 77 8 77 8 70 12.5 c 128,-1,24
 63 17 63 17 58.5 23 c 128,-1,25
 54 29 54 29 54 37 c 0,26,27
 54 53 54 53 73 68 c 0,28,29
 166 143 166 143 247.5 212 c 128,-1,30
 329 281 329 281 396.5 340.5 c 128,-1,31
 464 400 464 400 518 448.5 c 128,-1,32
 572 497 572 497 611 532 c 1,33,34
 582 529 582 529 545 528 c 128,-1,35
 508 527 508 527 469 527 c 0,36,37
 339 527 339 527 273 534.5 c 128,-1,38
 207 542 207 542 207 576 c 0,39,40
 207 589 207 589 218 597.5 c 128,-1,41
 229 606 229 606 246 604 c 0,42,43
 298 596 298 596 346 591 c 128,-1,44
 394 586 394 586 436 586 c 0,45,46
 454 586 454 586 474 587 c 128,-1,47
 494 588 494 588 520 589.5 c 128,-1,48
 546 591 546 591 582 593.5 c 128,-1,49
 618 596 618 596 669 599 c 1,50,51
 688 597 688 597 697.5 590 c 128,-1,52
 707 583 707 583 708.5 573.5 c 128,-1,53
 710 564 710 564 704.5 552 c 128,-1,54
 699 540 699 540 687 530 c 0,55,56
 605 456 605 456 536.5 393.5 c 128,-1,57
 468 331 468 331 403.5 274 c 128,-1,58
 339 217 339 217 273.5 162.5 c 128,-1,59
 208 108 208 108 130 50 c 1,0,1
EndSplineSet
EndChar
StartChar: braceleft
Encoding: 123 123 94
Width: 426
Flags: W
Fore
512 838 m 0,0,1
 470 838 470 838 437.5 822 c 128,-1,2
 405 806 405 806 382 776.5 c 128,-1,3
 359 747 359 747 343.5 705.5 c 128,-1,4
 328 664 328 664 319 613 c 0,5,6
 314 587 314 587 305 552 c 128,-1,7
 296 517 296 517 282.5 480.5 c 128,-1,8
 269 444 269 444 251.5 410.5 c 128,-1,9
 234 377 234 377 213 355 c 1,10,11
 234 322 234 322 236 286 c 128,-1,12
 238 250 238 250 232 209 c 128,-1,13
 226 168 226 168 217.5 120.5 c 128,-1,14
 209 73 209 73 209 17 c 0,15,16
 209 -7 209 -7 213 -34 c 128,-1,17
 217 -61 217 -61 227.5 -83.5 c 128,-1,18
 238 -106 238 -106 255.5 -121 c 128,-1,19
 273 -136 273 -136 299 -136 c 0,20,21
 306 -136 306 -136 314 -136.5 c 128,-1,22
 322 -137 322 -137 329 -139 c 128,-1,23
 336 -141 336 -141 340.5 -146.5 c 128,-1,24
 345 -152 345 -152 345 -161 c 0,25,26
 345 -176 345 -176 331.5 -188 c 128,-1,27
 318 -200 318 -200 296 -200 c 0,28,29
 250 -200 250 -200 220.5 -180 c 128,-1,30
 191 -160 191 -160 174 -130 c 128,-1,31
 157 -100 157 -100 150 -65.5 c 128,-1,32
 143 -31 143 -31 143 -2 c 0,33,34
 143 35 143 35 147.5 68.5 c 128,-1,35
 152 102 152 102 157.5 133 c 128,-1,36
 163 164 163 164 168 191 c 128,-1,37
 173 218 173 218 173 242 c 256,38,39
 173 266 173 266 165 280 c 128,-1,40
 157 294 157 294 148 303.5 c 128,-1,41
 139 313 139 313 131 321.5 c 128,-1,42
 123 330 123 330 123 344 c 0,43,44
 123 361 123 361 135 377.5 c 128,-1,45
 147 394 147 394 170 403 c 0,46,47
 190 410 190 410 204.5 437.5 c 128,-1,48
 219 465 219 465 230.5 501.5 c 128,-1,49
 242 538 242 538 250 577.5 c 128,-1,50
 258 617 258 617 265 648 c 0,51,52
 291 767 291 767 357 831.5 c 128,-1,53
 423 896 423 896 511 899 c 0,54,55
 532 900 532 900 542.5 890.5 c 128,-1,56
 553 881 553 881 553.5 869.5 c 128,-1,57
 554 858 554 858 543.5 848 c 128,-1,58
 533 838 533 838 512 838 c 0,0,1
EndSplineSet
EndChar
StartChar: bar
Encoding: 124 124 95
Width: 285
Flags: W
Fore
363 1209 m 0,0,1
 366 1228 366 1228 377 1236.5 c 128,-1,2
 388 1245 388 1245 400 1245 c 128,-1,3
 412 1245 412 1245 421 1238 c 128,-1,4
 430 1231 430 1231 430 1218 c 0,5,6
 430 1195 430 1195 421 1147.5 c 128,-1,7
 412 1100 412 1100 398.5 1041 c 128,-1,8
 385 982 385 982 370 918 c 128,-1,9
 355 854 355 854 343 798 c 2,10,-1
 300 594 l 2,11,12
 287 534 287 534 274.5 474 c 128,-1,13
 262 414 262 414 248 354 c 0,14,15
 219 225 219 225 202.5 147 c 128,-1,16
 186 69 186 69 174 28 c 128,-1,17
 162 -13 162 -13 151 -26 c 128,-1,18
 140 -39 140 -39 123 -38 c 0,19,20
 109 -37 109 -37 105 -20 c 128,-1,21
 101 -3 101 -3 106 10 c 1,22,23
 135 142 135 142 160 254 c 128,-1,24
 185 366 185 366 207 465.5 c 128,-1,25
 229 565 229 565 248 655.5 c 128,-1,26
 267 746 267 746 286 835.5 c 128,-1,27
 305 925 305 925 323.5 1016.5 c 128,-1,28
 342 1108 342 1108 363 1209 c 0,0,1
EndSplineSet
EndChar
StartChar: braceright
Encoding: 125 125 96
Width: 426
Flags: W
Fore
304 899 m 0,0,1
 352 899 352 899 383.5 878.5 c 128,-1,2
 415 858 415 858 432 826.5 c 128,-1,3
 449 795 449 795 452.5 756 c 128,-1,4
 456 717 456 717 449 680 c 0,5,6
 435 615 435 615 423.5 552.5 c 128,-1,7
 412 490 412 490 412 448 c 0,8,9
 412 421 412 421 419.5 409.5 c 128,-1,10
 427 398 427 398 436 392.5 c 128,-1,11
 445 387 445 387 452.5 382 c 128,-1,12
 460 377 460 377 460 363 c 0,13,14
 460 348 460 348 448.5 332 c 128,-1,15
 437 316 437 316 418 307 c 1,16,17
 401 302 401 302 388.5 287 c 128,-1,18
 376 272 376 272 367 254.5 c 128,-1,19
 358 237 358 237 352.5 219 c 128,-1,20
 347 201 347 201 345 190 c 0,21,22
 338 159 338 159 328 118 c 128,-1,23
 318 77 318 77 302.5 33.5 c 128,-1,24
 287 -10 287 -10 264.5 -51.5 c 128,-1,25
 242 -93 242 -93 211 -126 c 128,-1,26
 180 -159 180 -159 139 -179.5 c 128,-1,27
 98 -200 98 -200 45 -200 c 0,28,29
 29 -200 29 -200 21.5 -191.5 c 128,-1,30
 14 -183 14 -183 14 -173 c 0,31,32
 14 -159 14 -159 26.5 -147 c 128,-1,33
 39 -135 39 -135 64 -135 c 0,34,35
 94 -135 94 -135 118.5 -123 c 128,-1,36
 143 -111 143 -111 163 -91 c 128,-1,37
 183 -71 183 -71 199.5 -45.5 c 128,-1,38
 216 -20 216 -20 228 7 c 0,39,40
 256 69 256 69 273 150 c 0,41,42
 286 194 286 194 294.5 226.5 c 128,-1,43
 303 259 303 259 313 283 c 128,-1,44
 323 307 323 307 336 323.5 c 128,-1,45
 349 340 349 340 370 354 c 1,46,47
 359 371 359 371 355 394 c 128,-1,48
 351 417 351 417 351 444 c 0,49,50
 351 489 351 489 357 527.5 c 128,-1,51
 363 566 363 566 369.5 600 c 128,-1,52
 376 634 376 634 382 663 c 128,-1,53
 388 692 388 692 388 718 c 0,54,55
 388 746 388 746 383.5 767.5 c 128,-1,56
 379 789 379 789 366.5 804 c 128,-1,57
 354 819 354 819 332 827.5 c 128,-1,58
 310 836 310 836 276 838 c 0,59,60
 269 838 269 838 260.5 837.5 c 128,-1,61
 252 837 252 837 245 838 c 128,-1,62
 238 839 238 839 233.5 842.5 c 128,-1,63
 229 846 229 846 229 855 c 0,64,65
 229 871 229 871 236.5 880 c 128,-1,66
 244 889 244 889 255.5 893.5 c 128,-1,67
 267 898 267 898 280 898.5 c 128,-1,68
 293 899 293 899 304 899 c 0,0,1
EndSplineSet
EndChar
StartChar: asciitilde
Encoding: 126 126 97
Width: 555
Flags: W
Fore
178 496 m 0,0,1
 219 548 219 548 280 553 c 0,2,3
 306 555 306 555 336 549 c 128,-1,4
 366 543 366 543 390 533 c 0,5,6
 403 528 403 528 419 523.5 c 128,-1,7
 435 519 435 519 451 517 c 128,-1,8
 467 515 467 515 481.5 518 c 128,-1,9
 496 521 496 521 508 531 c 0,10,11
 543 554 543 554 560 536 c 1,12,13
 572 516 572 516 561.5 500.5 c 128,-1,14
 551 485 551 485 531.5 474.5 c 128,-1,15
 512 464 512 464 489 458.5 c 128,-1,16
 466 453 466 453 454 453 c 0,17,18
 430 453 430 453 401 460.5 c 128,-1,19
 372 468 372 468 350 476 c 0,20,21
 336 481 336 481 323 484 c 128,-1,22
 310 487 310 487 293 491 c 0,23,24
 281 493 281 493 262.5 486.5 c 128,-1,25
 244 480 244 480 227 463 c 0,26,27
 197 439 197 439 178 457 c 0,28,29
 159 476 159 476 178 496 c 0,0,1
EndSplineSet
EndChar
StartChar: Euro
Encoding: 8364 8364 98
Width: 989
Flags: W
Fore
123 316 m 2,0,1
 99 316 99 316 89.5 327.5 c 128,-1,2
 80 339 80 339 84 353 c 0,3,4
 86 367 86 367 100.5 378 c 128,-1,5
 115 389 115 389 138 391 c 2,6,-1
 208 396 l 1,7,8
 210 416 210 416 214 437.5 c 128,-1,9
 218 459 218 459 223 480 c 0,10,11
 229 509 229 509 236 536 c 128,-1,12
 243 563 243 563 254 589 c 1,13,14
 235 589 235 589 217 590 c 128,-1,15
 199 591 199 591 181 591 c 0,16,17
 157 591 157 591 148 603 c 128,-1,18
 139 615 139 615 142 629 c 256,19,20
 145 643 145 643 159 655.5 c 128,-1,21
 173 668 173 668 197 668 c 2,22,-1
 294 666 l 1,23,24
 331 747 331 747 387.5 810 c 128,-1,25
 444 873 444 873 513 916 c 128,-1,26
 582 959 582 959 661 981.5 c 128,-1,27
 740 1004 740 1004 822 1004 c 0,28,29
 893 1004 893 1004 969 985 c 128,-1,30
 1045 966 1045 966 1115 925 c 0,31,32
 1128 915 1128 915 1132.5 903.5 c 128,-1,33
 1137 892 1137 892 1135 882 c 0,34,35
 1133 871 1133 871 1126 862.5 c 128,-1,36
 1119 854 1119 854 1110 848.5 c 128,-1,37
 1101 843 1101 843 1090 842.5 c 128,-1,38
 1079 842 1079 842 1069 847 c 0,39,40
 1003 885 1003 885 937 905.5 c 128,-1,41
 871 926 871 926 803 926 c 0,42,43
 736 926 736 926 673 908.5 c 128,-1,44
 610 891 610 891 550 854 c 0,45,46
 493 820 493 820 449.5 773.5 c 128,-1,47
 406 727 406 727 371 666 c 1,48,-1
 855 662 l 2,49,50
 878 662 878 662 887.5 649.5 c 128,-1,51
 897 637 897 637 894 623 c 256,52,53
 891 609 891 609 876.5 597 c 128,-1,54
 862 585 862 585 839 585 c 2,55,-1
 331 589 l 1,56,57
 320 561 320 561 311 530 c 128,-1,58
 302 499 302 499 295 466 c 0,59,60
 291 449 291 449 287.5 429 c 128,-1,61
 284 409 284 409 283 395 c 1,62,-1
 801 399 l 1,63,64
 821 396 821 396 830 385 c 128,-1,65
 839 374 839 374 836 360 c 256,66,67
 833 346 833 346 819.5 335 c 128,-1,68
 806 324 806 324 783 324 c 2,69,-1
 290 318 l 1,70,71
 303 252 303 252 339 204.5 c 128,-1,72
 375 157 375 157 427 127 c 128,-1,73
 479 97 479 97 543 83 c 128,-1,74
 607 69 607 69 675 69 c 0,75,76
 738 69 738 69 801.5 81.5 c 128,-1,77
 865 94 865 94 917 122 c 0,78,79
 931 128 931 128 941 121 c 128,-1,80
 951 114 951 114 955 102 c 128,-1,81
 959 90 959 90 956.5 77.5 c 128,-1,82
 954 65 954 65 942 60 c 1,83,-1
 943 60 l 1,84,85
 877 30 877 30 800.5 14 c 128,-1,86
 724 -2 724 -2 646 -2 c 0,87,88
 569 -2 569 -2 496 15.5 c 128,-1,89
 423 33 423 33 364 71.5 c 128,-1,90
 305 110 305 110 265 170 c 128,-1,91
 225 230 225 230 216 316 c 1,92,-1
 123 316 l 2,0,1
EndSplineSet
EndChar
StartChar: quotesinglbase
Encoding: 8218 8218 99
Width: 258
Flags: W
Fore
55 -185 m 0,0,1
 42 -194 42 -194 30 -194 c 128,-1,2
 18 -194 18 -194 11.5 -188.5 c 128,-1,3
 5 -183 5 -183 4.5 -173 c 128,-1,4
 4 -163 4 -163 15 -151 c 0,5,6
 35 -133 35 -133 51.5 -117.5 c 128,-1,7
 68 -102 68 -102 82.5 -88 c 128,-1,8
 97 -74 97 -74 111 -59 c 128,-1,9
 125 -44 125 -44 140 -26 c 1,10,11
 135 -27 135 -27 131 -27 c 128,-1,12
 127 -27 127 -27 122 -27 c 0,13,14
 88 -27 88 -27 65 -4.5 c 128,-1,15
 42 18 42 18 51 61 c 0,16,17
 61 91 61 91 89.5 117.5 c 128,-1,18
 118 144 118 144 157 147 c 0,19,20
 177 148 177 148 192.5 141 c 128,-1,21
 208 134 208 134 218.5 122 c 128,-1,22
 229 110 229 110 233.5 94.5 c 128,-1,23
 238 79 238 79 237 63 c 0,24,25
 231 30 231 30 211.5 -6.5 c 128,-1,26
 192 -43 192 -43 165.5 -77 c 128,-1,27
 139 -111 139 -111 109.5 -139.5 c 128,-1,28
 80 -168 80 -168 55 -185 c 0,0,1
109 62 m 0,29,30
 105 47 105 47 112 36 c 128,-1,31
 119 25 119 25 134 27 c 0,32,33
 152 31 152 31 161 40.5 c 128,-1,34
 170 50 170 50 175 61 c 0,35,36
 179 70 179 70 170.5 80 c 128,-1,37
 162 90 162 90 148 90 c 0,38,39
 136 90 136 90 124 83 c 128,-1,40
 112 76 112 76 109 62 c 0,29,30
EndSplineSet
EndChar
StartChar: florin
Encoding: 402 402 100
Width: 782
Flags: W
Fore
859 885 m 0,0,1
 825 893 825 893 802 893 c 0,2,3
 753 893 753 893 711 868.5 c 128,-1,4
 669 844 669 844 634.5 801 c 128,-1,5
 600 758 600 758 573 700.5 c 128,-1,6
 546 643 546 643 525 576 c 1,7,-1
 681 576 l 2,8,9
 714 576 714 576 710 546 c 0,10,11
 705 515 705 515 668 515 c 2,12,-1
 509 515 l 1,13,14
 477 382 477 382 444 285.5 c 128,-1,15
 411 189 411 189 377.5 121.5 c 128,-1,16
 344 54 344 54 309.5 12 c 128,-1,17
 275 -30 275 -30 241.5 -54 c 128,-1,18
 208 -78 208 -78 174.5 -87 c 128,-1,19
 141 -96 141 -96 110 -98 c 0,20,21
 96 -98 96 -98 79.5 -97.5 c 128,-1,22
 63 -97 63 -97 48 -95 c 0,23,24
 16 -89 16 -89 5 -74 c 0,25,26
 -12 -47 -12 -47 19 -26 c 1,27,-1
 18 -28 l 1,28,29
 27 -20 27 -20 40 -16 c 0,30,31
 45 -14 45 -14 50 -16 c 0,32,33
 67 -24 67 -24 78 -27 c 128,-1,34
 89 -30 89 -30 101 -30 c 0,35,36
 107 -30 107 -30 114 -29.5 c 128,-1,37
 121 -29 121 -29 131 -28 c 0,38,39
 223 -24 223 -24 299.5 111 c 128,-1,40
 376 246 376 246 434 515 c 1,41,-1
 296 515 l 2,42,43
 269 512 269 512 269 541 c 0,44,45
 272 575 272 575 307 576 c 2,46,-1
 454 576 l 1,47,48
 475 651 475 651 506.5 721 c 128,-1,49
 538 791 538 791 582 844 c 128,-1,50
 626 897 626 897 683 929 c 128,-1,51
 740 961 740 961 812 961 c 0,52,53
 833 961 833 961 853 958 c 128,-1,54
 873 955 873 955 893 950 c 1,55,56
 919 938 919 938 906 907 c 0,57,58
 899 890 899 890 886.5 885 c 128,-1,59
 874 880 874 880 859 885 c 0,0,1
EndSplineSet
EndChar
StartChar: quotedblbase
Encoding: 8222 8222 101
Width: 549
Flags: W
Fore
61 -182 m 0,0,1
 49 -195 49 -195 35 -196 c 128,-1,2
 21 -197 21 -197 13 -188 c 256,3,4
 5 -179 5 -179 9.5 -164.5 c 128,-1,5
 14 -150 14 -150 39 -129 c 0,6,7
 61 -109 61 -109 90 -81 c 128,-1,8
 119 -53 119 -53 142 -26 c 1,9,10
 137 -27 137 -27 133 -27 c 128,-1,11
 129 -27 129 -27 124 -27 c 0,12,13
 107 -27 107 -27 92 -21.5 c 128,-1,14
 77 -16 77 -16 66.5 -4.5 c 128,-1,15
 56 7 56 7 51.5 23.5 c 128,-1,16
 47 40 47 40 52 61 c 0,17,18
 62 91 62 91 90.5 117.5 c 128,-1,19
 119 144 119 144 159 147 c 0,20,21
 179 148 179 148 194.5 141 c 128,-1,22
 210 134 210 134 220.5 122 c 128,-1,23
 231 110 231 110 235.5 94.5 c 128,-1,24
 240 79 240 79 239 63 c 0,25,26
 233 25 233 25 212.5 -10.5 c 128,-1,27
 192 -46 192 -46 165.5 -77.5 c 128,-1,28
 139 -109 139 -109 110.5 -136 c 128,-1,29
 82 -163 82 -163 61 -182 c 0,0,1
111 62 m 0,30,31
 107 47 107 47 114 36 c 128,-1,32
 121 25 121 25 136 27 c 1,33,34
 151 25 151 25 161 36 c 128,-1,35
 171 47 171 47 176 61 c 0,36,37
 179 71 179 71 173.5 79.5 c 128,-1,38
 168 88 168 88 150 90 c 0,39,40
 137 92 137 92 125.5 84 c 128,-1,41
 114 76 114 76 111 62 c 0,30,31
334 -171 m 0,42,43
 308 -192 308 -192 295 -194.5 c 128,-1,44
 282 -197 282 -197 274 -188 c 0,45,46
 259 -170 259 -170 270 -158 c 2,47,-1
 301 -129 l 2,48,49
 322 -109 322 -109 352 -80 c 128,-1,50
 382 -51 382 -51 404 -25 c 1,51,52
 399 -26 399 -26 394.5 -26.5 c 128,-1,53
 390 -27 390 -27 385 -27 c 0,54,55
 351 -27 351 -27 328 -4.5 c 128,-1,56
 305 18 305 18 314 61 c 0,57,58
 319 76 319 76 329 90.5 c 128,-1,59
 339 105 339 105 352.5 117 c 128,-1,60
 366 129 366 129 383 137 c 128,-1,61
 400 145 400 145 420 147 c 0,62,63
 440 148 440 148 455.5 141 c 128,-1,64
 471 134 471 134 481.5 122 c 128,-1,65
 492 110 492 110 496.5 94.5 c 128,-1,66
 501 79 501 79 500 63 c 0,67,68
 496 28 496 28 476 -6.5 c 128,-1,69
 456 -41 456 -41 430.5 -72.5 c 128,-1,70
 405 -104 405 -104 378 -129.5 c 128,-1,71
 351 -155 351 -155 334 -171 c 0,42,43
372 62 m 0,72,73
 368 47 368 47 375 36 c 128,-1,74
 382 25 382 25 397 27 c 1,75,76
 412 25 412 25 422 35.5 c 128,-1,77
 432 46 432 46 437 57 c 0,78,79
 442 67 442 67 436 77.5 c 128,-1,80
 430 88 430 88 411 90 c 0,81,82
 399 92 399 92 387 84 c 128,-1,83
 375 76 375 76 372 62 c 0,72,73
EndSplineSet
EndChar
StartChar: ellipsis
Encoding: 8230 8230 102
Width: 1475
Flags: W
Fore
204 60 m 0,0,1
 207 72 207 72 214 83 c 128,-1,2
 221 94 221 94 231.5 102.5 c 128,-1,3
 242 111 242 111 254.5 116 c 128,-1,4
 267 121 267 121 280 121 c 0,5,6
 302 121 302 121 318 102.5 c 128,-1,7
 334 84 334 84 329 60 c 0,8,9
 326 48 326 48 318 36.5 c 128,-1,10
 310 25 310 25 299.5 16.5 c 128,-1,11
 289 8 289 8 277 3 c 128,-1,12
 265 -2 265 -2 254 -2 c 0,13,14
 228 -2 228 -2 213.5 16.5 c 128,-1,15
 199 35 199 35 204 60 c 0,0,1
672 60 m 0,16,17
 675 72 675 72 682 83 c 128,-1,18
 689 94 689 94 699.5 102.5 c 128,-1,19
 710 111 710 111 722.5 116 c 128,-1,20
 735 121 735 121 747 121 c 0,21,22
 770 121 770 121 785.5 102.5 c 128,-1,23
 801 84 801 84 796 60 c 0,24,25
 793 48 793 48 785.5 36.5 c 128,-1,26
 778 25 778 25 767.5 16.5 c 128,-1,27
 757 8 757 8 744.5 3 c 128,-1,28
 732 -2 732 -2 721 -2 c 0,29,30
 696 -2 696 -2 681.5 16.5 c 128,-1,31
 667 35 667 35 672 60 c 0,16,17
1143 60 m 0,32,33
 1146 72 1146 72 1153 83 c 128,-1,34
 1160 94 1160 94 1170.5 102.5 c 128,-1,35
 1181 111 1181 111 1193.5 116 c 128,-1,36
 1206 121 1206 121 1218 121 c 0,37,38
 1241 121 1241 121 1257 102.5 c 128,-1,39
 1273 84 1273 84 1268 60 c 0,40,41
 1265 48 1265 48 1257 36.5 c 128,-1,42
 1249 25 1249 25 1238.5 16.5 c 128,-1,43
 1228 8 1228 8 1215.5 3 c 128,-1,44
 1203 -2 1203 -2 1192 -2 c 0,45,46
 1167 -2 1167 -2 1152.5 16.5 c 128,-1,47
 1138 35 1138 35 1143 60 c 0,32,33
EndSplineSet
EndChar
StartChar: dagger
Encoding: 8224 8224 103
Width: 782
Flags: W
Fore
249 662 m 0,0,1
 301 664 301 664 338 665.5 c 128,-1,2
 375 667 375 667 401.5 667.5 c 128,-1,3
 428 668 428 668 446 668 c 128,-1,4
 464 668 464 668 478 668 c 1,5,-1
 538 948 l 2,6,7
 540 966 540 966 555 977 c 128,-1,8
 570 988 570 988 585 988 c 0,9,10
 601 988 601 988 612 978 c 128,-1,11
 623 968 623 968 618 947 c 2,12,-1
 559 671 l 1,13,14
 587 671 587 671 623 671 c 128,-1,15
 659 671 659 671 693 669 c 0,16,17
 734 667 734 667 763.5 662 c 128,-1,18
 793 657 793 657 798 644 c 0,19,20
 802 633 802 633 800 623 c 128,-1,21
 798 613 798 613 791.5 605.5 c 128,-1,22
 785 598 785 598 775.5 593.5 c 128,-1,23
 766 589 766 589 757 591 c 0,24,25
 739 593 739 593 712 594.5 c 128,-1,26
 685 596 685 596 655 597 c 128,-1,27
 625 598 625 598 595 598.5 c 128,-1,28
 565 599 565 599 542 599 c 1,29,-1
 419 -26 l 1,30,31
 403 -62 403 -62 368 -59 c 0,32,33
 336 -54 336 -54 342 -27 c 2,34,-1
 461 594 l 1,35,36
 405 592 405 592 349 589.5 c 128,-1,37
 293 587 293 587 238 587 c 0,38,39
 220 587 220 587 213 599 c 128,-1,40
 206 611 206 611 209 625 c 0,41,42
 212 638 212 638 222 649 c 128,-1,43
 232 660 232 660 249 662 c 0,0,1
EndSplineSet
EndChar
StartChar: daggerdbl
Encoding: 8225 8225 104
Width: 782
Flags: W
Fore
403 251 m 1,0,1
 385 252 385 252 369.5 252 c 128,-1,2
 354 252 354 252 337 252 c 0,3,4
 327 252 327 252 316.5 252 c 128,-1,5
 306 252 306 252 290 251 c 128,-1,6
 274 250 274 250 249.5 249 c 128,-1,7
 225 248 225 248 188 246 c 0,8,9
 175 245 175 245 169 253.5 c 128,-1,10
 163 262 163 262 162.5 273.5 c 128,-1,11
 162 285 162 285 167.5 295 c 128,-1,12
 173 305 173 305 183 306 c 0,13,14
 228 311 228 311 259 313 c 128,-1,15
 290 315 290 315 314.5 315.5 c 128,-1,16
 339 316 339 316 361.5 315.5 c 128,-1,17
 384 315 384 315 412 317 c 1,18,19
 428 392 428 392 441.5 461.5 c 128,-1,20
 455 531 455 531 472 607 c 1,21,22
 448 606 448 606 416 606 c 128,-1,23
 384 606 384 606 352 605.5 c 128,-1,24
 320 605 320 605 292 603.5 c 128,-1,25
 264 602 264 602 249 599 c 1,26,27
 234 599 234 599 226.5 607.5 c 128,-1,28
 219 616 219 616 219 628 c 0,29,30
 219 642 219 642 229 657 c 128,-1,31
 239 672 239 672 259 675 c 0,32,33
 311 677 311 677 348.5 678.5 c 128,-1,34
 386 680 386 680 412.5 680.5 c 128,-1,35
 439 681 439 681 457 681 c 128,-1,36
 475 681 475 681 489 681 c 1,37,-1
 549 960 l 2,38,39
 551 978 551 978 565.5 989 c 128,-1,40
 580 1000 580 1000 595 1000 c 0,41,42
 615 1000 615 1000 622 988.5 c 128,-1,43
 629 977 629 977 629 960 c 1,44,-1
 570 683 l 1,45,46
 588 683 588 683 612.5 683.5 c 128,-1,47
 637 684 637 684 664 683.5 c 128,-1,48
 691 683 691 683 717.5 681.5 c 128,-1,49
 744 680 744 680 765 676.5 c 128,-1,50
 786 673 786 673 799 666.5 c 128,-1,51
 812 660 812 660 813 650 c 0,52,53
 813 646 813 646 811.5 638 c 128,-1,54
 810 630 810 630 805.5 622 c 128,-1,55
 801 614 801 614 793.5 608 c 128,-1,56
 786 602 786 602 774 602 c 0,57,58
 754 602 754 602 726 604 c 128,-1,59
 698 606 698 606 667 608.5 c 128,-1,60
 636 611 636 611 605.5 612 c 128,-1,61
 575 613 575 613 552 611 c 1,62,-1
 495 323 l 1,63,64
 522 323 522 323 561 323.5 c 128,-1,65
 600 324 600 324 636 321 c 128,-1,66
 672 318 672 318 697.5 309.5 c 128,-1,67
 723 301 723 301 723 283 c 0,68,69
 723 268 723 268 709.5 254.5 c 128,-1,70
 696 241 696 241 675 241 c 0,71,72
 624 241 624 241 577 247 c 128,-1,73
 530 253 530 253 481 249 c 1,74,-1
 429 -15 l 1,75,76
 423 -28 423 -28 410 -36.5 c 128,-1,77
 397 -45 397 -45 384 -47 c 128,-1,78
 371 -49 371 -49 361 -43.5 c 128,-1,79
 351 -38 351 -38 351 -23 c 0,80,81
 351 -22 351 -22 352 -17 c 128,-1,82
 353 -12 353 -12 357.5 13.5 c 128,-1,83
 362 39 362 39 372.5 94.5 c 128,-1,84
 383 150 383 150 403 251 c 1,0,1
EndSplineSet
EndChar
StartChar: circumflex
Encoding: 710 710 105
Width: 657
Flags: W
Fore
373 945 m 0,0,1
 358 934 358 934 344.5 932.5 c 128,-1,2
 331 931 331 931 323.5 936.5 c 128,-1,3
 316 942 316 942 316 953.5 c 128,-1,4
 316 965 316 965 330 979 c 0,5,6
 381 1020 381 1020 415.5 1046 c 128,-1,7
 450 1072 450 1072 473 1087 c 128,-1,8
 496 1102 496 1102 511.5 1108.5 c 128,-1,9
 527 1115 527 1115 540 1116 c 0,10,11
 556 1117 556 1117 570.5 1110.5 c 128,-1,12
 585 1104 585 1104 602 1086.5 c 128,-1,13
 619 1069 619 1069 640.5 1038.5 c 128,-1,14
 662 1008 662 1008 694 962 c 1,15,16
 700 948 700 948 693.5 939 c 128,-1,17
 687 930 687 930 675 927 c 128,-1,18
 663 924 663 924 650 927 c 128,-1,19
 637 930 637 930 630 939 c 2,20,-1
 578 1007 l 2,21,22
 567 1022 567 1022 560 1031 c 128,-1,23
 553 1040 553 1040 548 1044.5 c 128,-1,24
 543 1049 543 1049 539 1050.5 c 128,-1,25
 535 1052 535 1052 529 1052 c 0,26,27
 520 1052 520 1052 509.5 1047.5 c 128,-1,28
 499 1043 499 1043 482.5 1031.5 c 128,-1,29
 466 1020 466 1020 439.5 999 c 128,-1,30
 413 978 413 978 373 945 c 0,0,1
EndSplineSet
EndChar
StartChar: perthousand
Encoding: 8240 8240 106
Width: 1260
Flags: W
Fore
341 20 m 2,0,1
 332 5 332 5 315.5 -1.5 c 128,-1,2
 299 -8 299 -8 285.5 -5.5 c 128,-1,3
 272 -3 272 -3 267 9.5 c 128,-1,4
 262 22 262 22 278 46 c 2,5,-1
 786 864 l 2,6,7
 795 877 795 877 808.5 880.5 c 128,-1,8
 822 884 822 884 833.5 880 c 128,-1,9
 845 876 845 876 850 865.5 c 128,-1,10
 855 855 855 855 848 841 c 2,11,-1
 341 20 l 2,0,1
581 674 m 0,12,13
 575 648 575 648 560 621 c 128,-1,14
 545 594 545 594 522 572 c 128,-1,15
 499 550 499 550 469 536 c 128,-1,16
 439 522 439 522 402 522 c 0,17,18
 370 522 370 522 346 532 c 128,-1,19
 322 542 322 542 306 559.5 c 128,-1,20
 290 577 290 577 282 599.5 c 128,-1,21
 274 622 274 622 274 648 c 0,22,23
 274 678 274 678 288 710.5 c 128,-1,24
 302 743 302 743 327.5 770 c 128,-1,25
 353 797 353 797 388.5 814.5 c 128,-1,26
 424 832 424 832 468 832 c 0,27,28
 504 832 504 832 528 818 c 128,-1,29
 552 804 552 804 565.5 781.5 c 128,-1,30
 579 759 579 759 582.5 731 c 128,-1,31
 586 703 586 703 581 674 c 0,12,13
520 673 m 0,32,33
 523 689 523 689 520 705 c 128,-1,34
 517 721 517 721 509 734 c 128,-1,35
 501 747 501 747 487.5 755 c 128,-1,36
 474 763 474 763 456 763 c 0,37,38
 433 763 433 763 412.5 755 c 128,-1,39
 392 747 392 747 377 733 c 128,-1,40
 362 719 362 719 353 700 c 128,-1,41
 344 681 344 681 344 660 c 0,42,43
 344 630 344 630 363.5 609.5 c 128,-1,44
 383 589 383 589 419 589 c 0,45,46
 454 589 454 589 481.5 613.5 c 128,-1,47
 509 638 509 638 520 673 c 0,32,33
862 211 m 0,48,49
 856 178 856 178 839 150 c 128,-1,50
 822 122 822 122 798 101.5 c 128,-1,51
 774 81 774 81 744.5 69.5 c 128,-1,52
 715 58 715 58 683 58 c 256,53,54
 651 58 651 58 627 68 c 128,-1,55
 603 78 603 78 587 95 c 128,-1,56
 571 112 571 112 562.5 135 c 128,-1,57
 554 158 554 158 554 184 c 0,58,59
 554 215 554 215 568.5 248 c 128,-1,60
 583 281 583 281 608.5 308 c 128,-1,61
 634 335 634 335 670 352 c 128,-1,62
 706 369 706 369 749 369 c 0,63,64
 783 369 783 369 807.5 355 c 128,-1,65
 832 341 832 341 846.5 318.5 c 128,-1,66
 861 296 861 296 865 267.5 c 128,-1,67
 869 239 869 239 862 211 c 0,48,49
800 210 m 1,68,69
 805 244 805 244 789 271.5 c 128,-1,70
 773 299 773 299 736 299 c 0,71,72
 713 299 713 299 692.5 290.5 c 128,-1,73
 672 282 672 282 657 268 c 128,-1,74
 642 254 642 254 633.5 235.5 c 128,-1,75
 625 217 625 217 625 196 c 0,76,77
 625 166 625 166 644.5 145.5 c 128,-1,78
 664 125 664 125 699 125 c 256,79,80
 734 125 734 125 761.5 150 c 128,-1,81
 789 175 789 175 800 210 c 1,68,69
1210 211 m 0,82,83
 1204 184 1204 184 1189 156.5 c 128,-1,84
 1174 129 1174 129 1150.5 107 c 128,-1,85
 1127 85 1127 85 1096.5 71.5 c 128,-1,86
 1066 58 1066 58 1030 58 c 0,87,88
 999 58 999 58 975 67.5 c 128,-1,89
 951 77 951 77 935 94 c 128,-1,90
 919 111 919 111 910.5 134 c 128,-1,91
 902 157 902 157 902 184 c 0,92,93
 902 215 902 215 916.5 248 c 128,-1,94
 931 281 931 281 956.5 308 c 128,-1,95
 982 335 982 335 1017.5 352 c 128,-1,96
 1053 369 1053 369 1096 369 c 0,97,98
 1131 369 1131 369 1155 355 c 128,-1,99
 1179 341 1179 341 1193 318.5 c 128,-1,100
 1207 296 1207 296 1211 267.5 c 128,-1,101
 1215 239 1215 239 1210 211 c 0,82,83
1148 210 m 0,102,103
 1151 227 1151 227 1148 243 c 128,-1,104
 1145 259 1145 259 1136.5 271.5 c 128,-1,105
 1128 284 1128 284 1114.5 291.5 c 128,-1,106
 1101 299 1101 299 1083 299 c 0,107,108
 1059 299 1059 299 1039 290.5 c 128,-1,109
 1019 282 1019 282 1004.5 268 c 128,-1,110
 990 254 990 254 981.5 235 c 128,-1,111
 973 216 973 216 973 195 c 0,112,113
 973 166 973 166 992 145.5 c 128,-1,114
 1011 125 1011 125 1046 125 c 256,115,116
 1081 125 1081 125 1109 150 c 128,-1,117
 1137 175 1137 175 1148 210 c 0,102,103
EndSplineSet
EndChar
StartChar: guilsinglleft
Encoding: 8249 8249 108
Width: 383
Flags: W
Fore
362 199 m 0,0,1
 380 193 380 193 385.5 180.5 c 128,-1,2
 391 168 391 168 387.5 156 c 128,-1,3
 384 144 384 144 372 136 c 128,-1,4
 360 128 360 128 343 130 c 0,5,6
 297 141 297 141 259.5 170 c 128,-1,7
 222 199 222 199 195.5 234 c 128,-1,8
 169 269 169 269 154.5 304.5 c 128,-1,9
 140 340 140 340 140 363 c 0,10,11
 140 379 140 379 164 414 c 128,-1,12
 188 449 188 449 230.5 489 c 128,-1,13
 273 529 273 529 330.5 565.5 c 128,-1,14
 388 602 388 602 455 620 c 1,15,16
 479 622 479 622 488 614.5 c 128,-1,17
 497 607 497 607 495 595.5 c 128,-1,18
 493 584 493 584 481 571.5 c 128,-1,19
 469 559 469 559 451 553 c 0,20,21
 397 537 397 537 353 507.5 c 128,-1,22
 309 478 309 478 278 448.5 c 128,-1,23
 247 419 247 419 230.5 395.5 c 128,-1,24
 214 372 214 372 214 369 c 0,25,26
 214 356 214 356 223 332 c 128,-1,27
 232 308 232 308 250.5 282 c 128,-1,28
 269 256 269 256 297 233 c 128,-1,29
 325 210 325 210 362 199 c 0,0,1
EndSplineSet
EndChar
StartChar: OE
Encoding: 338 338 109
Width: 1419
Flags: W
Fore
891 100 m 1,0,1
 961 95 961 95 1020.5 90.5 c 128,-1,2
 1080 86 1080 86 1139 86 c 0,3,4
 1184 86 1184 86 1234.5 89.5 c 128,-1,5
 1285 93 1285 93 1350 102 c 0,6,7
 1373 102 1373 102 1382 90.5 c 128,-1,8
 1391 79 1391 79 1389 67 c 0,9,10
 1385 51 1385 51 1366 41.5 c 128,-1,11
 1347 32 1347 32 1317.5 27 c 128,-1,12
 1288 22 1288 22 1252 20.5 c 128,-1,13
 1216 19 1216 19 1179 19.5 c 128,-1,14
 1142 20 1142 20 1107.5 21.5 c 128,-1,15
 1073 23 1073 23 1047 24 c 0,16,17
 984 27 984 27 927.5 29 c 128,-1,18
 871 31 871 31 833 31 c 0,19,20
 796 31 796 31 765 27.5 c 128,-1,21
 734 24 734 24 698 19.5 c 128,-1,22
 662 15 662 15 615 10.5 c 128,-1,23
 568 6 568 6 500 4 c 0,24,25
 421 2 421 2 348 28.5 c 128,-1,26
 275 55 275 55 224.5 113.5 c 128,-1,27
 174 172 174 172 154 264.5 c 128,-1,28
 134 357 134 357 162 487 c 256,29,30
 190 617 190 617 250.5 715.5 c 128,-1,31
 311 814 311 814 391 880.5 c 128,-1,32
 471 947 471 947 565 980.5 c 128,-1,33
 659 1014 659 1014 753 1014 c 0,34,35
 842 1014 842 1014 903 995 c 1,36,-1
 902 995 l 1,37,38
 922 990 922 990 939.5 979 c 128,-1,39
 957 968 957 968 974 954 c 1,40,41
 973 956 973 956 973.5 958.5 c 128,-1,42
 974 961 974 961 974 964 c 1,43,44
 977 975 977 975 989.5 984.5 c 128,-1,45
 1002 994 1002 994 1023 995 c 0,46,47
 1054 997 1054 997 1101.5 998.5 c 128,-1,48
 1149 1000 1149 1000 1203.5 1000.5 c 128,-1,49
 1258 1001 1258 1001 1315 1000.5 c 128,-1,50
 1372 1000 1372 1000 1422 998.5 c 128,-1,51
 1472 997 1472 997 1511.5 993.5 c 128,-1,52
 1551 990 1551 990 1570 985 c 0,53,54
 1596 977 1596 977 1585 947 c 0,55,56
 1575 923 1575 923 1544 915 c 1,57,58
 1525 916 1525 916 1492 918 c 128,-1,59
 1459 920 1459 920 1417 922.5 c 128,-1,60
 1375 925 1375 925 1327 926.5 c 128,-1,61
 1279 928 1279 928 1230 928 c 0,62,63
 1190 928 1190 928 1150.5 926.5 c 128,-1,64
 1111 925 1111 925 1074 922 c 1,65,-1
 1028 696 l 2,66,67
 1021 662 1021 662 1014.5 633 c 128,-1,68
 1008 604 1008 604 999 568 c 1,69,70
 1028 566 1028 566 1060.5 566.5 c 128,-1,71
 1093 567 1093 567 1132 567 c 0,72,73
 1191 567 1191 567 1249 566.5 c 128,-1,74
 1307 566 1307 566 1353 561 c 0,75,76
 1377 558 1377 558 1383.5 546.5 c 128,-1,77
 1390 535 1390 535 1383.5 522.5 c 128,-1,78
 1377 510 1377 510 1358.5 499.5 c 128,-1,79
 1340 489 1340 489 1314 489 c 0,80,81
 1298 489 1298 489 1277 489.5 c 128,-1,82
 1256 490 1256 490 1230 491 c 0,83,84
 1195 493 1195 493 1155 493.5 c 128,-1,85
 1115 494 1115 494 1076 494 c 0,86,87
 1047 494 1047 494 1027 494 c 128,-1,88
 1007 494 1007 494 985 492 c 1,89,-1
 891 100 l 1,0,1
812 108 m 1,90,91
 845 247 845 247 869.5 349.5 c 128,-1,92
 894 452 894 452 911 525.5 c 128,-1,93
 928 599 928 599 939 647.5 c 128,-1,94
 950 696 950 696 957 726.5 c 128,-1,95
 964 757 964 757 967 774 c 128,-1,96
 970 791 970 791 971 801 c 1,97,98
 957 842 957 842 931.5 867.5 c 128,-1,99
 906 893 906 893 874.5 908 c 128,-1,100
 843 923 843 923 807 929 c 128,-1,101
 771 935 771 935 736 937 c 0,102,103
 657 938 657 938 578 910 c 128,-1,104
 499 882 499 882 430.5 826 c 128,-1,105
 362 770 362 770 311 686 c 128,-1,106
 260 602 260 602 236 491 c 256,107,108
 212 380 212 380 228 302 c 128,-1,109
 244 224 244 224 286 174.5 c 128,-1,110
 328 125 328 125 389 102.5 c 128,-1,111
 450 80 450 80 517 80 c 0,112,113
 573 80 573 80 610.5 80.5 c 128,-1,114
 648 81 648 81 678.5 83.5 c 128,-1,115
 709 86 709 86 739.5 91.5 c 128,-1,116
 770 97 770 97 812 108 c 1,90,91
EndSplineSet
EndChar
StartChar: quoteleft
Encoding: 8216 8216 110
Width: 354
Flags: W
Fore
342 838 m 1,0,1
 356 848 356 848 368 848 c 0,2,3
 378 848 378 848 385.5 840 c 128,-1,4
 393 832 393 832 393 824 c 0,5,6
 393 814 393 814 384 804 c 2,7,-1
 372 793 l 2,8,9
 358 779 358 779 342.5 765.5 c 128,-1,10
 327 752 327 752 313 734 c 1,11,12
 318 735 318 735 322.5 735 c 128,-1,13
 327 735 327 735 332 735 c 0,14,15
 361 735 361 735 382.5 718.5 c 128,-1,16
 404 702 404 702 404 670 c 0,17,18
 404 653 404 653 395.5 634 c 128,-1,19
 387 615 387 615 371.5 598.5 c 128,-1,20
 356 582 356 582 334.5 571.5 c 128,-1,21
 313 561 313 561 288 561 c 0,22,23
 253 561 253 561 234 581 c 128,-1,24
 215 601 215 601 215 634 c 0,25,26
 215 668 215 668 227.5 695.5 c 128,-1,27
 240 723 240 723 259 747 c 128,-1,28
 278 771 278 771 300.5 793 c 128,-1,29
 323 815 323 815 342 838 c 1,0,1
345 656 m 0,30,31
 345 681 345 681 321 681 c 2,32,-1
 318 681 l 2,33,34
 300 681 300 681 289 668.5 c 128,-1,35
 278 656 278 656 278 641 c 0,36,37
 278 633 278 633 284 625.5 c 128,-1,38
 290 618 290 618 307 618 c 256,39,40
 324 618 324 618 334.5 629.5 c 128,-1,41
 345 641 345 641 345 656 c 0,30,31
EndSplineSet
EndChar
StartChar: quoteright
Encoding: 8217 8217 111
Width: 354
Flags: W
Fore
358 820 m 0,0,1
 366 807 366 807 375.5 789 c 128,-1,2
 385 771 385 771 392 748.5 c 128,-1,3
 399 726 399 726 400 699.5 c 128,-1,4
 401 673 401 673 391 644 c 1,5,-1
 392 645 l 1,6,7
 379 606 379 606 347.5 582 c 128,-1,8
 316 558 316 558 276 561 c 0,9,10
 257 563 257 563 243 571.5 c 128,-1,11
 229 580 229 580 220 592 c 128,-1,12
 211 604 211 604 207.5 618 c 128,-1,13
 204 632 204 632 206 647 c 0,14,15
 218 691 218 691 253.5 717 c 128,-1,16
 289 743 289 743 333 734 c 1,17,18
 325 753 325 753 315 767 c 128,-1,19
 305 781 305 781 296 795 c 1,20,-1
 297 795 l 1,21,22
 291 807 291 807 295.5 819 c 128,-1,23
 300 831 300 831 310.5 837 c 128,-1,24
 321 843 321 843 334.5 840 c 128,-1,25
 348 837 348 837 358 820 c 0,0,1
264 646 m 0,26,27
 261 632 261 632 269 624 c 128,-1,28
 277 616 277 616 291 618 c 0,29,30
 310 620 310 620 319.5 630 c 128,-1,31
 329 640 329 640 331 650 c 0,32,33
 333 662 333 662 326.5 672.5 c 128,-1,34
 320 683 320 683 304 681 c 1,35,36
 289 683 289 683 278 672.5 c 128,-1,37
 267 662 267 662 264 646 c 0,26,27
EndSplineSet
EndChar
StartChar: quotedblleft
Encoding: 8220 8220 112
Width: 530
Flags: W
Fore
526 827 m 0,0,1
 542 841 542 841 555 842 c 128,-1,2
 568 843 568 843 575 835.5 c 128,-1,3
 582 828 582 828 579.5 815 c 128,-1,4
 577 802 577 802 562 787 c 0,5,6
 550 775 550 775 535.5 763 c 128,-1,7
 521 751 521 751 510 734 c 1,8,9
 527 737 527 737 543 734 c 128,-1,10
 559 731 559 731 572 722.5 c 128,-1,11
 585 714 585 714 592.5 700.5 c 128,-1,12
 600 687 600 687 600 669 c 0,13,14
 600 652 600 652 591.5 633 c 128,-1,15
 583 614 583 614 567.5 598 c 128,-1,16
 552 582 552 582 530.5 571.5 c 128,-1,17
 509 561 509 561 484 561 c 0,18,19
 449 561 449 561 429.5 580.5 c 128,-1,20
 410 600 410 600 412 632 c 0,21,22
 414 663 414 663 424.5 691 c 128,-1,23
 435 719 435 719 450.5 743.5 c 128,-1,24
 466 768 466 768 486 788.5 c 128,-1,25
 506 809 506 809 526 827 c 0,0,1
540 646 m 1,26,27
 545 658 545 658 538.5 669.5 c 128,-1,28
 532 681 532 681 518 681 c 0,29,30
 499 681 499 681 486.5 669.5 c 128,-1,31
 474 658 474 658 474 642 c 0,32,33
 474 634 474 634 480 626 c 128,-1,34
 486 618 486 618 503 618 c 0,35,36
 515 618 515 618 526 625.5 c 128,-1,37
 537 633 537 633 540 646 c 1,26,27
375 790 m 256,38,39
 361 776 361 776 344.5 761.5 c 128,-1,40
 328 747 328 747 312 729 c 1,41,42
 330 729 330 729 346.5 726.5 c 128,-1,43
 363 724 363 724 376 716.5 c 128,-1,44
 389 709 389 709 396.5 696 c 128,-1,45
 404 683 404 683 404 662 c 0,46,47
 404 644 404 644 395 625.5 c 128,-1,48
 386 607 386 607 370 591 c 128,-1,49
 354 575 354 575 333 565 c 128,-1,50
 312 555 312 555 287 555 c 0,51,52
 252 555 252 555 233 575.5 c 128,-1,53
 214 596 214 596 214 628 c 256,54,55
 214 660 214 660 227 689 c 128,-1,56
 240 718 240 718 258 743 c 128,-1,57
 276 768 276 768 295.5 787.5 c 128,-1,58
 315 807 315 807 329 820 c 0,59,60
 348 835 348 835 363 837.5 c 128,-1,61
 378 840 378 840 385 834 c 128,-1,62
 392 828 392 828 390.5 816 c 128,-1,63
 389 804 389 804 375 790 c 256,38,39
344 640 m 0,64,65
 347 675 347 675 315 675 c 0,66,67
 299 675 299 675 288 663 c 128,-1,68
 277 651 277 651 277 638 c 0,69,70
 277 629 277 629 283.5 620.5 c 128,-1,71
 290 612 290 612 308 612 c 0,72,73
 320 612 320 612 330.5 619.5 c 128,-1,74
 341 627 341 627 344 640 c 0,64,65
EndSplineSet
EndChar
StartChar: quotedblright
Encoding: 8221 8221 113
Width: 530
Flags: W
Fore
289 582 m 0,0,1
 272 570 272 570 260.5 570.5 c 128,-1,2
 249 571 249 571 243 578 c 128,-1,3
 237 585 237 585 237.5 595.5 c 128,-1,4
 238 606 238 606 245 614 c 0,5,6
 270 636 270 636 287.5 651 c 128,-1,7
 305 666 305 666 322 685 c 1,8,9
 317 684 317 684 312 684 c 128,-1,10
 302 684 l 0,11,12
 267 684 267 684 246 705.5 c 128,-1,13
 225 727 225 727 236 772 c 0,14,15
 240 787 240 787 250 801 c 128,-1,16
 260 815 260 815 274.5 827 c 128,-1,17
 289 839 289 839 307 847.5 c 128,-1,18
 325 856 325 856 345 858 c 0,19,20
 387 861 387 861 407 837 c 128,-1,21
 427 813 427 813 422 775 c 0,22,23
 419 746 419 746 405.5 719.5 c 128,-1,24
 392 693 392 693 373 669 c 128,-1,25
 354 645 354 645 332 623 c 128,-1,26
 310 601 310 601 289 582 c 0,0,1
293 773 m 0,27,28
 288 757 288 757 295 746.5 c 128,-1,29
 302 736 302 736 317 738 c 1,30,31
 333 736 333 736 344.5 746.5 c 128,-1,32
 356 757 356 757 358 769 c 0,33,34
 360 779 360 779 356 789 c 128,-1,35
 352 799 352 799 334 801 c 0,36,37
 321 803 321 803 308.5 795 c 128,-1,38
 296 787 296 787 293 773 c 0,27,28
620 781 m 0,39,40
 620 760 620 760 609 734.5 c 128,-1,41
 598 709 598 709 581 683.5 c 128,-1,42
 564 658 564 658 543.5 636 c 128,-1,43
 523 614 523 614 503.5 599 c 128,-1,44
 484 584 484 584 467.5 579.5 c 128,-1,45
 451 575 451 575 443 585 c 0,46,47
 430 605 430 605 442 618 c 0,48,49
 469 642 469 642 487 658 c 128,-1,50
 505 674 505 674 519 690 c 1,51,-1
 501 690 l 2,52,53
 484 690 484 690 469.5 695.5 c 128,-1,54
 455 701 455 701 445.5 712 c 128,-1,55
 436 723 436 723 432.5 739.5 c 128,-1,56
 429 756 429 756 434 778 c 1,57,58
 440 793 440 793 450 807.5 c 128,-1,59
 460 822 460 822 474 834 c 128,-1,60
 488 846 488 846 505.5 854 c 128,-1,61
 523 862 523 862 543 864 c 0,62,63
 585 867 585 867 605 843 c 128,-1,64
 625 819 625 819 620 781 c 0,39,40
493 779 m 0,65,66
 487 762 487 762 493.5 752 c 128,-1,67
 500 742 500 742 515 744 c 1,68,69
 530 742 530 742 542.5 752.5 c 128,-1,70
 555 763 555 763 558 775 c 0,71,72
 561 785 561 785 556.5 795 c 128,-1,73
 552 805 552 805 532 807 c 0,74,75
 519 809 519 809 507.5 801 c 128,-1,76
 496 793 496 793 493 779 c 0,65,66
EndSplineSet
EndChar
StartChar: bullet
Encoding: 8226 8226 114
Width: 664
Flags: W
Fore
401 85 m 0,0,1
 369 85 369 85 344.5 101.5 c 128,-1,2
 320 118 320 118 312 156 c 1,3,4
 257 110 257 110 208 110 c 0,5,6
 182 110 182 110 162 121.5 c 128,-1,7
 142 133 142 133 129.5 152 c 128,-1,8
 117 171 117 171 112.5 195 c 128,-1,9
 108 219 108 219 113 243 c 0,10,11
 121 277 121 277 144.5 306 c 128,-1,12
 168 335 168 335 218 348 c 1,13,14
 207 371 207 371 204 393 c 128,-1,15
 201 415 201 415 206 435 c 0,16,17
 212 461 212 461 228 482.5 c 128,-1,18
 244 504 244 504 266 519 c 128,-1,19
 288 534 288 534 313.5 542.5 c 128,-1,20
 339 551 339 551 363 551 c 0,21,22
 399 551 399 551 424.5 534.5 c 128,-1,23
 450 518 450 518 452 473 c 1,24,25
 482 502 482 502 510 514.5 c 128,-1,26
 538 527 538 527 563 527 c 0,27,28
 587 527 587 527 606.5 516 c 128,-1,29
 626 505 626 505 638.5 487 c 128,-1,30
 651 469 651 469 655.5 445.5 c 128,-1,31
 660 422 660 422 655 397 c 0,32,33
 648 365 648 365 623 333.5 c 128,-1,34
 598 302 598 302 550 282 c 1,35,36
 562 262 562 262 565 242.5 c 128,-1,37
 568 223 568 223 564 206 c 0,38,39
 559 180 559 180 542 158 c 128,-1,40
 525 136 525 136 502 120 c 128,-1,41
 479 104 479 104 452.5 94.5 c 128,-1,42
 426 85 426 85 401 85 c 0,0,1
397 406 m 0,43,44
 409 467 409 467 379 484 c 0,45,46
 362 494 362 494 344 494 c 0,47,48
 331 494 331 494 316 489 c 0,49,50
 283 475 283 475 263 441 c 0,51,52
 246 406 246 406 278 363 c 1,53,54
 286 358 286 358 287 350 c 128,-1,55
 288 342 288 342 285 330 c 0,56,57
 275 302 275 302 252 299 c 0,58,59
 214 292 214 292 193.5 274.5 c 128,-1,60
 173 257 173 257 169 238 c 0,61,62
 163 211 163 211 178 188.5 c 128,-1,63
 193 166 193 166 221 166 c 0,64,65
 238 166 238 166 258.5 177 c 128,-1,66
 279 188 279 188 302 217 c 1,67,68
 307 227 307 227 316.5 232.5 c 128,-1,69
 326 238 326 238 337 237 c 0,70,71
 362 234 362 234 359 216 c 1,72,73
 362 179 362 179 377.5 159.5 c 128,-1,74
 393 140 393 140 414 140 c 0,75,76
 428 140 428 140 442.5 145.5 c 128,-1,77
 457 151 457 151 469.5 161 c 128,-1,78
 482 171 482 171 491 184 c 128,-1,79
 500 197 500 197 503 211 c 256,80,81
 506 225 506 225 502 241 c 128,-1,82
 498 257 498 257 482 272 c 1,83,84
 475 286 475 286 478 299.5 c 128,-1,85
 481 313 481 313 510 317 c 1,86,87
 552 331 552 331 570.5 351.5 c 128,-1,88
 589 372 589 372 594 393 c 0,89,90
 597 407 597 407 593.5 420.5 c 128,-1,91
 590 434 590 434 582.5 444.5 c 128,-1,92
 575 455 575 455 563 461.5 c 128,-1,93
 551 468 551 468 538 468 c 0,94,95
 520 468 520 468 498.5 453.5 c 128,-1,96
 477 439 477 439 457 404 c 0,97,98
 440 376 440 376 416 380 c 0,99,100
 393 384 393 384 397 406 c 0,43,44
305 302 m 0,101,102
 311 333 311 333 330 351.5 c 128,-1,103
 349 370 349 370 376 368 c 0,104,105
 403 369 403 369 418 350.5 c 128,-1,106
 433 332 433 332 429 310 c 0,107,108
 424 290 424 290 408.5 272 c 128,-1,109
 393 254 393 254 356 250 c 0,110,111
 344 248 344 248 333.5 251 c 128,-1,112
 323 254 323 254 315.5 261 c 128,-1,113
 308 268 308 268 305 278.5 c 128,-1,114
 302 289 302 289 305 302 c 0,101,102
340 306 m 0,115,116
 338 298 338 298 346 291 c 128,-1,117
 354 284 354 284 363 286 c 0,118,119
 380 288 380 288 385.5 295.5 c 128,-1,120
 391 303 391 303 393 310 c 0,121,122
 395 319 395 319 389 326.5 c 128,-1,123
 383 334 383 334 371 333 c 1,124,125
 362 334 362 334 352 325.5 c 128,-1,126
 342 317 342 317 340 306 c 0,115,116
EndSplineSet
EndChar
StartChar: endash
Encoding: 8211 8211 115
Width: 883
Flags: W
Fore
141 483 m 0,0,1
 192 477 192 477 248 474.5 c 128,-1,2
 304 472 304 472 363 472 c 0,3,4
 420 472 420 472 477.5 473.5 c 128,-1,5
 535 475 535 475 595 477 c 0,6,7
 650 479 650 479 710 480 c 128,-1,8
 770 481 770 481 823 481 c 0,9,10
 852 481 852 481 880.5 481 c 128,-1,11
 909 481 909 481 936 479 c 0,12,13
 957 477 957 477 964 466.5 c 128,-1,14
 971 456 971 456 966.5 443.5 c 128,-1,15
 962 431 962 431 949.5 421.5 c 128,-1,16
 937 412 937 412 919 414 c 0,17,18
 895 415 895 415 868 415 c 128,-1,19
 841 415 841 415 812 415 c 0,20,21
 753 415 753 415 690.5 414 c 128,-1,22
 628 413 628 413 564 411 c 256,23,24
 500 409 500 409 438 407.5 c 128,-1,25
 376 406 376 406 319 406 c 256,26,27
 262 406 262 406 211 408 c 128,-1,28
 160 410 160 410 122 415 c 0,29,30
 105 417 105 417 100 427.5 c 128,-1,31
 95 438 95 438 97 450 c 0,32,33
 100 464 100 464 112 475.5 c 128,-1,34
 124 487 124 487 141 483 c 0,0,1
EndSplineSet
EndChar
StartChar: emdash
Encoding: 8212 8212 116
Width: 1767
Flags: W
Fore
147 487 m 2,0,1
 199 482 199 482 296.5 481 c 128,-1,2
 394 480 394 480 519 480 c 0,3,4
 619 480 619 480 728.5 480.5 c 128,-1,5
 838 481 838 481 952 482 c 0,6,7
 1073 483 1073 483 1191.5 484 c 128,-1,8
 1310 485 1310 485 1417 485 c 0,9,10
 1540 485 1540 485 1640 483 c 128,-1,11
 1740 481 1740 481 1797 477 c 1,12,13
 1817 458 1817 458 1809 440.5 c 128,-1,14
 1801 423 1801 423 1783 412 c 1,15,16
 1736 414 1736 414 1650 415.5 c 128,-1,17
 1564 417 1564 417 1454 417 c 0,18,19
 1345 417 1345 417 1219.5 416 c 128,-1,20
 1094 415 1094 415 964 414 c 0,21,22
 836 414 836 414 713.5 413 c 128,-1,23
 591 412 591 412 483 412 c 0,24,25
 420 412 420 412 365 412.5 c 128,-1,26
 310 413 310 413 264 413.5 c 128,-1,27
 218 414 218 414 183.5 415.5 c 128,-1,28
 149 417 149 417 128 419 c 0,29,30
 111 421 111 421 105.5 431 c 128,-1,31
 100 441 100 441 103 452 c 0,32,33
 105 464 105 464 117.5 475.5 c 128,-1,34
 130 487 130 487 146 487 c 2,35,-1
 147 487 l 2,0,1
EndSplineSet
EndChar
StartChar: tilde
Encoding: 732 732 117
Width: 442
Flags: W
Fore
192 888 m 0,0,1
 218 918 218 918 254.5 932 c 128,-1,2
 291 946 291 946 329 946 c 0,3,4
 382 946 382 946 425 926 c 0,5,6
 437 919 437 919 460.5 913.5 c 128,-1,7
 484 908 484 908 508 908 c 0,8,9
 524 908 524 908 536.5 910.5 c 128,-1,10
 549 913 549 913 557 920 c 1,11,12
 574 931 574 931 590 932 c 128,-1,13
 606 933 606 933 615 927.5 c 128,-1,14
 624 922 624 922 623.5 911 c 128,-1,15
 623 900 623 900 608 886 c 0,16,17
 581 861 581 861 551.5 852.5 c 128,-1,18
 522 844 522 844 493 844 c 256,19,20
 464 844 464 844 434 851 c 128,-1,21
 404 858 404 858 381 868 c 0,22,23
 365 874 365 874 346.5 879 c 128,-1,24
 328 884 328 884 308 884 c 0,25,26
 291 884 291 884 275.5 878.5 c 128,-1,27
 260 873 260 873 246 859 c 0,28,29
 214 830 214 830 190 850 c 0,30,31
 173 868 173 868 192 888 c 0,0,1
EndSplineSet
EndChar
StartChar: trademark
Encoding: 8482 8482 118
Width: 1053
Flags: W
Fore
465 770 m 0,0,1
 457 770 457 770 448 769.5 c 128,-1,2
 439 769 439 769 428 768 c 1,3,4
 422 746 422 746 412.5 709 c 128,-1,5
 403 672 403 672 393 629 c 128,-1,6
 383 586 383 586 372 540.5 c 128,-1,7
 361 495 361 495 352 455.5 c 128,-1,8
 343 416 343 416 336.5 387.5 c 128,-1,9
 330 359 330 359 328 349 c 0,10,11
 325 335 325 335 311.5 325.5 c 128,-1,12
 298 316 298 316 286 316 c 0,13,14
 258 316 258 316 258 339 c 0,15,16
 258 340 258 340 259 344.5 c 128,-1,17
 260 349 260 349 264.5 369 c 128,-1,18
 269 389 269 389 279 431.5 c 128,-1,19
 289 474 289 474 308 551 c 0,20,21
 322 609 322 609 336 661.5 c 128,-1,22
 350 714 350 714 364 768 c 1,23,24
 331 768 331 768 295.5 764.5 c 128,-1,25
 260 761 260 761 218 761 c 0,26,27
 193 761 193 761 193 788 c 0,28,29
 193 816 193 816 228 824 c 0,30,31
 239 827 239 827 259.5 829 c 128,-1,32
 280 831 280 831 307 832.5 c 128,-1,33
 334 834 334 834 365 835 c 128,-1,34
 396 836 396 836 429 836 c 0,35,36
 457 836 457 836 484.5 836.5 c 128,-1,37
 512 837 512 837 534 835.5 c 128,-1,38
 556 834 556 834 570 829 c 128,-1,39
 584 824 584 824 584 813 c 0,40,41
 584 789 584 789 573.5 778 c 128,-1,42
 563 767 563 767 554 767 c 0,43,44
 520 768 520 768 502 769 c 128,-1,45
 484 770 484 770 465 770 c 0,0,1
974 344 m 0,46,47
 972 320 972 320 960 311.5 c 128,-1,48
 948 303 948 303 933 303 c 0,49,50
 930 303 930 303 924 303.5 c 128,-1,51
 918 304 918 304 913 306 c 128,-1,52
 908 308 908 308 904 311.5 c 128,-1,53
 900 315 900 315 900 320 c 2,54,55
 900.5 324.5 l 130,-1,56
 901 329 901 329 905.5 354 c 128,-1,57
 910 379 910 379 919 433 c 128,-1,58
 928 487 928 487 945 586 c 2,59,-1
 966 715 l 2,60,61
 970 739 970 739 971.5 748 c 128,-1,62
 973 757 973 757 973 762 c 1,63,64
 953 750 953 750 928 719.5 c 128,-1,65
 903 689 903 689 878.5 651.5 c 128,-1,66
 854 614 854 614 834 576 c 128,-1,67
 814 538 814 538 805 511 c 0,68,69
 800 492 800 492 790 482 c 128,-1,70
 780 472 780 472 769 472 c 0,71,72
 741 472 741 472 741 510 c 0,73,74
 741 543 741 543 737 587 c 128,-1,75
 733 631 733 631 725.5 671.5 c 128,-1,76
 718 712 718 712 707.5 740 c 128,-1,77
 697 768 697 768 684 768 c 0,78,79
 681 768 681 768 670 732.5 c 128,-1,80
 659 697 659 697 644 636.5 c 128,-1,81
 629 576 629 576 610.5 496.5 c 128,-1,82
 592 417 592 417 573 329 c 1,83,84
 565 314 565 314 554 310.5 c 128,-1,85
 543 307 543 307 534 307 c 0,86,87
 523 307 523 307 515 311.5 c 128,-1,88
 507 316 507 316 505 330 c 1,89,90
 561 584 561 584 606.5 711.5 c 128,-1,91
 652 839 652 839 697 839 c 0,92,93
 712 839 712 839 729 825.5 c 128,-1,94
 746 812 746 812 761 787 c 128,-1,95
 776 762 776 762 788 727.5 c 128,-1,96
 800 693 800 693 806 650 c 1,97,98
 831 691 831 691 861.5 726 c 128,-1,99
 892 761 892 761 920.5 786 c 128,-1,100
 949 811 949 811 972.5 825 c 128,-1,101
 996 839 996 839 1008 839 c 256,102,103
 1020 839 1020 839 1026 827.5 c 128,-1,104
 1032 816 1032 816 1034 800 c 128,-1,105
 1036 784 1036 784 1035 766.5 c 128,-1,106
 1034 749 1034 749 1033 737 c 0,107,108
 1015 616 1015 616 1004 544.5 c 128,-1,109
 993 473 993 473 987 433 c 128,-1,110
 981 393 981 393 978 375 c 128,-1,111
 975 357 975 357 974 344 c 0,46,47
EndSplineSet
EndChar
StartChar: guilsinglright
Encoding: 8250 8250 120
Width: 383
Flags: W
Fore
120 218 m 0,0,1
 165 230 165 230 204.5 255 c 128,-1,2
 244 280 244 280 274 307.5 c 128,-1,3
 304 335 304 335 322 359.5 c 128,-1,4
 340 384 340 384 342 394 c 1,5,6
 345 402 345 402 335 426 c 128,-1,7
 325 450 325 450 304.5 478 c 128,-1,8
 284 506 284 506 252.5 532.5 c 128,-1,9
 221 559 221 559 180 574 c 0,10,11
 161 582 161 582 155 596 c 128,-1,12
 149 610 149 610 153.5 622 c 128,-1,13
 158 634 158 634 171.5 640.5 c 128,-1,14
 185 647 185 647 206 641 c 0,15,16
 258 624 258 624 299 590.5 c 128,-1,17
 340 557 340 557 367.5 520.5 c 128,-1,18
 395 484 395 484 407.5 449 c 128,-1,19
 420 414 420 414 416 394 c 0,20,21
 413 380 413 380 399 358.5 c 128,-1,22
 385 337 385 337 363 313 c 128,-1,23
 341 289 341 289 312.5 263 c 128,-1,24
 284 237 284 237 251 215 c 128,-1,25
 218 193 218 193 182.5 175.5 c 128,-1,26
 147 158 147 158 111 150 c 0,27,28
 95 148 95 148 85 159 c 128,-1,29
 75 170 75 170 77 183 c 0,30,31
 80 194 80 194 90 203.5 c 128,-1,32
 100 213 100 213 120 218 c 0,0,1
EndSplineSet
EndChar
StartChar: oe
Encoding: 339 339 121
Width: 1409
Flags: W
Fore
1402 362 m 0,0,1
 1345 362 1345 362 1279.5 361.5 c 128,-1,2
 1214 361 1214 361 1144 359 c 128,-1,3
 1074 357 1074 357 1002 353.5 c 128,-1,4
 930 350 930 350 861 344 c 1,5,6
 849 292 849 292 853.5 245 c 128,-1,7
 858 198 858 198 883 162.5 c 128,-1,8
 908 127 908 127 955.5 106 c 128,-1,9
 1003 85 1003 85 1077 85 c 0,10,11
 1108 85 1108 85 1142.5 94.5 c 128,-1,12
 1177 104 1177 104 1216 121 c 0,13,14
 1290 155 1290 155 1340 229 c 1,15,16
 1354 242 1354 242 1371 242 c 128,-1,17
 1388 242 1388 242 1399 232.5 c 128,-1,18
 1410 223 1410 223 1410.5 205.5 c 128,-1,19
 1411 188 1411 188 1393 166 c 1,20,-1
 1393 167 l 1,21,22
 1364 129 1364 129 1325 98 c 128,-1,23
 1286 67 1286 67 1241.5 45.5 c 128,-1,24
 1197 24 1197 24 1150 12 c 128,-1,25
 1103 0 1103 0 1059 0 c 0,26,27
 996 0 996 0 948.5 14 c 128,-1,28
 901 28 901 28 866 54 c 256,29,30
 831 80 831 80 809.5 114 c 128,-1,31
 788 148 788 148 776 186 c 1,32,33
 744 137 744 137 702.5 101.5 c 128,-1,34
 661 66 661 66 612.5 43 c 128,-1,35
 564 20 564 20 509.5 9 c 128,-1,36
 455 -2 455 -2 397 -2 c 0,37,38
 360 -2 360 -2 321 5 c 128,-1,39
 282 12 282 12 246.5 28 c 128,-1,40
 211 44 211 44 181 69.5 c 128,-1,41
 151 95 151 95 132 132.5 c 128,-1,42
 113 170 113 170 108 220.5 c 128,-1,43
 103 271 103 271 117 336 c 0,44,45
 136 429 136 429 175 502.5 c 128,-1,46
 214 576 214 576 270.5 627 c 128,-1,47
 327 678 327 678 400.5 705 c 128,-1,48
 474 732 474 732 564 732 c 0,49,50
 615 732 615 732 661 719 c 128,-1,51
 707 706 707 706 743.5 679.5 c 128,-1,52
 780 653 780 653 806 613.5 c 128,-1,53
 832 574 832 574 843 522 c 1,54,55
 912 619 912 619 1002.5 674.5 c 128,-1,56
 1093 730 1093 730 1210 730 c 0,57,58
 1287 730 1287 730 1343 704 c 128,-1,59
 1399 678 1399 678 1433.5 638 c 128,-1,60
 1468 598 1468 598 1481 550 c 128,-1,61
 1494 502 1494 502 1485 458 c 0,62,63
 1474 406 1474 406 1454 384 c 128,-1,64
 1434 362 1434 362 1402 362 c 0,0,1
754 333 m 0,65,66
 772 417 772 417 761.5 477.5 c 128,-1,67
 751 538 751 538 720.5 577.5 c 128,-1,68
 690 617 690 617 644.5 636 c 128,-1,69
 599 655 599 655 548 655 c 0,70,71
 413 655 413 655 324 577 c 128,-1,72
 235 499 235 499 201 336 c 0,73,74
 185 262 185 262 199.5 213.5 c 128,-1,75
 214 165 214 165 246.5 136 c 128,-1,76
 279 107 279 107 324 95 c 128,-1,77
 369 83 369 83 415 83 c 0,78,79
 475 83 475 83 530 96 c 128,-1,80
 585 109 585 109 630 138 c 128,-1,81
 675 167 675 167 707 215 c 128,-1,82
 739 263 739 263 754 333 c 0,65,66
1000 582 m 0,83,84
 920 518 920 518 880 428 c 1,85,86
 898 429 898 429 922.5 430 c 128,-1,87
 947 431 947 431 976 431.5 c 128,-1,88
 1005 432 1005 432 1038 433 c 128,-1,89
 1071 434 1071 434 1104 434 c 0,90,91
 1156 435 1156 435 1209 435.5 c 128,-1,92
 1262 436 1262 436 1305.5 436 c 128,-1,93
 1349 436 1349 436 1376 435.5 c 128,-1,94
 1403 435 1403 435 1403 434 c 1,95,96
 1406 449 1406 449 1405 470 c 128,-1,97
 1404 491 1404 491 1395.5 514 c 128,-1,98
 1387 537 1387 537 1371.5 560.5 c 128,-1,99
 1356 584 1356 584 1331.5 602.5 c 128,-1,100
 1307 621 1307 621 1272 633.5 c 128,-1,101
 1237 646 1237 646 1190 648 c 0,102,103
 1142 646 1142 646 1091.5 629 c 128,-1,104
 1041 612 1041 612 1000 582 c 0,83,84
EndSplineSet
EndChar
StartChar: exclamdown
Encoding: 161 161 125
Width: 317
Flags: W
Fore
180 -165 m 2,0,1
 172 -194 172 -194 150.5 -207.5 c 128,-1,2
 129 -221 129 -221 106 -221 c 0,3,4
 95 -221 95 -221 84.5 -218 c 128,-1,5
 74 -215 74 -215 66.5 -208.5 c 128,-1,6
 59 -202 59 -202 55.5 -191.5 c 128,-1,7
 52 -181 52 -181 55 -165 c 2,8,-1
 209 425 l 1,9,10
 222 453 222 453 250 452 c 0,11,12
 275 451 275 451 278 425 c 1,13,-1
 180 -165 l 2,0,1
337 554 m 1,14,15
 332 530 332 530 312.5 508 c 128,-1,16
 293 486 293 486 259 486 c 0,17,18
 227 486 227 486 212 503.5 c 128,-1,19
 197 521 197 521 203 550 c 0,20,21
 209 576 209 576 232 597 c 128,-1,22
 255 618 255 618 287 618 c 0,23,24
 313 618 313 618 326.5 600.5 c 128,-1,25
 340 583 340 583 337 555 c 2,26,-1
 337 554 l 1,14,15
EndSplineSet
EndChar
